<?xml version="1.0" encoding="UTF-8"?>
<svg width="676.81pt" height="614.98pt" version="1.0" viewBox="0 0 676.81 614.98" xmlns="http://www.w3.org/2000/svg" xmlns:cc="http://creativecommons.org/ns#" xmlns:dc="http://purl.org/dc/elements/1.1/" xmlns:osb="http://www.openswatchbook.org/uri/2009/osb" xmlns:rdf="http://www.w3.org/1999/02/22-rdf-syntax-ns#">
 <g fill="#f00" stroke="#000" stroke-width=".75px" id='bodyAbs'>
  <path d="m146.8 177.05 4.4716-3.9007 7.2306-2.8542 2.8542 1.4271 1.1417 3.8056-0.28543 6.2792-1.9028 5.5181-5.3278 3.0445-7.6112 0.66597-3.0444-1.332 0.19028-5.6132 0.28542-4.6618z"/>
  <path d="m186.42 177.73-4.4716-3.9007-7.2306-2.8542-2.8542 1.4271-1.1417 3.8056 0.28543 6.2792 1.9028 5.5181 5.3278 3.0445 7.6112 0.66597 3.0444-1.332-0.19028-5.6132-0.28542-4.6618z"/>
  <path d="m143.42 214.87 17.077-2.1406 0.71354-1.6649 0.85626-7.1354-0.0951-9.2285-0.28542-0.95139-3.9483-0.71354-5.4229 1.2368-5.7084 2.5212-1.5698 1.332-1.0465 3.5201-0.42813 4.8997z"/>
  <path d="m189.7 215.4-17.077-2.1406-0.71354-1.6649-0.85626-7.1354 0.0951-9.2285 0.28542-0.95139 3.9483-0.71354 5.423 1.2368 5.7083 2.5212 1.5698 1.332 1.0465 3.5201 0.42813 4.8997z"/>
  <path d="m160.69 218.2 0.52326 11.607-0.42812 2.3785-1.7601 1.7601-4.2813 0.38056-9.7518-0.14271-3.425-1.4271-1.1417-2.3785v-2.9969l1.0941-3.2823 1.5222-2.4261 3.6629-2.1882 4.3764-1.4271 3.092-0.19027 4.3288 0.23784z"/>
  <path d="m171.66 218.2-0.52326 11.607 0.42812 2.3785 1.7601 1.7601 4.2813 0.38056 9.7518-0.14271 3.425-1.4271 1.1417-2.3785v-2.9969l-1.0941-3.2823-1.5222-2.4261-3.6629-2.1882-4.3764-1.4271-3.092-0.19027-4.3288 0.23784z"/>
  <path d="m171.82 305.63-0.71355-0.6184-0.52326-20.883 0.0476-13.795 0.0951-20.693 0.80869-4.8045 1.8076-3.0445 2.1406-1.6174 2.6163-0.42813 3.5677 0.95139 4.5191 2.0931 3.3299 2.9493 1.5222 3.9483 0.23784 4.4715-1.9504 7.3733-10.085 32.252-2.8542 7.4209-1.8552 2.8542z"/>
  <path d="m160.48 305.57 0.71355-0.6184 0.52326-20.883-0.0476-13.795-0.0951-20.693-0.80869-4.8045-1.8076-3.0445-2.1406-1.6174-2.6163-0.42813-3.5677 0.95139-4.5191 2.0931-3.3299 2.9493-1.5222 3.9483-0.23784 4.4715 1.9504 7.3733 10.085 32.252 2.8542 7.4209 1.8552 2.8542z"/>
 </g>
</svg>
