<?xml version="1.0" encoding="UTF-8"?>
<svg width="676.81pt" height="614.98pt" version="1.0" viewBox="0 0 676.81 614.98" xmlns="http://www.w3.org/2000/svg" xmlns:cc="http://creativecommons.org/ns#" xmlns:dc="http://purl.org/dc/elements/1.1/" xmlns:osb="http://www.openswatchbook.org/uri/2009/osb" xmlns:rdf="http://www.w3.org/1999/02/22-rdf-syntax-ns#">
 <g fill="#f00" stroke="#000" stroke-width=".75px" id='bodyAbs'>
  <path d="m146.8 177.05 4.4716-3.9007 7.2306-2.8542 2.8542 1.4271 1.1417 3.8056-0.28543 6.2792-1.9028 5.5181-5.3278 3.0445-7.6112 0.66597-3.0444-1.332 0.19028-5.6132 0.28542-4.6618z"/>
  <path d="m186.42 177.73-4.4716-3.9007-7.2306-2.8542-2.8542 1.4271-1.1417 3.8056 0.28543 6.2792 1.9028 5.5181 5.3278 3.0445 7.6112 0.66597 3.0444-1.332-0.19028-5.6132-0.28542-4.6618z"/>
  <path d="m143.42 214.87 17.077-2.1406 0.71354-1.6649 0.85626-7.1354-0.0951-9.2285-0.28542-0.95139-3.9483-0.71354-5.4229 1.2368-5.7084 2.5212-1.5698 1.332-1.0465 3.5201-0.42813 4.8997z"/>
  <path d="m189.7 215.4-17.077-2.1406-0.71354-1.6649-0.85626-7.1354 0.0951-9.2285 0.28542-0.95139 3.9483-0.71354 5.423 1.2368 5.7083 2.5212 1.5698 1.332 1.0465 3.5201 0.42813 4.8997z"/>
  <path d="m160.69 218.2 0.52326 11.607-0.42812 2.3785-1.7601 1.7601-4.2813 0.38056-9.7518-0.14271-3.425-1.4271-1.1417-2.3785v-2.9969l1.0941-3.2823 1.5222-2.4261 3.6629-2.1882 4.3764-1.4271 3.092-0.19027 4.3288 0.23784z"/>
  <path d="m171.66 218.2-0.52326 11.607 0.42812 2.3785 1.7601 1.7601 4.2813 0.38056 9.7518-0.14271 3.425-1.4271 1.1417-2.3785v-2.9969l-1.0941-3.2823-1.5222-2.4261-3.6629-2.1882-4.3764-1.4271-3.092-0.19027-4.3288 0.23784z"/>
  <path d="m171.82 305.63-0.71355-0.6184-0.52326-20.883 0.0476-13.795 0.0951-20.693 0.80869-4.8045 1.8076-3.0445 2.1406-1.6174 2.6163-0.42813 3.5677 0.95139 4.5191 2.0931 3.3299 2.9493 1.5222 3.9483 0.23784 4.4715-1.9504 7.3733-10.085 32.252-2.8542 7.4209-1.8552 2.8542z"/>
  <path d="m160.48 305.57 0.71355-0.6184 0.52326-20.883-0.0476-13.795-0.0951-20.693-0.80869-4.8045-1.8076-3.0445-2.1406-1.6174-2.6163-0.42813-3.5677 0.95139-4.5191 2.0931-3.3299 2.9493-1.5222 3.9483-0.23784 4.4715 1.9504 7.3733 10.085 32.252 2.8542 7.4209 1.8552 2.8542z"/>
 </g>
  <g fill="#f00" stroke="#000" id='bodyBack'>
  <path d="m456.19 124.59 6.5662 8.0817 5.2802 5.4705 4.6142 3.8056 4.8521 2.3309 6.4219 1.7125 1.2844 1.1892-0.0951 2.0931-0.76111 0.66597-3.0445 0.42813-17.696-0.0951-3.6629-1.5698-1.9979-3.8056-2.2833-7.7063-0.57083-4.3288-0.19028-3.758 0.47569-2.426z" stroke-width=".75px"/>
  <path d="m573.17 124.7-6.7775 8.0817-5.4502 5.4705-4.7627 3.8056-5.0082 2.3309-6.6286 1.7125-1.3257 1.1892 0.0982 2.0931 0.78561 0.66597 3.1424 0.42813 18.265-0.0951 3.7807-1.5698 2.0622-3.8056 2.3568-7.7063 0.5892-4.3288 0.19641-3.758-0.491-2.426z" stroke-width=".76197px"/>
  <path d="m555.41 110.76 3.801 2.6573 3.431 3.2628 3.8346 2.7918 5.0455 2.2873-10.394 10.326-6.9292 6.021-3.1619 1.7828-5.4155 1.8164 2.22-9.3847 1.6482-5.7855 1.6818-5.0455 2.0182-5.7183 1.3118-3.431z" stroke-width=".75px"/>
  <path d="m473.93 110.74-3.8514 2.6566-3.4765 3.262-3.8855 2.7912-5.1125 2.2867 10.532 10.324 7.0211 6.0195 3.2038 1.7823 5.4874 1.8159-2.2495-9.3824-1.6701-5.7841-1.7042-5.0443-2.045-5.7169-1.3292-3.4301z" stroke-width=".75487px"/>
  <path d="m472.04 221.85 10.751 16.745-9.6566 9.8469-5.7084 4.1386-0.4757-1.1417 1.5698-12.368 2.1406-12.463z"/>
  <path d="m556.77 222.18-10.751 16.745 9.6566 9.8469 5.7084 4.1386 0.4757-1.1417-1.5698-12.368-2.1406-12.463z"/>
  <path d="m533.73 262.11 4.1386 2.9493 8.9431 4.8045 7.849 4.6142 5.9462 4.4716 5.851 5.7559-0.33298-5.8986-0.52327-6.0413-0.66597-5.8035-1.3795-3.7104-2.2358-3.758-6.85-6.8024-7.2782-6.3743-3.5677-2.759-1.8552-0.80868-1.1417-0.0951-2.9017 1.5222-4.8045 5.1375-2.0931 3.092-0.1427 4.6618 0.80868 2.6163z"/>
  <path d="m494.85 262.05-4.1386 2.9758-8.9431 4.8476-7.849 4.6556-5.9462 4.5117-5.851 5.8076 0.33298-5.9516 0.52327-6.0955 0.66597-5.8556 1.3795-3.7437 2.2358-3.7917 6.85-6.8635 7.2782-6.4315 3.5677-2.7838 1.8552-0.81594 1.1417-0.0959 2.9017 1.5359 4.8045 5.1836 2.0931 3.1198 0.1427 4.7036-0.80868 2.6398z" stroke-width=".75336px"/>
 </g>
  <g fill="#f00" stroke="#000" id='bodyBicep'>
  <path d="m108.55 140.43 1.2368 10.465-2.4736 12.654-5.5181 15.793-5.7084 8.8479-11.892 14.461-5.8986 6.0889-2.8542-0.95139-0.66598-3.1396 0.09514-4.1861 2.4736-12.463 3.2347-11.417 4.3764-10.751 5.7084-8.0868 7.3257-8.0868 8.182-7.7063z" stroke-width=".75px"/>
  <path d="m222.27 140.24-1.314 10.465 2.6281 12.654 5.8626 15.793 6.0648 8.8479 12.635 14.461 6.2669 6.0889 3.0324-0.95139 0.70756-3.1396-0.10103-4.1861-2.6281-12.463-3.4367-11.417-4.6497-10.751-6.0648-8.0868-7.7831-8.0868-8.6928-7.7063z" stroke-width=".77306px"/>
  <path d="m109.99 163.98 0.94183 0.13455 0.26909 3.8346-1.2782 8.0728-1.6146 5.1801-2.8255 6.1892-3.4309 6.391-4.3728 7.3328-4.2382 6.2564-1.8837 2.3546-0.94183-0.60547-2.6909-5.2473-0.06727-1.0091 0.74001-1.48 3.431-3.9691 5.9873-7.871 5.651-8.2746 3.2291-8.4092 1.3455-4.3728 1.1436-3.431z" stroke-width=".75px"/>
  <path d="m221.87 160.44-0.98367 0.14717-0.28105 4.1942 1.335 8.83 1.6863 5.6659 2.951 6.7696 3.5834 6.9904 4.567 8.0206 4.4265 6.8432 1.9673 2.5754 0.98368-0.66226 2.8105-5.7395 0.0703-1.1037-0.77288-1.6188-3.5834-4.3414-6.2533-8.6092-5.902-9.0507-3.3726-9.1979-1.4052-4.7829-1.1944-3.7527z" stroke-width=".80162px"/>
 </g>
 <g fill="#f00" stroke="#000" stroke-width=".75px" id='bodyCalves'>
  <path d="m480.07 438.97-3.8056 3.7104-4.4716 6.4695-4.2813 11.036-3.425 15.793-3.425 20.455-0.76111 11.702 4.4715 8.8479 7.4209 13.89 8.6577-16.174 3.6153-10.37v-7.9917l-1.5222-16.554v-11.988l0.0951-17.981-0.66598-8.4674z"/>
  <path d="m548.86 438.57 3.8056 3.7104 4.4716 6.4695 4.2813 11.036 3.425 15.793 3.425 20.455 0.76111 11.702-4.4715 8.8479-7.4209 13.89-8.6577-16.174-3.6153-10.37v-7.9917l1.5222-16.554v-11.988l-0.0951-17.981 0.66598-8.4674z"/>
  <path d="m460.15 429.3 1.3455 0.47092 3.1619 8.0728 1.8836 7.131-0.87455 5.4492-2.6237 10.427-3.0946 14.666-2.96 19.173-2.0855 16.886-1.4128 7.7365-1.8164 3.2964-1.9509-0.60545-1.2782-6.5256-1.4127-11.504-0.33637-9.9565 0.53818-9.0147 2.2873-10.831 4.3055-12.849 2.6909-7.6019 2.4219-10.36 0.53818-9.2838z"/>
  <path d="m569.18 428.62-1.3455 0.47092-3.1619 8.0728-1.8836 7.131 0.87455 5.4492 2.6237 10.427 3.0946 14.666 2.96 19.173 2.0855 16.886 1.4128 7.7365 1.8164 3.2964 1.9509-0.60545 1.2782-6.5256 1.4127-11.504 0.33637-9.9565-0.53818-9.0147-2.2873-10.831-4.3055-12.849-2.6909-7.6019-2.4219-10.36-0.53818-9.2838z"/>
  <path d="m123.18 460.45-1.48 0.80729-2.8255 6.1892-4.3055 12.513-1.5473 11.907-1.2109 19.24-0.2691 8.9474 1.4127-0.53819 4.1037-8.2746 6.2564-14.127 3.1619-10.36 0.47091-8.4092-1.2109-9.4856z"/>
  <path d="m209.25 460.99 1.48 0.80729 2.8255 6.1892 4.3055 12.513 1.5473 11.907 1.2109 19.24 0.2691 8.9474-1.4127-0.53819-4.1037-8.2746-6.2564-14.127-3.1619-10.36-0.47091-8.4092 1.2109-9.4856z"/>
 </g>
 <g fill="#fff" stroke="#000" stroke-width=".75px" id='bodyChest'>
    <path d="m108.71 132.9 1.6146-4.4401 3.2964-4.3055 3.1619-3.3637 5.7855-4.171 4.3728-1.7491 5.4492-1.1436 5.2474 0.60546 3.2291 1.3455 13.051 4.9782-0.33636 0.87455-5.7183 1.0091-9.8892 0.87456-7.2655 1.0091-8.7456 3.7-5.0455 2.6237-5.651 2.4218-2.4891 0.67273z" stroke-width=".75px"/>
    <path d="m225.1 133.24-1.7084-4.4522-3.488-4.3173-3.3457-3.3729-6.1218-4.1824-4.627-1.7539-5.7659-1.1468-5.5524 0.60711-3.4168 1.3492-13.81 4.9918 0.35591 0.87694 6.0506 1.0119 10.464 0.87695 7.6879 1.0119 9.2539 3.7102 5.3388 2.6308 5.9794 2.4285 2.6338 0.67457z" stroke-width=".77254px"/>
    <path d="m110.26 136.4 4.7092-3.1619 5.7855-2.8255 8.4092-3.2291 9.0147-1.8164 6.391-0.47092 11.033-0.40364 3.1619 0.94183 2.2873 35.924-4.7091 3.6328-5.1128 2.22-5.651 1.6146-9.4856-1.0091-14.195-2.6237-5.5164-2.7582-1.8164-3.5655-2.1528-10.36z" stroke-width=".75px"/>
    <path d="m222.16 136.76-4.7092-3.1619-5.7855-2.8255-8.4092-3.2291-9.0147-1.8164-6.391-0.47092-11.033-0.40364-3.1619 0.94183-2.2873 35.924 4.7091 3.6328 5.1128 2.22 5.651 1.6146 9.4856-1.0091 14.195-2.6237 5.5164-2.7582 1.8164-3.5655 2.1528-10.36z" stroke-width=".75px"/>
  </g>
  <g id='bodyGlutes' fill="#fff" stroke="#000" stroke-width=".75px">
    <path d="m462.59 290.49 0.72224 28.015 0.53819 8.6783 0.53819 3.9019 0.53819 2.5564 6.7274-3.5655 5.5164-1.3455 7.871-0.26909 9.1492-0.94183 7.4001-2.96 5.7855-5.2473 2.5564-9.1492-0.80728-6.3237-1.4128-5.0455-3.0273-7.5346-2.4891-6.1892-1.7491-9.2165-0.26909-7.131-1.1437-3.3637-16.415 8.4092-10.226 6.1219z" fill="#f00" stroke="#000" stroke-width=".75px"/>
    <path d="m566.19 290.29-0.72224 28.015-0.53819 8.6783-0.53819 3.9019-0.53819 2.5564-6.7274-3.5655-5.5164-1.3455-7.871-0.26909-9.1492-0.94183-7.4001-2.96-5.7855-5.2473-2.5564-9.1492 0.80728-6.3237 1.4128-5.0455 3.0273-7.5346 2.4891-6.1892 1.7491-9.2165 0.26909-7.131 1.1437-3.3637 16.415 8.4092 10.226 6.1219z" fill="#f00" stroke="#000" stroke-width=".75px"/>
  </g>
   <g fill="#f00" stroke="#000" id='bodyHamstring'>
  <path d="m498.9 380.73 4.9782-8.0728 3.5655-8.9474 1.1436-4.5073 0.74001-11.302-0.20182-12.58-0.20182-10.966-4.171 3.2291-5.3819 2.5564-6.7274 2.3546-2.3546 1.2782v3.0273l0.47092 4.3055 1.4128 7.7365 2.3546 11.1 1.8837 10.427 1.0091 6.5928 0.67275 3.431z" stroke-width=".75px"/>
  <path d="m529.84 381.34-4.9782-8.1588-3.5655-9.0427-1.1436-4.5554-0.74001-11.422 0.20182-12.714 0.20182-11.082 4.171 3.2635 5.3819 2.5836 6.7274 2.3797 2.3546 1.2918v3.0596l-0.47092 4.3514-1.4128 7.8189-2.3546 11.218-1.8837 10.538-1.0091 6.663-0.67275 3.4675z" stroke-width=".75398px"/>
   <path d="m464.39 338.59 7.2142-4.5562 7.1354-1.5222 2.759 0.85625-1.5222 4.5667-2.759 13.319-1.7125 12.273-1.4271 12.844-1.9028 14.651-2.9493 11.512-5.0424 13.034-5.2326 9.0382-0.9514-13.415 1.4271-15.888 2.9493-23.119 1.4271-17.981v-11.988z"/>
   <path d="m564.69 338.59-7.2142-4.5562-7.1354-1.5222-2.759 0.85625 1.5222 4.5667 2.759 13.319 1.7125 12.273 1.4271 12.844 1.9028 14.651 2.9493 11.512 5.0424 13.034 5.2326 9.0382 0.9514-13.415-1.4271-15.888-2.9493-23.119-1.4271-17.981v-11.988z"/>
   <path d="m541.63 333.65 0.85626-1.5222 1.4271 0.95139 3.3299 8.9431 1.4271 10.56 1.6174 14.366 0.57084 14.842 0.0951 16.84-0.57084 14.556-3.7104 15.317-1.7125 2.6639-1.0465-1.332-7.6111-41.29-0.95139-11.607 1.9979-13.605 3.1396-13.89 0.66598-6.7549 0.0951-7.4209z"/>
   <path d="m487.49 334.22-0.85626-1.5222-1.4271 0.95139-3.3299 8.9431-1.4271 10.56-1.6174 14.366-0.57084 14.842-0.0951 16.84 0.57084 14.556 3.7104 15.317 1.7125 2.6639 1.0465-1.332 7.6111-41.29 0.95139-11.607-1.9979-13.605-3.1396-13.89-0.66598-6.7549-0.0951-7.4209z"/>
 </g>
   <g fill="#f00" stroke="#000" id='bodyLats'>
    <path d="m460.99 155.09 14.162-0.46323 14.397 0.60546 1.5473 1.4128 0.53819 1.2782 4.2382 5.1801 10.966 13.253-0.47091 15.607-0.74001 10.226-1.1436 10.764-1.4128 10.966-1.1436 8.4092-1.6146 10.293-0.94183 2.3546-7.4674-4.8437-5.0455-4.911-5.3819-6.6601-4.7764-6.7274-1.2109-3.6328-2.22-12.513-0.74001-7.3328-3.4982-12.984-4.2382-13.051-2.6237-8.9474-2.0182-7.9383z" fill="#f00" stroke="#000" stroke-width=".75px"/>
    <path d="m569.24 155.05-14.997-0.46323-15.245 0.60546-1.6385 1.4128-0.56992 1.2782-4.4881 5.1801-11.612 13.253 0.49868 15.607 0.78363 10.226 1.2111 10.764 1.496 10.966 1.2111 8.4092 1.7098 10.293 0.99736 2.3546 7.9076-4.8437 5.343-4.911 5.6992-6.6601 5.058-6.7274 1.2823-3.6328 2.3509-12.513 0.78364-7.3328 3.7045-12.984 4.4881-13.051 2.7784-8.9474 2.1372-7.9383z" fill="#f00" stroke="#000" stroke-width=".77179px"/>
  </g>
   <g fill="#f00" stroke="#000" stroke-width=".75px" id='bodyObliques'>
  <path d="m128.39 185.19 2.8066-2.6639 2.2833-1.2368 0.66597 0.23785-0.57083 3.5677-0.85625 2.0455-1.4747 0.1427-2.3785-0.61841-0.80869-0.6184z"/>
  <path d="m124.06 189.14-1.1892 2.7115-0.33298 2.2834 1.5222 2.8066 2.8542 2.7115 5.8035 4.2337 0.66597-3.6629 0.42813-3.5677-1.1892-2.9018-1.9028-2.4736-3.1396-2.5688-2.2358-0.80869z"/>
  <path d="m203.76 185.33-2.8066-2.6639-2.2833-1.2368-0.66597 0.23785 0.57083 3.5677 0.85625 2.0455 1.4747 0.1427 2.3785-0.61841 0.80869-0.6184z"/>
  <path d="m208.08 189.28 1.1892 2.7115 0.33298 2.2834-1.5222 2.8066-2.8542 2.7115-5.8035 4.2337-0.66597-3.6629-0.42813-3.5677 1.1892-2.9018 1.9028-2.4736 3.1396-2.5688 2.2358-0.80869z"/>
  <path d="m199.8 208.88-0.16818 3.9691-0.0336 5.5501 0.37001 0.33636 5.7855-4.5746 2.5564-2.3882 1.2109-2.3546 0.97548-2.6237 0.47091-3.061 0.33636-3.4982-0.23545-0.74001-1.1773 0.30273-2.0182 1.6482-5.1128 3.8682-2.59 2.4555z"/>
  <path d="m199.84 223.31-2.4218 3.4646-0.90819 3.0946-0.20182 1.3118 0.6391 0.77365 1.1773 0.10091 2.4891-0.84092 3.1619-1.9173 3.0273-2.1191 2.0518-2.3546 1.11-2.6909 0.43728-2.2537-0.16819-2.22-0.47091-1.8164-0.50455-0.10091-1.7155 0.67274-3.0946 2.3209-2.7582 2.3546z"/>
  <path d="m133.28 209.87 0.16818 3.9691 0.0336 5.5501-0.37001 0.33636-5.7855-4.5746-2.5564-2.3882-1.2109-2.3546-0.97548-2.6237-0.47091-3.061-0.33636-3.4982 0.23545-0.74001 1.1773 0.30273 2.0182 1.6482 5.1128 3.8682 2.59 2.4555z"/>
  <path d="m133.25 224.3 2.4218 3.4646 0.90819 3.0946 0.20182 1.3118-0.6391 0.77365-1.1773 0.10091-2.4891-0.84092-3.1619-1.9173-3.0273-2.1191-2.0518-2.3546-1.11-2.6909-0.43728-2.2537 0.16819-2.22 0.47091-1.8164 0.50455-0.10091 1.7155 0.67274 3.0946 2.3209 2.7582 2.3546z"/>
  <path d="m123.25 230.05-0.90382 1.0465-1.3795 3.758-1.2844 8.3722-0.4757 9.8945 0.42813 6.1365 1.4271 3.092 2.4974 1.6174 3.425 0.52327 4.424-0.57083 3.9958-1.7363s1.9741-2.4974 1.9741-2.5925c0-0.0951 0.0476-4.1623 0.0476-4.1623l-0.97518-5.6608-1.5698-4.3288-2.4023-4.8283-2.7353-3.758-4.2575-4.757z"/>
  <path d="m209.19 229.79 0.90382 1.0465 1.3795 3.758 1.2844 8.3722 0.4757 9.8945-0.42813 6.1365-1.4271 3.092-2.4974 1.6174-3.425 0.52327-4.424-0.57083-3.9958-1.7363s-1.9741-2.4974-1.9741-2.5925c0-0.0951-0.0476-4.1623-0.0476-4.1623l0.97518-5.6608 1.5698-4.3288 2.4023-4.8283 2.7353-3.758 4.2575-4.757z"/>
 </g>
  <g fill="#f00" stroke="#000" id='bodyQuads'>
  <path d="m115.88 268.48-2.6639 5.8986-1.9028 8.5625-1.1417 12.368-0.76112 21.501 1.5222 21.882 2.0931 16.554 3.6153 26.068 2.6639 10.465 3.0445-0.19028 3.425-5.5181 4.5667-17.506 2.2833-12.558-0.19028-11.226-1.7125-15.222-4.757-23.214-3.0445-11.226-3.8056-12.749-1.7125-11.607z"/>
  <path d="m216.73 268.67 2.6639 5.8986 1.9028 8.5625 1.1417 12.368 0.76112 21.501-1.5222 21.882-2.0931 16.554-3.6153 26.068-2.6639 10.465-3.0445-0.19028-3.425-5.5181-4.5667-17.506-2.2833-12.558 0.19028-11.226 1.7125-15.222 4.757-23.214 3.0445-11.226 3.8056-12.749 1.7125-11.607z"/>
  <path d="m227.19 323.57 1.2368 3.2347 0.66597 16.174-0.38055 16.079-0.57084 12.368-0.28542 14.937 0.28542 12.178 0.19029 4.9472 0.57083 4.4716-0.19028 1.9979-2.6639-0.47569-2.4736-2.9493-3.2347-8.5625-1.332-8.848 0.38056-8.0868 1.4271-8.3723 1.4271-10.465 1.6174-15.698 1.5222-15.413 0.85626-6.5646z"/>
  <path d="m105.51 322.14-1.2365 3.2524-0.66581 16.262 0.38046 16.166 0.5707 12.436 0.28536 15.019-0.28536 12.244-0.19024 4.9743-0.57069 4.496 0.19023 2.0088 2.6633-0.47829 2.473-2.9654 3.234-8.6093 1.3316-8.8963-0.38047-8.131-1.4267-8.418-1.4267-10.523-1.617-15.784-1.5218-15.497-0.85605-6.6005z" stroke-width=".75196px"/>
  <path d="m209.83 271.14 2.0182-0.53818 1.2109 0.67273 0.0673 2.2873-1.6146 6.8619-3.9691 12.984-4.5746 14.733-2.4218 8.611-1.4128 6.7946-1.1436 5.9874-1.1436 10.696-0.87456 11.84-0.47092 10.831-0.87455 21.124-0.80729 14.195-1.0764 1.7491-1.48-1.3455-0.94182-5.0455-0.80729-6.4583-0.40364-9.7547-0.47091-6.391-0.33638-4.911-0.67273-2.6237-0.74001-2.8255 0.0673-3.3637 1.6818-9.6874 1.9509-10.226 3.7-14.262 4.5073-18.635 4.3055-16.684 3.9019-12.715 1.6146-2.8255z"/>
  <path d="m123.1 270.07-2.0182-0.53818-1.2109 0.67273-0.0673 2.2873 1.6146 6.8619 3.9691 12.984 4.5746 14.733 2.4218 8.611 1.4128 6.7946 1.1436 5.9874 1.1436 10.696 0.87456 11.84 0.47092 10.831 0.87455 21.124 0.80729 14.195 1.0764 1.7491 1.48-1.3455 0.94182-5.0455 0.80729-6.4583 0.40364-9.7547 0.47091-6.391 0.33638-4.911 0.67273-2.6237 0.74001-2.8255-0.0673-3.3637-1.6818-9.6874-1.9509-10.226-3.7-14.262-4.5073-18.635-4.3055-16.684-3.9019-12.715-1.6146-2.8255z"/>
  <path d="m133.67 368.76 1.3455 33.368 0.0673 10.427-1.4128 4.7091-4.5073-5.4492-1.6146-3.3637-0.13455-7.1983 0.47092-6.9964 1.1436-7.7365 2.22-8.9474 1.2782-6.7274z"/>
  <path d="m199.19 369.99-1.3455 33.368-0.0673 10.427 1.4128 4.7091 4.5073-5.4492 1.6146-3.3637 0.13455-7.1983-0.47092-6.9964-1.1436-7.7365-2.22-8.9474-1.2782-6.7274z"/>
 </g>
  <g fill="#f00" stroke="#000" id='bodyShoulders'>
  <path d="m432.19 142.99-1.4006-17.406 0.42813-6.7549 3.092-6.3743 5.3754-4.8521 3.2347-1.9028 7.0403-2.8542 5.9938-1.5698 5.3278-0.42813 3.5677 0.9514 3.1396 1.7125 2.8066 1.9504 0.57083 1.4746-0.6184 1.5222-3.5202 2.3309-4.424 2.8066-4.9948 3.1872-1.8076 1.5698-1.7601 2.7115-2.2358 4.3288-3.3299 4.4715-4.3288 4.6142-3.3774 2.8066z" stroke-width=".75px"/>
  <path d="m596.69 142.99 1.4309-17.406-0.43739-6.7549-3.1589-6.3743-5.4917-4.8521-3.3047-1.9028-7.1926-2.8542-6.1234-1.5698-5.4431-0.42813-3.6449 0.9514-3.2075 1.7125-2.8673 1.9504-0.58318 1.4746 0.63179 1.5222 3.5963 2.3309 4.5197 2.8066 5.1029 3.1872 1.8468 1.5698 1.7982 2.7115 2.2841 4.3288 3.4019 4.4715 4.4225 4.6142 3.4505 2.8066z" stroke-width=".75807px"/>
  <path d="m100.91 113.19-3.5655 5.3146-3.5655 4.9782-2.96 5.9201-2.3546 7.7365-1.1437 8.2074-0.94184 9.2165-1.2109 4.911-0.60547-0.13455-0.53818-8.2074 0.20182-11.235 0.67274-11.302 1.9509-4.2382 3.4982-4.6419 3.7-3.431 3.7673-2.6237 2.96-1.0764z" stroke-width=".75px"/>
  <path d="m227.07 112.35 4.613 5.3204 4.613 4.9836 3.8297 5.9265 3.0463 7.7449 1.4796 8.2163 1.2185 9.2265 1.5667 4.9163 0.78335-0.1347 0.69629-8.2163-0.2611-11.247-0.8704-11.314-2.5241-4.2429-4.5259-4.6469-4.7871-3.4347-4.8741-2.6265-3.8296-1.0775z" stroke-width=".85355px"/>
  <path d="m208.49 112.09 5.9528-0.11113 7.849 0.71355 3.6629 1.3795 2.9017 2.4261 4.8997 5.3278 3.6629 5.2327 2.0931 4.757 0.99896 3.3299 1.1417 5.0424 0.52327 5.6608 0.42812 7.1354-3.5201-2.4736-5.4705-4.7094-3.6629-3.9958-2.6639-5.8511-0.90383-4.5667-1.2844-3.1872-5.1851-7.0879-5.5181-4.8997z" stroke-width=".75px"/>
  <path d="m124.39 112.19-6.106-0.0214-8.0509 0.83137-3.7571 1.4338-2.9764 2.4683-5.0257 5.3983-3.7571 5.2846-2.1469 4.7855-1.0247 3.3428-1.171 5.0564-0.53674 5.6651-0.43913 7.1374 3.6107-2.5251 5.6112-4.7889 3.7571-4.0486 2.7324-5.8876 0.92708-4.5774 1.3174-3.2045 5.3185-7.1616 5.66-4.9797z" stroke-width=".75935px"/>
 </g>
  <g fill="#f00" stroke="#000" id='bodyTraps'>
    <path d="m146.39 92.39-8.1182 6.0214-5.1099 4.092-2.5855 2.0969-1.2215 1.3233-0.44788 0.73289 0.0611 0.48859 0.26466 0.40717 0.50895 0.26465 2.2598 0.28502 3.2777-0.18323 3.6848-0.54966 3.1962-0.91612 2.3616-1.0993 1.6897-1.5065 1.7915-2.6466 0.54968-2.0562 0.10179-1.2011-0.44789-1.7508-0.81432-1.8526z" stroke-width=".75px"/>
    <path d="m185.87 91.612 11.401 9.2426 3.8681 2.9316 2.0522 1.504 2.7524 1.1426-3.0944 1.4658-3.298 0.28501-3.2166-0.28501-4.9267-0.89576-3.4202-1.5065-1.7101-1.3844-1.3436-1.5472-1.0993-2.7687 0.28502-3.298 0.61074-2.4023 0.77361-1.7915z" stroke-width=".75px"/>
    <path d="m480.79 92.59 8.7826 1.0984 5.2524 0.81433 3.3388 0.73289 2.8909 1.2622 3.8273 1.0179-0.0407-2.5651-0.77361-2.8094-0.0814-3.6238 0.12215-3.4202 0.65147-3.9088 1.3029-6.7996 0.93647-5.5374 0.32573-5.6189-0.73289-2.158-0.93648-1.4658-2.1172-1.5472-1.0179-0.36645-0.44787 0.85504-0.32574 3.2573-0.12215 4.4788-0.0814 4.1124-1.4251 3.3795-2.443 3.3795-8.8762 9.3648-7.4918 5.5374z" stroke-width=".75px"/>
    <path d="m526.34 57.899 0.61075 2.0358 0.28502 2.8909v3.298l0.12215 3.0537 1.2215 4.0309 1.1808 2.2801 1.0994 1.3844 5.9039 6.6775 5.7817 4.8045 2.8502 1.8322 3.5016 2.443 1.2215 0.61074-3.7052 0.04073-8.2247 0.61075-5.2931 0.93647-5.9039 1.8322-2.8501 0.93647 0.40716-3.3795 0.81432-4.6824-0.52931-5.0081-1.5065-6.6368-0.81433-7.1661-0.12215-4.4381 0.16286-2.7687 0.44788-2.6058 0.77361-1.5472 0.61075-1.1401 1.2622-0.40716z" stroke-width=".75px"/>
  </g>
   <g fill="#f00" stroke="#000" id='bodyTriceps'>
  <path d="m452.62 131.89-2.7582 1.6146-1.8837 3.5655-3.0273 8.2747-6.391 10.966-7.7365 9.6874-5.7855 6.9964-2.8928 6.391-1.7491 10.158 0.26909 6.9964 0.47092 7.8037 1.8164 10.158 1.6146 4.4401h0.74001l1.6146-7.3328 2.1528-10.696 2.5564-9.0147 3.9692-11.84 3.2291-8.8128 4.44-8.5437 4.2382-5.9874 4.3055-6.7274 1.6818-4.5073 1.1436-5.3146-0.67274-4.6419-1.1436-3.7z" stroke-width=".75px"/>
  <path d="m576.38 132.54 2.7986 1.6146 1.9112 3.5655 3.0716 8.2747 6.4845 10.966 7.8496 9.6874 5.8702 6.9964 2.9351 6.391 1.7747 10.158-0.27303 6.9964-0.47781 7.8037-1.843 10.158-1.6382 4.4401h-0.75082l-1.6382-7.3328-2.1842-10.696-2.5938-9.0147-4.0272-11.84-3.2764-8.8128-4.505-8.5437-4.3002-5.9874-4.3685-6.7274-1.7064-4.5073-1.1604-5.3146 0.68258-4.6419 1.1604-3.7z" stroke-width=".75547px"/>
  <path d="m430.08 151.3 4.07-4.2382 4.4737-3.2964 3.2628-1.8837 0.94183 0.13454-0.40364 1.1773-2.7582 5.9201-3.5319 5.6846-3.5991 5.1464-3.3973 3.9355-0.97547 0.16819-0.26909-1.4464 0.13455-4.2719 1.3118-5.9201z" stroke-width=".75px"/>
  <path d="m599 151.12-4.2318-4.4776-4.6514-3.4825-3.3924-1.99-0.97925 0.14214 0.41968 1.2438 2.8678 6.2544 3.6722 6.0056 3.7421 5.437 3.5323 4.1577 1.0142 0.17769 0.27978-1.528-0.13989-4.5131-1.364-6.2544z" stroke-width=".78605px"/>
  <path d="m579.06 160.4-0.95139 1.5698-0.42813 2.5688-0.0476 5.8035 1.1417 8.7052 1.7601 6.7549 2.1882 5.2802 3.758 5.1375 4.7094 4.424 5.6958 4.5414 0.34552-3.1143-0.4757-2.8066-1.8076-5.3278-2.8066-6.7073-2.2358-5.9938-0.76111-3.5202-1.332-6.4695-3.6629-6.2792-3.3774-3.8056z" stroke-width=".75px"/>
  <path d="m450.22 160.3 0.95139 1.5698 0.42813 2.5688 0.0476 5.8035-1.1417 8.7052-1.7601 6.7549-2.1882 5.2802-3.758 5.1375-4.7094 4.424-5.6958 4.5414-0.34552-3.1143 0.4757-2.8066 1.8076-5.3278 2.8066-6.7073 2.2358-5.9938 0.76111-3.5202 1.332-6.4695 3.6629-6.2792 3.3774-3.8056z" stroke-width=".75px"/>
 </g>
</svg>
