<?xml version="1.0" encoding="UTF-8"?>
<svg width="676.81pt" height="614.98pt" version="1.0" viewBox="0 0 676.81 614.98" xmlns="http://www.w3.org/2000/svg" xmlns:cc="http://creativecommons.org/ns#" xmlns:dc="http://purl.org/dc/elements/1.1/" xmlns:osb="http://www.openswatchbook.org/uri/2009/osb" xmlns:rdf="http://www.w3.org/1999/02/22-rdf-syntax-ns#">

<g fill="#fff" stroke="#000" id='bodyBack'>
  <g stroke-width=".75px">
    <path d="m466.94 97.803 4.1861-1.2368 7.3257-0.38056 8.8479 0.38056 7.4209 1.5222 6.3743 2.759 3.8056 3.1396 2.1882 4.5667 0.28542 4.757 0.66598 57.559-4.1861-3.0444-6.0889-6.9452-6.2792-8.9431-4.4715-10.275-3.2347-11.988-5.6132-16.649-5.1375-9.3236z"/>
    <path d="m562.39 97.385-4.1861-1.2179-7.3257-0.34753-8.8479 0.42045-7.4209 1.5557-6.3743 2.7878-3.8056 3.1568-2.1882 4.5765-0.28542 4.7582-0.66598 57.562 4.1861-3.0633 6.0889-6.9726 6.2792-8.9714 4.4715-10.295 3.2347-12.002 5.6132-16.675 5.1375-9.3468z"/>
    <path d="m456.19 124.59 6.5662 8.0817 5.2802 5.4705 4.6142 3.8056 4.8521 2.3309 6.4219 1.7125 1.2844 1.1892-0.0951 2.0931-0.76111 0.66597-3.0445 0.42813-17.696-0.0951-3.6629-1.5698-1.9979-3.8056-2.2833-7.7063-0.57083-4.3288-0.19028-3.758 0.47569-2.426z"/>
    <path d="m573.17 124.7-6.7775 8.0817-5.4502 5.4705-4.7627 3.8056-5.0082 2.3309-6.6286 1.7125-1.3257 1.1892 0.0982 2.0931 0.78561 0.66597 3.1424 0.42813 18.265-0.0951 3.7807-1.5698 2.0622-3.8056 2.3568-7.7063 0.5892-4.3288 0.19641-3.758-0.491-2.426z" stroke-width=".76197px"/>
    <path d="m555.41 110.76 3.801 2.6573 3.431 3.2628 3.8346 2.7918 5.0455 2.2873-10.394 10.326-6.9292 6.021-3.1619 1.7828-5.4155 1.8164 2.22-9.3847 1.6482-5.7855 1.6818-5.0455 2.0182-5.7183 1.3118-3.431z" stroke-width=".75px"/>
    <path d="m473.93 110.74-3.8514 2.6566-3.4765 3.262-3.8855 2.7912-5.1125 2.2867 10.532 10.324 7.0211 6.0195 3.2038 1.7823 5.4874 1.8159-2.2495-9.3824-1.6701-5.7841-1.7042-5.0443-2.045-5.7169-1.3292-3.4301z" stroke-width=".75487px"/>
    <path d="m472.04 221.85 10.751 16.745-9.6566 9.8469-5.7084 4.1386-0.4757-1.1417 1.5698-12.368 2.1406-12.463z"/>
    <path d="m556.77 222.18-10.751 16.745 9.6566 9.8469 5.7084 4.1386 0.4757-1.1417-1.5698-12.368-2.1406-12.463z"/>
    <path d="m533.73 262.11 4.1386 2.9493 8.9431 4.8045 7.849 4.6142 5.9462 4.4716 5.851 5.7559-0.33298-5.8986-0.52327-6.0413-0.66597-5.8035-1.3795-3.7104-2.2358-3.758-6.85-6.8024-7.2782-6.3743-3.5677-2.759-1.8552-0.80868-1.1417-0.0951-2.9017 1.5222-4.8045 5.1375-2.0931 3.092-0.1427 4.6618 0.80868 2.6163z"/>
    <path d="m494.85 262.05-4.1386 2.9758-8.9431 4.8476-7.849 4.6556-5.9462 4.5117-5.851 5.8076 0.33298-5.9516 0.52327-6.0955 0.66597-5.8556 1.3795-3.7437 2.2358-3.7917 6.85-6.8635 7.2782-6.4315 3.5677-2.7838 1.8552-0.81594 1.1417-0.0959 2.9017 1.5359 4.8045 5.1836 2.0931 3.1198 0.1427 4.7036-0.80868 2.6398z" stroke-width=".75336px"/>
  </g>
</svg>
