<?xml version="1.0" encoding="UTF-8"?>
<svg width="676.81pt" height="614.98pt" version="1.0" viewBox="0 0 676.81 614.98" xmlns="http://www.w3.org/2000/svg" xmlns:cc="http://creativecommons.org/ns#" xmlns:dc="http://purl.org/dc/elements/1.1/" xmlns:osb="http://www.openswatchbook.org/uri/2009/osb" xmlns:rdf="http://www.w3.org/1999/02/22-rdf-syntax-ns#">
 <g fill="#f00" stroke="#000" id='bodyBiceps'>
  <path d="m108.55 140.43 1.2368 10.465-2.4736 12.654-5.5181 15.793-5.7084 8.8479-11.892 14.461-5.8986 6.0889-2.8542-0.95139-0.66598-3.1396 0.09514-4.1861 2.4736-12.463 3.2347-11.417 4.3764-10.751 5.7084-8.0868 7.3257-8.0868 8.182-7.7063z" stroke-width=".75px"/>
  <path d="m222.27 140.24-1.314 10.465 2.6281 12.654 5.8626 15.793 6.0648 8.8479 12.635 14.461 6.2669 6.0889 3.0324-0.95139 0.70756-3.1396-0.10103-4.1861-2.6281-12.463-3.4367-11.417-4.6497-10.751-6.0648-8.0868-7.7831-8.0868-8.6928-7.7063z" stroke-width=".77306px"/>
  <path d="m109.99 163.98 0.94183 0.13455 0.26909 3.8346-1.2782 8.0728-1.6146 5.1801-2.8255 6.1892-3.4309 6.391-4.3728 7.3328-4.2382 6.2564-1.8837 2.3546-0.94183-0.60547-2.6909-5.2473-0.06727-1.0091 0.74001-1.48 3.431-3.9691 5.9873-7.871 5.651-8.2746 3.2291-8.4092 1.3455-4.3728 1.1436-3.431z" stroke-width=".75px"/>
  <path d="m221.87 160.44-0.98367 0.14717-0.28105 4.1942 1.335 8.83 1.6863 5.6659 2.951 6.7696 3.5834 6.9904 4.567 8.0206 4.4265 6.8432 1.9673 2.5754 0.98368-0.66226 2.8105-5.7395 0.0703-1.1037-0.77288-1.6188-3.5834-4.3414-6.2533-8.6092-5.902-9.0507-3.3726-9.1979-1.4052-4.7829-1.1944-3.7527z" stroke-width=".80162px"/>
 </g>
</svg>
