<?xml version="1.0" encoding="UTF-8"?>
<svg width="205.36mm" height="65.008mm" version="1.1" viewBox="0 0 205.36 65.008" xmlns="http://www.w3.org/2000/svg" xmlns:cc="http://creativecommons.org/ns#" xmlns:dc="http://purl.org/dc/elements/1.1/" xmlns:rdf="http://www.w3.org/1999/02/22-rdf-syntax-ns#">
 <g transform="translate(-3.3016 -1.8953)">
  <g transform="translate(-24.454 12.739)">
   <rect transform="rotate(-9.47)" x="60.08" y=".33344" width="7.825" height="49.412" stroke-width=".41274"/>
   <rect transform="rotate(-9.47)" x="42.544" y="6.7731" width="7.825" height="37.217" stroke-width=".3582"/>
   <rect transform="rotate(-9.47)" x="51.499" y=".33344" width="7.825" height="49.412" stroke-width=".41274"/>
   <rect transform="rotate(-9.47)" x="24.508" y="21.77" width="17.558" height="5.7256" stroke-width=".12075"/>
   <rect transform="matrix(-.94247 -.3343 -.3343 .94247 0 0)" x="-187.93" y="-43.036" width="54.775" height="5.7256" ry="0" stroke-width=".21326"/>
   <rect transform="matrix(-.94247 -.3343 -.3343 .94247 0 0)" x="-196.44" y="-64.664" width="7.825" height="49.412" stroke-width=".41274"/>
   <rect transform="matrix(-.94247 -.3343 -.3343 .94247 0 0)" x="-213.98" y="-58.224" width="7.825" height="37.217" stroke-width=".3582"/>
   <rect transform="matrix(-.94247 -.3343 -.3343 .94247 0 0)" x="-205.02" y="-64.664" width="7.825" height="49.412" stroke-width=".41274"/>
   <rect transform="matrix(-.94247 -.3343 -.3343 .94247 0 0)" x="-232.02" y="-43.226" width="17.558" height="5.7256" stroke-width=".12075"/>
   <path d="m138.33 3.7236-1.7208-0.1949 0.96627 0.80812-0.3415 0.56041-1.0729 0.40055 1.5381 0.86143-2.1263 0.34253 1.3899 0.87533-2.4927 0.013282 3.4174 1.7066 1.7773-5.0106z" fill="none" stroke="#000" stroke-width=".36412px"/>
   <g>
    <g stroke-width=".033739">
     <path d="m136.45 8.1619c-1.1293-0.5658-1.1381-0.57187-0.99492-0.57602 0.0796-0.00246 0.59183-0.00561 1.1382-0.00639 0.54633-0.00108 0.99653-0.00974 1.0004-0.019627 4e-3 -0.00669-0.31573-0.22033-0.71076-0.46682-0.39478-0.24683-0.71455-0.45801-0.71069-0.46903 3e-3 -0.00954 0.46795-0.093492 1.0313-0.18286 0.5633-0.089479 1.0278-0.17289 1.0321-0.18501 7e-3 -0.010281-0.34867-0.22061-0.78435-0.46311-0.4358-0.24241-0.78933-0.44916-0.78565-0.45946 9.9e-4 -0.015849 0.16487-0.077565 0.62421-0.24126 0.0521-0.018368 0.1459-0.14309 0.30446-0.40446 0.12611-0.20765 0.22445-0.3876 0.21829-0.40009-7e-3 -0.014138-0.13739-0.12717-0.29167-0.25568l-0.2805-0.23349 0.56031 0.068071c0.48938 0.05958 1.1639 0.20806 1.5262 0.33673l0.091 0.031905-0.81205 2.2894-0.81205 2.2894-0.10226-0.040937c-0.0556-0.023558-0.61497-0.29733-1.2416-0.61195z"/>
     <path d="m137.32 9.0009c-0.36712-0.18612-1.1646-0.58697-1.7724-0.89026-0.60779-0.30329-1.1098-0.56227-1.1158-0.57495-6e-3 -0.014 4e-3 -0.087777 0.0225-0.1671l0.0333-0.14396 0.72974-0.00246c1.0673-0.00354 1.1162-0.00561 1.0965-0.043072-0.01-0.018151-0.27922-0.19565-0.59779-0.39387-0.3188-0.19785-0.56521-0.36621-0.54744-0.37429 0.0181-0.0059 0.36551-0.068051 0.77269-0.13394 1.1638-0.18721 1.2222-0.19794 1.2123-0.21891-4e-3 -0.00944-0.30699-0.18686-0.67085-0.39118-0.36391-0.20433-0.66585-0.38093-0.67125-0.39203-4e-3 -0.00944 0.28539-0.12862 0.64606-0.26129 0.64271-0.23599 0.6579-0.24317 0.75133-0.39228 0.053-0.082847 0.11097-0.17222 0.12825-0.19839 0.0247-0.039304-0.0879-0.14722-0.58916-0.56595-0.34193-0.28546-0.60795-0.52471-0.59114-0.53175 0.0176-0.00728 0.51073 0.041419 1.0977 0.10733 1.7798 0.20049 0.0933-0.3593 17.271 5.7327l14.667 5.2017-0.9531 2.6869-0.95306 2.6869-29.299-10.402zm0.46203-0.192c-6e-3 -0.021211-0.0606-0.056432-0.12253-0.079994-0.12597-0.044085-2.0545-1.0058-2.1642-1.0785-0.0497-0.033322 0.21746-0.048847 1.0011-0.055015 0.58824-0.00531 1.0791-0.014344 1.0908-0.019794 0.01-0.00413 0.0157-0.020936 0.0129-0.029524-4e-3 -0.00944-0.31584-0.21705-0.69007-0.45837-0.37415-0.2413-0.68292-0.44446-0.68654-0.45079-3e-3 -0.00767 0.34817-0.071091 0.78092-0.1426 1.1232-0.18656 1.2373-0.21043 1.2172-0.25238-0.01-0.021437-0.35098-0.22901-0.75832-0.4622-0.4073-0.23334-0.74358-0.43096-0.7472-0.43906-3e-3 -0.00767 0.13982-0.068956 0.31926-0.13589l0.32639-0.12152 0.17457-0.27061c0.0958-0.14905 0.1994-0.33362 0.22959-0.41077l0.056-0.13996-0.2614-0.21894-0.26148-0.21884 0.32612 0.036618c0.40743 0.046013 1.21 0.2032 1.4589 0.28804 0.1034 0.035024 0.22768 0.06383 0.27616 0.0663 0.0863 0.00354 0.0866 0.00354-6e-3 -0.034247-0.29654-0.11391-1.1913-0.31318-1.609-0.35867-0.25591-0.027517-0.48765-0.047154-0.51497-0.042816-0.0297 0.00541 0.0657 0.10339 0.23582 0.24389 0.15718 0.12958 0.29315 0.25196 0.30267 0.27075 0.0148 0.02678-0.12382 0.27607-0.37695 0.67678-0.0306 0.046928-0.44451 0.22533-0.77801 0.33418-0.0497 0.015121 0.0733 0.093443 0.77693 0.48867 0.4233 0.23796 0.77271 0.43875 0.77631 0.44637 3e-3 0.00767-0.45509 0.087481-1.0193 0.17779-0.92343 0.14747-1.1321 0.19084-1.0579 0.21653 0.0356 0.011422 1.3392 0.83238 1.3868 0.87217 0.024 0.016813-0.40236 0.036332-0.94474 0.039589-1.3265 0.00669-1.3142 0.0063-1.2723 0.038949 0.05 0.039874 2.2994 1.1718 2.4287 1.2231 0.062 0.025137 0.10069 0.024625 0.0951 0.00197z"/>
     <path d="m136.21 8.4513c-0.9742-0.48836-1.7769-0.89897-1.7833-0.91343-9e-3 -0.014413 3e-3 -0.089931 0.0212-0.16979l0.0335-0.14475 0.87365-0.00453c0.4805-0.00226 0.89835-0.00856 0.92855-0.013282 0.0679-0.01157-0.01-0.06627-0.6622-0.47429-0.27009-0.16858-0.47679-0.31299-0.45885-0.32147 0.0197-0.00699 0.45934-0.084363 0.98136-0.16845 0.52209-0.084048 0.96528-0.1601 0.98516-0.16761 0.042-0.01822 0.0269-0.027537-0.68597-0.42261-0.3047-0.16813-0.57568-0.32617-0.60304-0.34989-0.0399-0.034837 0.0754-0.089006 0.58965-0.2812 0.35136-0.13134 0.65637-0.25635 0.67749-0.27825 0.0207-0.022038 0.0835-0.11011 0.13895-0.19626l0.10098-0.15584-0.13868-0.12869c-0.0768-0.070579-0.35242-0.30779-0.61393-0.52648-0.26149-0.21882-0.46176-0.4036-0.44499-0.41087 0.0175-0.00728 0.51082 0.040701 1.0978 0.10679 1.772 0.19909 0.0924-0.35844 17.27 5.7338l14.667 5.2017-0.9531 2.6869-0.95305 2.6869-29.299-10.402zm1.5498 0.35175c-0.0196-0.025933-0.08-0.063693-0.13354-0.082464-0.13924-0.050263-2.0576-1.0138-2.1328-1.0707-0.0491-0.037857 0.0648-0.048729 0.51943-0.052201 0.87392-0.00512 1.5514-0.015535 1.5712-0.024261 0.0395-0.01644-0.0262-0.063722-0.63443-0.45391-0.348-0.22346-0.6575-0.42636-0.68748-0.45125-0.045-0.034158 0.0556-0.064224 0.48669-0.13653 1.2086-0.20154 1.4822-0.25628 1.4657-0.29083-0.0114-0.019922-0.35038-0.22679-0.75727-0.46008-0.40695-0.23314-0.74362-0.43098-0.74789-0.44006-3e-3 -0.00767 0.13895-0.070963 0.31838-0.13793l0.32636-0.1213 0.16572-0.25905c0.0913-0.14266 0.19536-0.32678 0.22953-0.4107l0.063-0.15201-0.26143-0.21896-0.26137-0.21894 0.32613 0.036618c0.39166 0.043957 1.204 0.20227 1.4433 0.2808 0.0951 0.030961 0.21896 0.060416 0.2761 0.066428l0.10411 0.00925-0.094-0.038162c-0.39526-0.15731-1.9742-0.45266-2.1095-0.39455-0.0199 0.00846 0.0869 0.1183 0.23526 0.24538 0.14871 0.12679 0.2787 0.24506 0.28869 0.26298 0.0168 0.02494-0.12253 0.27381-0.37637 0.67501-0.0215 0.033902-0.20784 0.12692-0.41479 0.20586-0.20687 0.079148-0.37229 0.1515-0.36758 0.16166 3e-3 0.00767 0.35502 0.2128 0.77899 0.45191 0.42399 0.23893 0.77412 0.44187 0.77835 0.45043 3e-3 0.00767-0.43307 0.086065-0.97165 0.17184-0.53845 0.085907-1.0124 0.16613-1.0529 0.17832-0.0645 0.020424 0.0114 0.075636 0.62418 0.4607 0.3839 0.24112 0.7081 0.45038 0.72059 0.46477 0.0114 0.014757-0.48213 0.029052-1.099 0.033224-0.61688 0.00374-1.1323 0.011855-1.1451 0.018201-0.01 0.00413-4e-3 0.020542 0.0203 0.028226 0.0246 0.00974 0.56331 0.28061 1.1979 0.60077 1.236 0.62496 1.3656 0.68458 1.3059 0.60781z"/>
     <path d="m136.19 8.444c-1.264-0.63604-1.7614-0.89857-1.7702-0.93707-7e-3 -0.030105 6e-3 -0.1053 0.0281-0.16856l0.0404-0.11521 0.8771-0.00699c0.48237-0.00384 0.88672-0.019568 0.89845-0.035152 0.0114-0.015043-0.23919-0.19288-0.55783-0.39419-0.50035-0.31554-0.56976-0.36836-0.50813-0.38681 0.0401-0.01157 0.49564-0.09002 1.0142-0.17365 0.5186-0.083507 0.93954-0.15887 0.93542-0.16773-3e-3 -0.00767-0.28922-0.17305-0.63322-0.36528-0.34409-0.19216-0.6482-0.36953-0.676-0.39381-0.0408-0.036844 0.0535-0.083615 0.53068-0.26093 0.31948-0.11912 0.6302-0.24501 0.69005-0.28054 0.13412-0.078233 0.2894-0.35311 0.23727-0.41825-0.018-0.02368-0.29112-0.25829-0.60563-0.52242-0.31464-0.26417-0.55804-0.48613-0.54104-0.49316 0.0345-0.014482 1.8482 0.18355 2.1621 0.23587 0.11168 0.018122 0.51464 0.12041 0.8958 0.22589 0.60185 0.16675 2.6197 0.87564 15.335 5.3858l14.642 5.1937-1.9062 5.3738-29.33-10.413zm1.5682 0.359c-0.0196-0.025934-0.0826-0.064431-0.13967-0.084008-0.11755-0.042619-2.0285-0.99959-2.1326-1.0683-0.0743-0.050657-0.0961-0.047745 1.3694-0.062551 0.40011-0.00384 0.73055-0.015879 0.73447-0.026819 3e-3 -0.00954-0.29172-0.21115-0.65634-0.44583-0.36442-0.23472-0.67776-0.44102-0.69508-0.4601-0.0179-0.018722 0.34516-0.097192 0.81445-0.17693 0.46588-0.078106 0.91292-0.15755 0.99376-0.17557 0.14545-0.03162 0.18201-0.091613 0.0761-0.12417-0.046-0.014511-0.046-0.010143-3e-3 0.027724 0.041 0.03526-0.17883 0.082877-0.96993 0.21152-0.56211 0.091928-1.0302 0.17041-1.04 0.17485-0.039 0.017827 0.0238 0.062482 0.65769 0.46221 0.36131 0.22787 0.67573 0.42992 0.6985 0.44905 0.0241 0.016823-0.44346 0.038645-1.0357 0.043711-1.3144 0.010852-1.1968 0.00571-1.145 0.048758 0.0483 0.040602 2.2745 1.1637 2.4142 1.2173 0.0712 0.028216 0.0856 0.026563 0.0579-0.011284zm0.28651-2.6748c-0.0158-0.014138-0.32011-0.19168-0.67787-0.39684-0.35765-0.20516-0.65442-0.38122-0.65934-0.39125-4e-3 -0.00944 0.13897-0.073285 0.31958-0.14002 0.3224-0.11984 0.33055-0.12489 0.45264-0.31827 0.0683-0.10834 0.15533-0.25806 0.19278-0.33354 0.0364-0.075341-9.8e-4 -0.026317-0.0901 0.11183-0.0869 0.13666-0.17716 0.27538-0.19869 0.30923-0.0217 0.034444-0.21078 0.12708-0.41977 0.20736-0.20917 0.079945-0.36399 0.15835-0.3447 0.1733 0.14899 0.11543 1.5307 0.87082 1.4258 0.77876zm-0.24209-1.8545c-0.01-0.018161-0.13025-0.12822-0.26683-0.24286l-0.24794-0.20857 0.25864 0.02795c0.40217 0.043318 0.99422 0.15313 1.4434 0.26925 0.38035 0.097841 0.55387 0.12575 0.36686 0.059551-0.44571-0.15851-2.0027-0.44849-2.1208-0.39476-0.0183 0.010143 0.0554 0.092932 0.16616 0.18643 0.34409 0.29008 0.37948 0.32576 0.36714 0.36915-0.01 0.033115-7e-3 0.034089 0.02 6e-3 0.0197-0.019283 0.0231-0.052733 0.0129-0.071307z"/>
     <path d="m136.18 8.438c-1.2402-0.62547-1.7455-0.89419-1.7543-0.93152-0.01-0.047991 0.0588-0.29638 0.0816-0.28822 0.0356 0.011422 1.7015-0.01518 1.7301-0.02856 0.0566-0.026908 0.03-0.046141-0.55547-0.41766-0.47914-0.30456-0.53991-0.35269-0.47678-0.37149 0.0402-0.011707 0.47871-0.087373 0.97502-0.16891 0.49636-0.081539 0.91406-0.1563 0.9281-0.16745 0.0311-0.023405 0.0155-0.033558-0.67521-0.41841-0.29581-0.16514-0.56004-0.31965-0.58705-0.34368-0.0394-0.036175 0.0731-0.090944 0.59632-0.28973 0.35971-0.13758 0.67275-0.27835 0.70735-0.31887 0.0323-0.042157 0.0907-0.12981 0.12669-0.19866l0.0648-0.12565-0.42287-0.35828c-0.72296-0.61247-0.80902-0.69168-0.75148-0.69351 0.0298-0.00246 0.51959 0.049034 1.0882 0.11134 0.80506 0.087894 1.1504 0.14172 1.5606 0.24284 0.47111 0.11627 2.0986 0.68624 15.451 5.4118l14.925 5.2818-0.95325 2.6873-0.95319 2.6874-29.362-10.424zm1.5513 0.35705c-0.0218-0.023976-0.1351-0.088652-0.25339-0.14352-0.44887-0.20846-1.9509-0.96678-1.9961-1.0074-0.0316-0.030449 0.27611-0.046643 0.97806-0.053825 1.0595-0.011284 1.1246-0.014551 1.1056-0.054651-7e-3 -0.014138-0.29218-0.2045-0.63578-0.42493-0.3436-0.22044-0.64614-0.42075-0.67246-0.44474-0.0351-0.03406 0.18349-0.082425 0.87271-0.19978 0.92359-0.15638 1.3519-0.24954 0.7103-0.1533-0.98948 0.14805-1.7203 0.28115-1.7066 0.30991 7e-3 0.020867 0.30406 0.21598 0.6571 0.43947 0.35301 0.22347 0.65994 0.42297 0.68267 0.44225 0.0241 0.016823-0.35468 0.039264-0.83879 0.04319-1.2656 0.011993-1.3869 0.015928-1.351 0.043918 0.0379 0.030439 2.3323 1.1876 2.4229 1.2233 0.05 0.019499 0.0556 0.016026 0.0247-0.019519zm0.44312-2.5887c-9e-3 -0.014413-0.0332-0.024891-0.0594-0.025461-0.0297 0.00108-0.0228 0.011993 0.0129 0.025038 0.0326 0.012426 0.0548 0.01157 0.0477-0.00256zm-0.14765-0.088022c-9e-3 -0.014413-0.0344-0.023946-0.0594-0.025461-0.0297 0.00108-0.0228 0.01214 0.0114 0.02552 0.0326 0.012426 0.055 0.01157 0.047-0.00118zm-0.12383-0.077604c-0.0168-0.012711-0.26223-0.15634-0.54911-0.31906-0.74848-0.42416-0.71647-0.37627-0.34202-0.51349 0.17299-0.063702 0.3164-0.11901 0.31818-0.12365 9.8e-4 -0.00699 0.0197-0.028265 0.0407-0.051257 0.0171-0.025048-0.0376-0.00738-0.12869 0.032692-0.0908 0.041429-0.26692 0.11498-0.3919 0.16204-0.12483 0.047883-0.22116 0.098146-0.21419 0.11258 0.016 0.034345 1.0758 0.6419 1.2006 0.68806 0.0527 0.018466 0.0824 0.024635 0.0673 0.01214zm-0.36399-1.2462c0.0559-0.09367 0.11911-0.19577 0.14082-0.2274 0.0236-0.031108 0.0259-0.051729 0.01-0.043878-0.0181 0.0059-0.0829 0.097192-0.14542 0.19891-0.1274 0.20701-0.1391 0.22995-0.11953 0.23693 6e-3 0.00669 0.059-0.071494 0.11482-0.16519zm0.27123-0.5168c-0.01-0.02131-0.12939-0.12981-0.26248-0.24129-0.13325-0.11134-0.23572-0.20602-0.22783-0.20969 0.0731-0.034394 1.2329 0.17286 1.8249 0.32678 0.14446 0.037336 0.2465 0.054946 0.22719 0.040317-0.0683-0.056068-1.0946-0.28543-1.5715-0.35143-0.49422-0.068149-0.61445-0.064352-0.51762 0.01822 0.0275 0.026937 0.15038 0.13226 0.27082 0.23754 0.22953 0.2027 0.29059 0.24567 0.25651 0.18031z"/>
    </g>
    <g stroke-width=".033739">
     <path d="m136.16 8.434c-1.2553-0.63323-1.7295-0.88604-1.7383-0.92608-0.0215-0.099873 0.0632-0.28631 0.13226-0.2883 0.0344-0.00167 0.41881-0.00502 0.85329-0.00876 0.43445-0.00384 0.80689-0.014344 0.82757-0.023366 0.0439-0.019647-0.11412-0.13433-0.68615-0.49659-0.2282-0.14517-0.40518-0.27105-0.39258-0.28146 0.0114-0.00986 0.42008-0.082867 0.90608-0.1618 0.93362-0.15223 1.0657-0.17749 1.055-0.19983-3e-3 -0.00767-0.28131-0.16876-0.61697-0.35781-0.3358-0.18896-0.633-0.36421-0.66068-0.38921-0.0427-0.036264 0.0575-0.086606 0.57902-0.28565 0.34605-0.13261 0.66107-0.26961 0.69959-0.30584 0.0387-0.036372 0.10311-0.12754 0.1438-0.20275l0.0734-0.13718-0.60845-0.51394c-0.3345-0.2828-0.60518-0.52278-0.60154-0.53327 7e-3 -0.018909 0.80176 0.061194 1.7798 0.17995 1.0362 0.12581 0.31531-0.11945 16.648 5.6734l14.634 5.191-0.95311 2.6869-0.95303 2.6869-29.395-10.433zm1.5516 0.35419c-0.0304-0.026652-0.17322-0.099445-0.31853-0.16165l-0.26413-0.11313 0.272 0.14185c0.33067 0.17326 0.3818 0.19524 0.31113 0.13214zm-0.6285-0.3212c-0.0277-0.019007-0.0843-0.039658-0.12697-0.045856-0.0424-0.00531-0.0183 0.010143 0.0494 0.034719 0.07 0.024104 0.10397 0.031217 0.0764 0.012859zm-0.24286-0.1222c-0.0265-0.019804-0.0842-0.039658-0.12682-0.045826-0.0423-0.00531-0.0183 0.010143 0.0515 0.032751 0.07 0.024104 0.10397 0.031079 0.0765 0.012859zm-0.24293-0.1222c-0.0265-0.019804-0.0844-0.039687-0.12683-0.045826-0.042-0.00531-0.0184 0.010143 0.0506 0.033745 0.0707 0.024222 0.10397 0.031079 0.0764 0.012849zm-0.24297-0.12221c-0.0263-0.019785-0.0848-0.0383-0.12682-0.045826-0.042-0.00531-0.0183 0.010143 0.0517 0.032761 0.0702 0.024153 0.10397 0.031079 0.0767 0.012996zm-0.24289-0.1222c-0.0264-0.019804-0.0851-0.038635-0.1271-0.045718-0.042-0.00531-0.0183 0.010143 0.0503 0.033706 0.0702 0.024133 0.10398 0.031079 0.0767 0.012996zm-0.43254-0.22002c-0.13196-0.072094-0.24601-0.13656-0.25382-0.14215-0.0196-0.013281 0.40144-0.023179 1.3637-0.034847 0.68899-0.00797 0.87937-0.029082 0.7336-0.080752-0.0268-0.00856-0.0462-0.00295-0.0429 0.010999 3e-3 0.015712-0.47855 0.034109-1.0713 0.04012-0.59278 0.00571-1.0874 0.017778-1.0991 0.027262-0.0114 0.00986 0.0577 0.055694 0.15506 0.10236 0.0973 0.046348 0.18855 0.095657 0.20437 0.10727 0.0145 0.012426 0.0785 0.039471 0.13967 0.060013 0.0619 0.019912 6e-3 -0.021408-0.12853-0.092804zm1.7639-0.30714c-9e-3 -0.014413-0.0344-0.023966-0.0594-0.025461-0.0297 0.00108-0.0228 0.01214 0.0114 0.025491 0.0344 0.012711 0.0548 0.01157 0.0477-0.00256zm-0.11568-0.077466c-9e-3 -0.014413-0.0344-0.023946-0.0594-0.025461-0.0295 0.00108-0.0228 0.011993 0.0129 0.025038 0.0326 0.012426 0.0547 0.01157 0.0477-0.00256zm-0.11611-0.07724c-9e-3 -0.014413-0.0344-0.023966-0.0594-0.025461-0.0295 0.00256-0.0228 0.01214 0.0129 0.025038 0.0326 0.012426 0.055 0.01157 0.0477-0.00256zm-0.23976-0.15481c-0.0793-0.054769-0.16497-0.10724-0.19165-0.11524-0.0676-0.017925 0.19288 0.1643 0.27198 0.19243 0.0347 0.012711-9.8e-4 -0.023779-0.0799-0.077869zm-0.48076-0.31002c-0.13467-0.092332-0.2657-0.18811-0.29201-0.21131-0.0256-0.024291-0.0512-0.030961-0.0573-0.014865-0.0114 0.029908 0.41828 0.3303 0.53086 0.37068 0.0354 0.011422-0.0456-0.053795-0.18073-0.14604zm-0.0217-0.25492c0.11939-0.023307 0.48662-0.088573 0.81616-0.1437 0.32951-0.055094 0.6015-0.10533 0.6041-0.11383 7e-3 -0.018909-0.026-0.014285-0.91588 0.13492-0.41344 0.068425-0.75372 0.13094-0.75619 0.13866-0.01 0.027695 0.0449 0.024438 0.25165-0.016095zm1.6126-0.2943c4e-3 -0.00669-0.0278-0.011707-0.0702-0.00531-0.0414 0.00787-0.0781 0.017837-0.081 0.027232-4e-3 0.00669 0.0278 0.011707 0.0699 0.00384 0.0412-0.00797 0.0782-0.017984 0.081-0.02738zm-0.22099-0.26055c-0.0192-0.017778-0.0551-0.028816-0.0798-0.027832-0.0265 0.00157-0.0114 0.015043 0.0345 0.030489 0.0434 0.015554 0.0641 0.014502 0.0458-0.00138zm-0.14167-0.080132c-0.0168-0.012711-0.22848-0.13755-0.47426-0.27771-0.24576-0.13971-0.47054-0.27406-0.49963-0.29833-0.0457-0.036165-7e-3 -0.0614 0.26289-0.16044 0.17352-0.065355 0.31974-0.12868 0.32496-0.14253 4e-3 -0.013714-0.14958 0.035162-0.34299 0.11044-0.19376 0.075007-0.3556 0.14538-0.35991 0.15645-7e-3 0.010281 0.12353 0.094762 0.28291 0.18594 0.15981 0.091102 0.37711 0.21603 0.48294 0.27861 0.17868 0.10551 0.38643 0.20017 0.32331 0.14809zm-0.26599-1.0486c7.2e-4 -0.030105-0.0129-0.024664-0.0259 0.011284-0.0114 0.033273-0.0114 0.054543 9.9e-4 0.04742 0.0155-0.0061 0.0257-0.032811 0.0254-0.059885zm0.0882-0.14997c-3e-3 -0.024822-0.0143-0.012426-0.0304 0.034503-0.0157 0.043918-0.0147 0.064027 9.8e-4 0.045492 0.0157-0.020926 0.031-0.053795 0.0287-0.07904zm0.076-0.11434c7e-4 -0.030105-0.0129-0.024664-0.0259 0.011284-0.0114 0.033538-0.0114 0.054543 9.9e-4 0.04742 0.0155-0.0061 0.0256-0.032663 0.0254-0.059738zm0.15691-0.36462c-0.0244-0.051297-0.30863-0.29847-0.33037-0.28808-9e-3 0.00295 0.06 0.076325 0.15379 0.15985 0.19956 0.1783 0.20256 0.18047 0.17625 0.12869zm-0.41587-0.37953c-0.06-0.066191-0.0506-0.068897 0.18786-0.039943 0.31982 0.037651 0.99573 0.15482 1.1278 0.19497 0.0784 0.025422 0.0866 0.022362 0.0337-0.00915-0.0806-0.047459-0.66777-0.16187-1.0782-0.20938-0.40702-0.047843-0.41236-0.047086-0.3362 0.038723 0.0335 0.041616 0.0771 0.078292 0.0959 0.08389 0.0165 0.00846 3e-3 -0.020621-0.0301-0.059285zm1.6802 0.22766c-0.0364-0.021664-0.10782-0.046859-0.15884-0.056825-0.0509-0.00944-0.022 0.00817 0.0661 0.038536 0.0871 0.031591 0.12896 0.0395 0.0927 0.017571zm0.28093 0.064312c-0.0263-0.019785-0.0771-0.037661-0.11126-0.039018-0.0332-0.00246-0.01 0.013429 0.0506 0.033745 0.0617 0.021349 0.0888 0.024192 0.0608 0.00531z"/>
     <path d="m137.18 8.9467c-0.37514-0.19143-1.1448-0.58173-1.7102-0.86819-0.7119-0.35952-1.0318-0.53693-1.0403-0.57283-0.0227-0.097743 0.0641-0.2844 0.13239-0.28639 0.0344-0.00167 0.39496-0.0059 0.80021-0.010143 0.40529-0.00453 0.77791-0.014315 0.82802-0.021093l0.0914-0.011707-0.0967-0.072724c-0.0535-0.04015-0.30984-0.2077-0.56941-0.37442-0.25954-0.16676-0.46263-0.31027-0.4508-0.31963 0.0114-0.00986 0.32545-0.067166 0.69684-0.12805 0.9066-0.14786 1.2729-0.21606 1.2655-0.23066-3e-3 -0.00767-0.28781-0.17225-0.63221-0.36717-0.34448-0.19483-0.64108-0.3712-0.65956-0.39184-0.0225-0.024389 0.13225-0.10139 0.47689-0.23419 0.73469-0.28423 0.80681-0.32087 0.90701-0.47128 0.0486-0.071691 0.0945-0.15192 0.10368-0.17618 0.0114-0.029761-0.19202-0.22111-0.58992-0.5572-0.33329-0.28154-0.60274-0.52094-0.59881-0.53198 7e-3 -0.018909 1.7292 0.16325 2.1569 0.22667 0.0939 0.014826 0.49654 0.11638 0.89548 0.22816 0.63177 0.17684 2.6142 0.8723 15.367 5.3966l14.642 5.1937-0.95305 2.6868-0.95312 2.687-29.427-10.444zm0.42907-0.22455c-0.0263-0.019785-0.0851-0.038635-0.12683-0.045974-0.0423-0.00531-0.0183 0.010143 0.0515 0.032604 0.0699 0.024064 0.10397 0.031079 0.0765 0.012859zm-0.2752-0.13382c-0.0263-0.019785-0.0772-0.03769-0.1114-0.0389-0.0332-0.00246-0.01 0.013282 0.0499 0.034916 0.0613 0.02126 0.0885 0.024153 0.0613 0.00541zm-0.25847-0.12684c-0.0197-0.014679-0.0609-0.032476-0.0948-0.035408-0.0339-0.00443-0.0197 0.00699 0.0337 0.029918 0.0527 0.018466 0.0797 0.022736 0.0619 0.00541zm-0.24292-0.1222c-0.021-0.014895-0.061-0.032791-0.0948-0.035408-0.0339-0.00443-0.0183 0.010143 0.0339 0.030115 0.053 0.018506 0.0797 0.022736 0.0619 0.00541zm-0.24294-0.12219c-0.0209-0.014895-0.061-0.032791-0.0948-0.035408-0.0338-0.00443-0.0199 0.00846 0.0339 0.030095 0.0528 0.018486 0.0794 0.022697 0.0616 0.00541zm-0.24296-0.12221c-0.0196-0.014669-0.061-0.032663-0.0949-0.035565-0.0339-0.00443-0.0183 0.010143 0.0341 0.030125 0.0528 0.018476 0.0797 0.022736 0.0616 0.00541zm-0.24293-0.12219c-0.0197-0.014679-0.0609-0.032496-0.0949-0.035565-0.0329-0.00561-0.0184 0.010143 0.0339 0.030262 0.0527 0.018466 0.0797 0.022736 0.0619 0.00541zm-0.40419-0.19951c-0.3068-0.17237-0.29874-0.17687 0.31342-0.18272 0.31782-0.00315 0.57448-0.012563 0.57044-0.021132-9e-3 -0.014413-0.93831-0.015151-1.1874-3.778e-4 -0.10811 0.00571-0.1064 0.00817 0.0987 0.12378 0.11483 0.064893 0.24489 0.12959 0.28847 0.14546 0.0437 0.015594 4e-3 -0.015928-0.0845-0.064421zm1.3581-0.19559c0.21926-0.00413 0.39513-0.013715 0.39096-0.02252-7e-3 -0.016095-0.77704-0.00925-0.81172 0.00659-0.041 0.019253 0.0412 0.022736 0.42089 0.015485zm0.49553-0.034444c0.0165-0.014138 7e-3 -0.032761-0.0213-0.042698-0.0279-0.011707-0.0475-0.00167-0.0424 0.02191 6e-3 0.021211 0.0143 0.040071 0.0205 0.043298 7e-3 0.00256 0.0264-0.00885 0.0421-0.021821zm-0.33375-0.24716c-9e-3 -0.014413-0.0344-0.023966-0.0594-0.025461-0.0297 0.00108-0.0228 0.011993 0.0129 0.025038 0.034 0.014 0.055 0.01157 0.047-0.00118zm-0.24645-0.16093c-0.0192-0.017778-0.0551-0.028826-0.0799-0.027832-0.0266 0.00157-0.0114 0.015043 0.0345 0.030489 0.0436 0.015584 0.0643 0.013144 0.046-0.00138zm-0.38877-0.24121c-0.0694-0.053372-0.18523-0.13142-0.25463-0.17885l-0.12711-0.085209 0.2077-0.041429c0.11426-0.022106 0.41746-0.077604 0.67407-0.11975 0.25652-0.043534 0.46864-0.084392 0.47135-0.092637 4e-3 -0.00669-7e-3 -0.014137-0.0234-0.00797-0.55259 0.078794-1.3765 0.23753-1.3646 0.26183 0.0193 0.037316 0.42492 0.31923 0.49653 0.34386 0.0267 0.00856-0.0129-0.024733-0.0816-0.075518zm1.238-0.56347c4e-3 -0.00669-0.0455-0.00718-0.10697 6.965e-4 -0.0623 0.00817-0.11625 0.021211-0.11825 0.032309-4e-3 0.00669 0.0456 0.00718 0.10725-6.503e-4 0.0623-0.00817 0.11554-0.021024 0.11811-0.032338zm0.26808-0.048197c4e-3 -0.00669-0.028-0.011708-0.0704-0.00384-0.0414 0.00787-0.0781 0.017837-0.0812 0.027203-4e-3 0.00669 0.028 0.011707 0.0704 0.00541 0.0417-0.00639 0.0781-0.017837 0.0815-0.027439zm-0.40024-0.36006c-0.0192-0.017778-0.055-0.028826-0.0798-0.027832-0.0263 0.00157-0.0114 0.015043 0.0342 0.030312 0.0437 0.015593 0.0642 0.013144 0.0458-0.00138zm-0.53768-0.31292c-0.23374-0.13882-0.42908-0.26078-0.43388-0.27125-4e-3 -0.00944 0.13053-0.072006 0.30032-0.13679 0.16986-0.065778 0.30533-0.12635 0.30091-0.13568-9e-3 -0.019066-0.58387 0.20323-0.64866 0.24891-0.0165 0.013852-0.0114 0.039127 0.0148 0.056845 0.19063 0.12288 0.74559 0.43856 0.81075 0.46183 0.0437 0.015594-0.11212-0.084992-0.34577-0.22379zm0.52932-1.4539c-0.12439-0.11831-0.25289-0.21751-0.23859-0.18425 0.0152 0.033332 0.27616 0.26205 0.31379 0.27545 0.0186 0.00443-0.0165-0.034729-0.075-0.091131zm-0.31306-0.27205c-0.0601-0.066054-0.0491-0.069241 0.20998-0.037592 0.14953 0.017896 0.42463 0.058587 0.61028 0.090876 0.1857 0.032309 0.29963 0.041675 0.25295 0.02372-0.10468-0.040445-0.74854-0.14183-1.0096-0.15908-0.18864-0.01214-0.19071-0.010999-0.12869 0.058872 0.0363 0.038428 0.0775 0.076197 0.0949 0.083005 0.0165 0.00846 9.9e-4 -0.020483-0.0303-0.059885zm1.3349 0.14173c-0.0264-0.019804-0.0771-0.037661-0.11125-0.039018-0.0322-0.00216-0.01 0.013282 0.0497 0.034906 0.0616 0.021319 0.0885 0.024153 0.0608 0.00531zm0.31354 0.076846c-0.0197-0.014679-0.061-0.032791-0.0949-0.035565-0.0329-0.00561-0.0183 0.010143 0.0338 0.030095 0.0525 0.018437 0.0797 0.022736 0.0617 0.00541zm0.31151 0.076522c-9e-3 -0.014413-0.0329-0.026317-0.0595-0.025491-0.0297 0.00108-0.0228 0.011993 0.0129 0.025038 0.0326 0.012426 0.0546 0.01157 0.0477-0.00256z"/>
     <path d="m137.52 9.1245c-0.16615-0.086173-0.9289-0.47367-1.6948-0.86035-0.98484-0.49701-1.3962-0.71944-1.4054-0.75729-9e-3 -0.029406 0.01-0.10703 0.0389-0.17239l0.0507-0.11921 0.80838-0.00758c0.44462-0.00413 0.84167-0.013429 0.88235-0.020168 0.0881-0.015249 0.0954-0.00944-0.601-0.458-0.36818-0.2373-0.45996-0.30859-0.418-0.32648 0.0298-0.012858 0.4646-0.09058 0.96636-0.17313 0.50178-0.082395 0.92047-0.15297 0.93002-0.15891 0.0407-0.017266-0.0266-0.061469-0.6101-0.3939-0.33514-0.19132-0.62477-0.36434-0.64317-0.38509-0.023-0.024468 0.0892-0.084766 0.35159-0.18322 0.75344-0.28507 0.94275-0.38486 1.0489-0.54824 0.0847-0.13105 0.0914-0.15427 0.0551-0.20644-0.0209-0.033106-0.29343-0.27325-0.60231-0.53645-0.30922-0.2627-0.55928-0.48637-0.55535-0.4972 7e-3 -0.018909 0.78098 0.059344 1.7797 0.18036 1.0284 0.12457 0.31968-0.11594 16.645 5.6738l14.637 5.1917-1.9061 5.3738-14.729-5.229c-12.385-4.3976-14.777-5.2536-15.031-5.386zm0.0644-0.4069c-0.0197-0.014679-0.0607-0.032446-0.0949-0.035565-0.0335-0.00433-0.0183 0.010143 0.0338 0.030095 0.0525 0.018437 0.0797 0.022736 0.0614 0.00541zm-0.27544-0.13399c-0.0191-0.017778-0.055-0.028944-0.0798-0.027832-0.0265 0.00157-0.0114 0.015043 0.0347 0.030508 0.0436 0.015584 0.0642 0.013134 0.0459-0.00138zm-0.26022-0.12609c-9e-3 -0.014413-0.0344-0.023946-0.0594-0.025461-0.0297 0.00108-0.0228 0.011993 0.0129 0.025038 0.0342 0.012711 0.055 0.01157 0.047-0.00118zm-0.2429-0.1222c-9e-3 -0.014413-0.0344-0.023966-0.0594-0.025461-0.0295 0.00256-0.0228 0.011993 0.0129 0.025038 0.0344 0.012711 0.0547 0.01157 0.0477-0.00256zm-0.24305-0.12222c-9e-3 -0.014413-0.0344-0.023966-0.0594-0.025461-0.0295 0.00108-0.0228 0.01214 0.0129 0.025038 0.034 0.014 0.0547 0.01157 0.047-0.00118zm-0.24296-0.12221c-9e-3 -0.014413-0.0341-0.023926-0.0594-0.025461-0.0297 0.00108-0.0219 0.013282 0.0129 0.025038 0.0339 0.014 0.0548 0.01157 0.0477-0.00256zm-0.24295-0.12219c-9e-3 -0.014413-0.0342-0.023936-0.0594-0.025461-0.0297 0.00108-0.0228 0.011993 0.0114 0.02552 0.0344 0.012711 0.0547 0.01157 0.047-0.00118zm-0.30647-0.14499c-9e-3 -0.014413-0.0344-0.023966-0.0595-0.025491-0.0295 0.00256-0.0228 0.01214 0.0114 0.02554 0.0339 0.014 0.0548 0.01157 0.0477-0.00256zm-0.20719-0.12188c-0.0617-0.03465-0.11596-0.073452-0.12082-0.085651-4e-3 -0.00944 0.16047-0.021152 0.36752-0.023198 0.20718-0.00157 0.37335-0.011284 0.36909-0.020493-9e-3 -0.019066-0.48246-0.017286-0.72273 0.00187l-0.14673 0.01157 0.088 0.056009c0.0484 0.031108 0.12997 0.072636 0.18239 0.091358 0.0841 0.030095 0.0812 0.027311-0.0165-0.030676zm0.87733-0.12594c0.0404-0.00856 0.032-0.014315-0.0285-0.019421-0.0475-0.00315-0.11282-0.00157-0.14519 0.00541-0.0404 0.00846-0.0326 0.014797 0.0288 0.01945 0.0477 0.00325 0.11297 0.00167 0.14518-0.00689zm0.39493-0.00374c0.0404-0.00846 0.032-0.014315-0.0287-0.01944-0.0477-0.00167-0.11297-0.00157-0.14488 0.00689-0.0404 0.00846-0.032 0.014315 0.0287 0.01944 0.0477 0.00167 0.11282 0.00157 0.14517-0.00689zm0.31039 0.00413c0.1144-0.00138 0.22694-0.011137 0.25013-0.020395 0.0235-0.010714-0.0712-0.015623-0.2101-0.012711-0.23826 0.00502-0.31381 0.012563-0.26795 0.029416 0.01 0.00167 0.11341 0.00639 0.22792 0.00453zm-0.70146-0.76892c-0.27289-0.19482-0.28371-0.18317 0.25545-0.27529 0.27449-0.046456 0.50115-0.09242 0.50434-0.1005 4e-3 -0.00669-0.11025 0.00246-0.25096 0.028206-0.53482 0.089095-0.77423 0.13908-0.78347 0.16538-4e-3 0.013714 0.0652 0.077594 0.15621 0.13999 0.21152 0.14383 0.30772 0.17975 0.11939 0.043347zm1.026-0.42017c4e-3 -0.00669-0.0456-0.00718-0.10726 7.851e-4 -0.0623 0.00817-0.11554 0.02247-0.11897 0.031177-4e-3 0.00669 0.0455 0.00718 0.10768-7.408e-4 0.0623-0.00817 0.11612-0.022825 0.1184-0.032437zm0.34261-0.057072c4e-3 -0.00669-0.0459-0.00738-0.10739-6.778e-4 -0.0623 0.00817-0.11554 0.02248-0.11826 0.032309-4e-3 0.00669 0.0457 0.00718 0.10754 8.402e-4 0.0623-0.00817 0.11554-0.02247 0.1184-0.032437zm0.21229-0.040848c-7e-3 -0.014137-0.0347-0.012711-0.0645 0.00138-0.0421 0.02008-0.0387 0.026396 0.0129 0.024507 0.0355-0.00295 0.0595-0.011993 0.0531-0.02615zm-0.67196-0.55544c-0.0192-0.017778-0.0551-0.028816-0.0799-0.027832-0.0265 0.00157-0.0114 0.015043 0.0347 0.030508 0.0436 0.015584 0.0639 0.014482 0.0458-0.00138zm-0.19955-0.11865c-0.0478-0.032446-0.12196-0.071829-0.16622-0.086193-0.0708-0.025688-0.0704-0.02128 9e-3 0.029416 0.0478 0.032446 0.12196 0.071652 0.16614 0.086173 0.0708 0.025697 0.0701 0.021221-7e-3 -0.029731zm-0.35348-0.2056-0.11225-0.077348 0.29658-0.13161c0.16337-0.071583 0.24016-0.1114 0.17085-0.087176-0.20533 0.072606-0.48491 0.1996-0.49372 0.22419-9e-3 0.024861 0.084 0.085888 0.1884 0.12499 0.0347 0.012711 0.01-0.014511-0.0496-0.053539zm0.9218-1.1997c-0.01-0.02131-0.0538-0.059856-0.0936-0.085524-0.0608-0.040573-0.0594-0.034995 7e-3 0.032161 0.0929 0.094535 0.11354 0.10734 0.0866 0.053776zm-0.17719-0.15213c9.8e-4 -0.00699-0.0148-0.028796-0.0387-0.048945-0.0244-0.020365-0.0392-0.020955-0.0342-0.00108 7e-3 0.036923 0.0629 0.073157 0.0733 0.046869zm-0.19734-0.17925c-0.0379-0.058331-0.0301-0.062473 0.09-0.052998 0.0727 0.00571 0.1084 8.382e-4 0.0796-0.012426-0.0296-0.011855-0.098-0.02129-0.15372-0.020011-0.0983 0.00108-0.10026 0.00443-0.0557 0.069399 0.0262 0.036234 0.0547 0.068809 0.0635 0.073541 9e-3 0.00256-9.8e-4 -0.023779-0.0246-0.057701zm0.44254-0.00689c0.0699 0.00384 0.0755-0.00256 0.025-0.019755-0.0347-0.012711-0.10384-0.022234-0.15212-0.02554-0.0699-0.00384-0.0756 0.00246-0.025 0.019755 0.0357 0.011422 0.10383 0.022234 0.15214 0.02554zm0.35576 0.05657c0.11497 0.015308 0.12139 0.011993 0.0414-0.014137-0.0525-0.018437-0.14211-0.038261-0.19937-0.04315-0.14382-0.014137-0.0143 0.034886 0.15826 0.058045zm0.26588 0.03343c-0.0192-0.017778-0.0547-0.028482-0.0799-0.027832-0.0264 0.00157-0.0114 0.015043 0.0347 0.030508 0.0437 0.015594 0.064 0.014482 0.0458-0.00138zm0.26566 0.058557c-0.0191-0.017778-0.0545-0.028737-0.0797-0.027803-0.0266 0.00157-0.0114 0.015043 0.0345 0.030489 0.0437 0.015594 0.064 0.014482 0.0458-0.00138zm0.31207 0.076905c-9e-3 -0.014413-0.0337-0.025146-0.0595-0.025491-0.0295 0.00256-0.0228 0.01214 0.0114 0.02554 0.034 0.014 0.0546 0.01157 0.047-0.00118z"/>
     <path d="m137.05 8.8889c-0.42512-0.21703-1.1692-0.59452-1.6534-0.83922-0.48401-0.24503-0.9093-0.46812-0.94429-0.49733-0.0562-0.046043-0.0573-0.069379-3e-3 -0.19457l0.0613-0.14225 0.82688-0.00986c0.80972-0.01 0.92068-0.018712 0.87808-0.068936-0.0129-0.01214-0.25967-0.17893-0.55117-0.36722-0.29153-0.18831-0.51947-0.35077-0.50753-0.35991 0.01-0.011422 0.44657-0.088947 0.96431-0.17578 1.0177-0.16987 0.98014-0.16247 0.96753-0.18837-3e-3 -0.00767-0.28316-0.17485-0.61862-0.36698-0.33547-0.19209-0.62482-0.36533-0.64271-0.38534-0.0221-0.024035 0.17336-0.11714 0.55911-0.27168 0.66912-0.26638 0.73813-0.30591 0.85136-0.48562 0.0657-0.10513 0.0737-0.13826 0.0441-0.18185-0.0204-0.028393-0.29025-0.2686-0.60077-0.5321-0.3104-0.26363-0.56102-0.48912-0.55669-0.50135 4e-3 -0.020542 1.7013 0.15913 2.1567 0.2275 0.58345 0.088072 0.84526 0.17827 15.949 5.5237l14.957 5.2931-0.95326 2.6874-0.95324 2.6874-29.459-10.455zm0.51788-0.17579c-9e-3 -0.014413-0.0342-0.023936-0.0594-0.025461-0.0296 0.00256-0.0228 0.011993 0.0129 0.025038 0.0344 0.012711 0.0548 0.01157 0.0472-0.00118zm-2.0209-1.0169c-0.0527-0.034808-0.10083-0.070186-0.10555-0.080476-4e-3 -0.00944 0.0965-0.017827 0.22464-0.018211 0.12868 2.695e-4 0.2299-0.00856 0.22516-0.018122-9e-3 -0.018929-0.45405-0.016381-0.5369 0.00187-0.0507 0.010281 0.0741 0.098773 0.20934 0.14768 0.0623 0.022864 0.0592 0.013714-0.0158-0.03403zm0.60603-0.11371c0.0404-0.00846 0.032-0.014315-0.0287-0.01944-0.0477-0.00325-0.11297-0.00167-0.14485 0.00669-0.0404 0.00856-0.032 0.014138 0.0287 0.01944 0.0474 0.00315 0.11297 0.00187 0.14475-0.00689zm0.28631 5.215e-4c0.0323-0.00639 0.0452-0.018742 0.026-0.026091-0.0162-0.00689-0.0582-0.00482-0.0904 0.00295-0.0325 0.00639-0.0449 0.018486-0.0262 0.026081 0.0165 0.00846 0.0585 0.00502 0.0908-0.00295zm0.39491-0.00374c0.0323-0.00639 0.0452-0.018594 0.0269-0.024812-0.0164-0.00699-0.0587-0.00502-0.0902 0.00285-0.0325 0.00639-0.045 0.018624-0.026 0.026091 0.0164 0.00699 0.0585 0.00502 0.0902-0.00285zm0.28825-0.00541c0.0325-0.00639 0.045-0.018624 0.0262-0.026061-0.0165-0.00846-0.0582-0.00482-0.0902 0.00285-0.0325 0.00639-0.0452 0.018594-0.0262 0.026081 0.0164 0.00699 0.0585 0.00502 0.0902-0.00285zm-0.78747-0.84079c-0.12755-0.093945-0.13125-0.10366-0.062-0.12781 0.0695-0.025717 0.069-0.02552-9e-3 -0.01702-0.12039 0.013144-0.11881 0.053766 6e-3 0.13803 0.16801 0.11481 0.21976 0.11998 0.0664 0.00472zm0.50737-0.23625c0.0247-0.00915-0.0591-0.00502-0.18439 0.014757-0.12511 0.019509-0.24731 0.046426-0.27127 0.058114-0.0228 0.011993 0.0592 0.00502 0.18419-0.016085 0.12511-0.020827 0.24746-0.046564 0.27124-0.058114zm0.28652-0.049614c4e-3 -0.00669-0.0457-0.00718-0.10769-8.608e-4 -0.0623 0.00817-0.11625 0.021211-0.11839 0.032437-4e-3 0.00669 0.0456 0.00718 0.10726-6.483e-4 0.0623-0.00817 0.11554-0.02248 0.11839-0.032437zm0.34264-0.057071c4e-3 -0.00669-0.0456-0.00718-0.10712 8.342e-4 -0.0623 0.00817-0.11554 0.022461-0.11825 0.032309-4e-3 0.00669 0.0457 0.00718 0.1074 9.543e-4 0.0623-0.00817 0.11554-0.02247 0.1184-0.032437zm0.28732-0.049929c-7e-3 -0.014138-0.0348-0.012711-0.0642 0.00138-0.0421 0.02008-0.0401 0.025461 0.0129 0.024507 0.0355-0.00295 0.0604-0.010566 0.0531-0.02615zm-0.56973-0.69555c-9e-3 -0.014413-0.0344-0.023966-0.0594-0.025461-0.0295 0.00256-0.023 0.01214 0.0114 0.02552 0.0339 0.014 0.0547 0.01157 0.047-0.00118zm-0.13068-0.08389c-0.0191-0.017778-0.0551-0.028816-0.08-0.02799-0.0263 0.00157-0.0114 0.015043 0.0342 0.030302 0.0436 0.015584 0.0642 0.013144 0.0458-0.00138zm-0.27118-0.15762-0.0937-0.077437 0.22795-0.09606c0.12539-0.052585 0.1916-0.085337 0.1468-0.072763-0.13196 0.038251-0.39733 0.15945-0.40639 0.18404-7e-3 0.010281 0.0222 0.040543 0.0584 0.062453 0.12968 0.075636 0.15925 0.076266 0.0671-9.474e-4zm0.55709-1.5264c-0.0288-0.044902-0.029-0.063299-3e-3 -0.053481 0.0238 0.00817 0.0374 0.00472 0.0319-0.00944-9e-3 -0.014413-0.0332-0.021733-0.0597-0.013714-0.0339 0.00915-0.0357 0.027163-3e-3 0.073934 0.0238 0.033991 0.0519 0.066054 0.0622 0.06811 9e-3 0.00256-3e-3 -0.024822-0.0273-0.062728zm0.47605-0.012996c-9e-3 -0.014413-0.0339-0.025333-0.0594-0.025461-0.0297 0.00108-0.0219 0.013282 0.0129 0.025038 0.0339 0.014 0.0547 0.01157 0.0477-0.00256zm0.20182 0.036303c-9e-3 -0.014413-0.0329-0.026317-0.0594-0.025461-0.0295 0.00108-0.0228 0.01214 0.0129 0.025038 0.0326 0.012426 0.0546 0.01157 0.0477-0.00256zm0.18746 0.028246c-0.0192-0.017778-0.0546-0.028737-0.0795-0.027645-0.0266 0.00157-0.0114 0.015043 0.0342 0.030302 0.0437 0.015594 0.0642 0.013144 0.0459-0.00138z"/>
     <path d="m137.64 9.1876c-0.0998-0.052388-0.84396-0.42889-1.6538-0.83784-0.80964-0.40932-1.5016-0.76667-1.536-0.79704-0.0563-0.046063-0.0567-0.070865-9.9e-4 -0.19671l0.0617-0.14359 0.75528-0.01c1.0313-0.013567 0.97729-0.00986 0.93434-0.06326-0.0207-0.02496-0.26847-0.19515-0.55223-0.37835-0.28368-0.18331-0.50472-0.3426-0.49196-0.35277 0.01-0.011422 0.38693-0.079119 0.83124-0.15309 0.86807-0.14481 1.1104-0.1915 1.0989-0.2135-3e-3 -0.00767-0.28177-0.17115-0.6175-0.36288-0.33565-0.19183-0.62491-0.36586-0.64303-0.38647-0.0225-0.024251 0.16917-0.11765 0.58184-0.28254 0.33845-0.13435 0.65491-0.27917 0.7037-0.32101 0.0481-0.04196 0.1134-0.13138 0.14359-0.19884l0.055-0.12288-0.59626-0.51403c-0.32804-0.28272-0.59306-0.52317-0.58928-0.53416 7e-3 -0.018909 1.5014 0.13615 2.0669 0.21415 0.73799 0.1017 0.85603 0.14282 16.358 5.641l14.637 5.1917-0.95305 2.687-0.95307 2.6869-14.729-5.229c-8.1007-2.8764-14.81-5.2713-14.91-5.3233zm-2.0508-1.4618c-9e-3 -0.014413-0.0344-0.023966-0.0598-0.025668-0.0297 0.00108-0.0228 0.011993 0.0129 0.025038 0.0326 0.012426 0.0544 0.01157 0.0472-0.00118zm-0.13154-0.091545c-0.0246-0.030646-9e-3 -0.039589 0.0604-0.033381 0.0518 0.00384 0.0898-0.00128 0.0848-0.010428-0.0146-0.030803-0.23418-0.024084-0.24531 0.00846-4e-3 0.01461 0.0233 0.039402 0.0616 0.053431 0.0519 0.018338 0.0623 0.012711 0.0385-0.017355zm0.29594-0.042491c0.0323-0.00639 0.0447-0.018368 0.026-0.026091-0.0164-0.00699-0.0582-0.00482-0.0908 0.00295-0.0325 0.00639-0.0449 0.018486-0.026 0.026091 0.0165 0.00846 0.0585 0.00502 0.0902-0.00285zm1.3662-0.016567c0.0322-0.00502 0.0449-0.018476 0.026-0.026091-0.0164-0.00699-0.0585-0.00502-0.0903 0.00275-0.0324 0.00639-0.0452 0.018742-0.0262 0.026081 0.0164 0.00699 0.0585 0.00502 0.0902-0.00285zm-0.8644-0.89349c9.9e-4 -0.00699-0.0147-0.028797-0.0387-0.048788-0.0246-0.020523-0.0392-0.020955-0.0341-0.00108 7e-3 0.036923 0.063 0.073167 0.0731 0.046859zm0.23785-0.11597c0.0165-0.014 6e-3 -0.023031-0.0259-0.02434-0.0627 0.00167-0.0809 0.021762-0.0345 0.037907 0.0162 0.00689 0.0433-3.768e-4 0.0608-0.013852zm0.29034-0.060869c4e-3 -0.00669-0.0279-0.011708-0.0701-0.00531-0.0414 0.00787-0.0781 0.017837-0.0811 0.02735-4e-3 0.00669 0.0279 0.011707 0.0704 0.00384 0.0414-0.00787 0.0785-0.018063 0.0813-0.027321zm0.34266-0.057072c4e-3 -0.00669-0.0278-0.011707-0.0699-0.00384-0.0413 0.00797-0.0781 0.017837-0.0812 0.027222-4e-3 0.00669 0.0278 0.011707 0.0699 0.00531 0.0413-0.00797 0.0784-0.017955 0.0807-0.027281zm0.28699-0.049831c-7e-3 -0.014137-0.0354-0.011422-0.0642 0.00138-0.0421 0.02008-0.0401 0.025461 0.0129 0.024664 0.0358-0.00157 0.0606-0.010566 0.0531-0.02615zm-0.22718-0.75322c-9e-3 -0.014413-0.033-0.02491-0.0594-0.025461-0.0295 0.00256-0.0228 0.011993 0.0129 0.025038 0.0344 0.012711 0.0551 0.01157 0.047-0.00118zm-0.46012-0.27372c-0.0253-0.024094 7e-3 -0.054533 0.11097-0.10996l0.14712-0.077919-0.1584 0.06688c-0.17374 0.074426-0.20552 0.10944-0.12025 0.13482 0.0367 0.012996 0.0443 0.00797 0.02-0.01521zm1.2939-1.471c-9e-3 -0.014413-0.0337-0.025294-0.0594-0.025461-0.0297 0.00108-0.0228 0.011993 0.0114 0.02552 0.0344 0.012711 0.0546 0.01157 0.0477-0.00256z"/>
     <path d="m137.77 9.2483c-0.032-0.019529-0.77728-0.39487-1.6538-0.83783-0.87693-0.44201-1.6227-0.82842-1.6578-0.8575-0.0563-0.046063-0.0567-0.070865-9.8e-4 -0.19594l0.0614-0.14276 0.79195-0.012288c0.43557-0.00689 0.82488-0.018309 0.86511-0.025648 0.0851-0.014 0.0306-0.056914-0.63466-0.49127-0.21916-0.14243-0.38855-0.26674-0.37653-0.27648 0.0114-0.00986 0.44176-0.088878 0.95505-0.17621 0.51337-0.087078 0.94374-0.16714 0.95649-0.17745 0.01-0.011422-0.25433-0.17693-0.59266-0.37123-0.33865-0.19404-0.63086-0.36985-0.64926-0.39091-0.0228-0.026022 0.16246-0.11684 0.58723-0.28593 0.62737-0.25026 0.75169-0.32849 0.84703-0.53244l0.0506-0.10639-0.59651-0.51329c-0.32812-0.28227-0.59311-0.52302-0.58889-0.53493 6e-3 -0.01214 0.0815-0.012996 0.17157-0.00354 1.657 0.17858 2.1073 0.24022 2.5238 0.34593 0.35984 0.091564 3.5525 1.2114 15.41 5.4092l14.956 5.2941-0.95328 2.6873-0.95322 2.6874-14.729-5.229c-8.1006-2.8764-14.756-5.2445-14.789-5.2622zm-2.307-1.6203c-0.0478-0.061794-0.0817-0.073669-0.0957-0.034237-7e-3 0.018909 0.0203 0.043278 0.0606 0.056432 0.0582 0.019352 0.0651 0.016095 0.0353-0.022175zm0.29949-0.037306c0.0322-0.00502 0.0447-0.018368 0.026-0.026091-0.0164-0.00699-0.0587-0.00502-0.0902 0.00275-0.0326 0.00639-0.0452 0.018732-0.0263 0.026209 0.0162 0.00689 0.0585 0.00344 0.0905-0.00413zm1.3662-0.016381c0.0323-0.00639 0.0449-0.018486 0.0262-0.026081-0.0164-0.00699-0.0582-0.00482-0.0902 0.00285-0.0325 0.00639-0.0452 0.018742-0.0262 0.026061 0.0165 0.00846 0.0585 0.00502 0.0905-0.00433zm-0.33624-1.0704c4e-3 -0.00669-0.0279-0.011707-0.0705-0.00541-0.0414 0.00787-0.0783 0.017984-0.0813 0.027193-4e-3 0.00669 0.028 0.011707 0.0701 0.00531 0.042-0.00639 0.0784-0.017955 0.0813-0.027321zm0.3426-0.057071c4e-3 -0.00669-0.0278-0.011707-0.07-0.00384-0.042 0.00639-0.0784 0.018092-0.081 0.02738-3e-3 0.00954 0.0279 0.011707 0.0699 0.00531 0.0413-0.00797 0.0781-0.017699 0.0812-0.027222zm-0.39956-1.0767c-0.0269-0.023356-9.8e-4 -0.050657 0.0886-0.10032l0.12511-0.067953-0.13596 0.057701c-0.15318 0.063368-0.18179 0.10004-0.0983 0.12555 0.0368 0.012996 0.0441 0.00797 0.0207-0.013714z"/>
     <path d="m137.75 9.2436c-0.0234-0.015279-0.76133-0.38952-1.6382-0.83152-0.87698-0.44204-1.6228-0.82844-1.6579-0.85754-0.0564-0.04624-0.0567-0.070865-9.8e-4 -0.19838l0.0621-0.145 0.70125-0.00885c0.89389-0.011284 0.9932-0.017925 0.96868-0.063909-0.01-0.02131-0.25168-0.1898-0.5354-0.37538-0.40151-0.2634-0.50342-0.3437-0.46217-0.36211 0.0298-0.012849 0.43119-0.088446 0.8934-0.16761 1.0055-0.17228 0.99293-0.16883 0.97993-0.1954-4e-3 -0.00944-0.27733-0.17551-0.60466-0.36355-0.32679-0.18869-0.60944-0.36004-0.6277-0.38107-0.0237-0.024881 0.15414-0.11251 0.55718-0.27329 0.61745-0.24628 0.80872-0.367 0.87454-0.55243l0.0392-0.11121-0.59-0.50661c-0.32439-0.27877-0.58653-0.51624-0.58235-0.528 9e-3 -0.020582 1.0531 0.082917 1.8851 0.18565 0.79063 0.097743 0.18545-0.11003 16.189 5.554l14.988 5.3044-0.95325 2.6874-0.95329 2.6875-14.745-5.2346c-8.1095-2.8796-14.765-5.2463-14.789-5.2618zm-2.3067-1.6213c-6e-3 -0.021211-0.0218-0.043957-0.0387-0.048788-0.0162-0.00689-0.0345 0.0061-0.0402 0.022254-7e-3 0.019165 0.0114 0.039491 0.0387 0.048788 0.0267 0.00856 0.046 4.62e-5 0.0407-0.02248zm1.3536-2.3389c0.0575-0.03646 0.0569-0.037828-9e-3 -0.016892-0.0399 0.013134-0.0733 0.028462-0.0747 0.036323-0.01 0.026052 0.0225 0.01947 0.0828-0.021005z"/>
     <path d="m137.37 9.0553c-0.23316-0.1195-0.97033-0.49401-1.6376-0.83281-0.66753-0.33855-1.2424-0.63943-1.2771-0.66917-0.0566-0.046397-0.0566-0.070707-9.8e-4 -0.19762l0.062-0.14434 0.80858-0.012849c0.44468-0.00718 0.82627-0.021408 0.84793-0.03163 0.0458-0.022677-0.0202-0.071455-0.61564-0.46755l-0.43493-0.28798 0.15528-0.03469c0.0851-0.02008 0.51946-0.09669 0.96477-0.17168 0.44519-0.076354 0.81279-0.14698 0.81685-0.15852 3e-3 -0.00954-0.27005-0.18072-0.60968-0.37523-0.33945-0.19489-0.62458-0.36857-0.63383-0.3858-9e-3 -0.01702 0.12025-0.085789 0.28657-0.15267 0.50813-0.20234 0.96817-0.41925 1.0474-0.49317 0.0405-0.038979 0.0917-0.11881 0.11326-0.17768l0.038-0.1075-0.59012-0.50628c-0.32458-0.27854-0.58667-0.51598-0.5825-0.52774 9e-3 -0.023307 0.80511 0.053913 1.7314 0.16504 0.29278 0.034808 0.71713 0.11068 0.94326 0.16675 0.31282 0.078322 3.9924 1.3701 15.399 5.4071l14.989 5.3045-0.95329 2.6874-0.95321 2.6875-14.745-5.2333c-14.183-5.0337-14.762-5.2421-15.17-5.4508zm-1.926-1.4329c-6e-3 -0.021211-0.0218-0.043957-0.0387-0.048788-0.0162-0.00689-0.0345 0.00472-0.0402 0.022254-7e-3 0.019283 0.0114 0.03949 0.0387 0.048788 0.0267 0.00856 0.0457-1.9e-6 0.0407-0.02248z"/>
     <path d="m137.7 9.2227c-0.0499-0.025668-0.78726-0.39953-1.6381-0.83147-0.8509-0.43195-1.5756-0.80761-1.6094-0.83686-0.0521-0.044134-0.0532-0.076394-0.01-0.19684 0.0434-0.11965 0.0649-0.14566 0.13339-0.14952 0.0452-0.00295 0.3655-0.00846 0.71158-0.013134 0.87049-0.011285 0.92337-0.01523 0.88067-0.069054-0.0203-0.021575-0.26246-0.19286-0.5406-0.37386-0.47261-0.30844-0.49985-0.3321-0.42488-0.35785 0.0436-0.015938 0.47714-0.095706 0.96227-0.17916 0.4851-0.084038 0.87534-0.16532 0.86705-0.18215-9e-3 -0.016892-0.28228-0.18555-0.60954-0.37374-0.32682-0.1887-0.60212-0.35761-0.61175-0.37549-0.01-0.018171 0.18582-0.11387 0.43403-0.21421 0.78917-0.31768 0.94551-0.41337 1.02-0.62418 0.0296-0.08151 4e-3 -0.10734-0.55855-0.59491-0.32378-0.28037-0.58556-0.5189-0.5813-0.53079 0.01-0.019637 1.2941 0.10606 1.9557 0.1919 0.71601 0.092735 0.32133-0.043672 16.102 5.5422l15.004 5.31-0.95328 2.6875-0.95322 2.6875-14.744-5.236c-8.1094-2.8795-14.785-5.2566-14.835-5.2816zm-2.2604-1.6003c-6e-3 -0.021211-0.0218-0.043957-0.0387-0.048788-0.0162-0.00689-0.0345 0.0061-0.0402 0.022106-7e-3 0.018909 0.0114 0.039491 0.0387 0.048788 0.0268 0.00856 0.0457-3e-6 0.0407-0.02248z"/>
     <path d="m136.99 8.8667c-0.42513-0.21676-1.155-0.589-1.6218-0.82713-0.46683-0.23813-0.87749-0.45672-0.91239-0.48619-0.0566-0.046397-0.0567-0.070865-1.3e-4 -0.19873l0.0624-0.14548 0.77492-0.014925c0.42618-0.00817 0.80758-0.015967 0.84745-0.017679 0.11125-0.00295 0.0559-0.04929-0.50332-0.41907-0.27422-0.18182-0.48828-0.33825-0.47418-0.34981 0.0148-0.00915 0.32057-0.071553 0.68172-0.13395 0.91899-0.15998 1.174-0.21025 1.1831-0.23603 7e-3 -0.010281-0.26255-0.17939-0.59308-0.37175-0.33054-0.19218-0.60833-0.36351-0.6175-0.38036-9e-3 -0.01702 0.23272-0.13468 0.53729-0.26147 0.70321-0.29292 0.8132-0.35989 0.87948-0.5352l0.0512-0.13433-0.58082-0.50728c-0.31941-0.27896-0.57755-0.51636-0.57356-0.52752 6e-3 -0.020965 1.1859 0.093404 1.8709 0.18165 0.21774 0.027262 0.57299 0.09365 0.78918 0.14683 0.30341 0.073649 3.8312 1.3118 15.398 5.406l15.004 5.3101-0.95329 2.6875-0.95326 2.6875-14.761-5.2389-14.761-5.2389zm-1.5454-1.2444c-6e-3 -0.021211-0.0218-0.043957-0.0387-0.048945-0.0164-0.00699-0.0345 0.0061-0.0402 0.022126-7e-3 0.018909 0.0114 0.039491 0.0387 0.048788 0.0268 0.00856 0.0457-2.9e-6 0.0405-0.022333z"/>
     <path d="m136.97 8.861c-0.41662-0.21325-1.1396-0.58222-1.6059-0.82145-0.4668-0.23829-0.87758-0.45676-0.91229-0.48664-0.0566-0.046397-0.0567-0.070865-4.2e-4 -0.19973l0.0626-0.14636 0.78488-0.012996c0.7508-0.012426 0.90069-0.026406 0.85301-0.079581-0.0129-0.01214-0.24601-0.17301-0.52008-0.35523-0.27441-0.18199-0.48702-0.3408-0.4736-0.35128 0.0129-0.012711 0.43714-0.092942 0.94087-0.18213 0.50364-0.089902 0.91285-0.17617 0.9092-0.19345-3e-3 -0.017719-0.27067-0.18515-0.59318-0.3734-0.32231-0.18827-0.59399-0.35651-0.60345-0.374-9e-3 -0.01702 0.23908-0.13806 0.55247-0.26759 0.62985-0.26067 0.80087-0.36758 0.86993-0.54481l0.0458-0.11797-0.58073-0.50725c-0.31947-0.27898-0.57763-0.51642-0.57355-0.52769 6e-3 -0.020965 1.1868 0.093404 1.882 0.18313 0.22409 0.028265 0.56456 0.090305 0.75719 0.13612 0.25293 0.060436 4.5223 1.5602 15.386 5.4045l15.036 5.3213-0.95332 2.6876-0.95333 2.6875-29.553-10.492z"/>
     <path d="m137.2 8.9776c-0.29154-0.14927-1.0145-0.5185-1.6058-0.82142-0.59181-0.30207-1.1044-0.57392-1.1395-0.60304-0.0566-0.046397-0.0567-0.070865-4.4e-4 -0.20018l0.0626-0.1464 0.7358-0.015052c0.91968-0.018565 0.93275-0.019785 0.89016-0.072734-0.0181-0.02369-0.25334-0.1884-0.52216-0.36815-0.39363-0.26324-0.47833-0.33123-0.43382-0.35183 0.031-0.01214 0.38144-0.082307 0.78021-0.15213 0.90117-0.1575 1.0696-0.19413 1.042-0.2267-0.0114-0.014767-0.28175-0.17838-0.59942-0.36537-0.31772-0.18668-0.58519-0.35347-0.59455-0.37058-9e-3 -0.01702 0.25558-0.14524 0.58862-0.28467 0.4306-0.18064 0.64078-0.28825 0.72697-0.37352 0.21745-0.2154 0.22169-0.20771-0.42876-0.77888-0.319-0.28002-0.57701-0.51801-0.57296-0.52913 9e-3 -0.020582 1.556 0.13395 2.0372 0.20207 0.64059 0.091348 0.53405 0.053923 15.972 5.5169l15.052 5.3269-0.95331 2.6875-0.95326 2.6876-29.554-10.489z"/>
     <path d="m136.11 8.4258c-0.87528-0.44664-1.6193-0.8379-1.6536-0.86918-0.0544-0.050264-0.0534-0.076423-3.3e-4 -0.20322l0.0626-0.14636 0.7358-0.015043c0.92553-0.018604 0.93302-0.019509 0.88898-0.074151-0.018-0.023661-0.25452-0.18916-0.52354-0.36726-0.35809-0.23728-0.47636-0.32991-0.44195-0.34653 0.0259-0.011284 0.43847-0.093817 0.91645-0.18035 0.47809-0.085809 0.87425-0.17128 0.88046-0.18876 7e-3 -0.019283-0.25012-0.18867-0.56899-0.38111-0.31905-0.1921-0.58595-0.36092-0.59274-0.37527-9e-3 -0.014413 0.24041-0.13189 0.54946-0.26063 0.58586-0.24428 0.77169-0.35346 0.86617-0.50963 0.0771-0.12558 0.0521-0.1557-0.58063-0.70628-0.28959-0.25207-0.52278-0.46907-0.51801-0.48226 4e-3 -0.013714 0.24555 8.618e-4 0.53533 0.029977 1.1222 0.1147 1.7099 0.19419 2.0751 0.28108 0.2953 0.070196 3.7254 1.2745 15.416 5.412l15.036 5.3213-0.95326 2.6875-0.95331 2.6876-29.586-10.5z"/>
     <path d="m136.09 8.4197c-0.86664-0.44317-1.6037-0.83154-1.6378-0.86319-0.0551-0.049073-0.0534-0.076423 9.9e-4 -0.20418l0.0629-0.14695 0.7391-0.014669c0.93704-0.018722 0.93185-0.018181 0.88394-0.072183-0.0224-0.022638-0.25766-0.18963-0.52647-0.36922-0.56998-0.38179-0.57974-0.34317 0.11497-0.46137 0.96031-0.16366 1.2689-0.23424 1.2276-0.2813-0.022-0.024005-0.28375-0.19012-0.58193-0.36769-0.2983-0.17738-0.55042-0.33703-0.56008-0.3551-0.01-0.018161 0.21793-0.13086 0.5061-0.25084 0.75529-0.31417 0.99799-0.49262 0.91325-0.67059-0.0225-0.042757-0.27976-0.28984-0.57592-0.54763-0.29594-0.25787-0.53438-0.48004-0.52944-0.49389 0.0206-0.053854 2.0999 0.1877 2.5864 0.30062 0.25151 0.058921 4.2484 1.4621 15.408 5.4109l15.068 5.3326-0.95329 2.6876-0.95334 2.6876-29.617-10.514z"/>
    </g>
   </g>
   <rect transform="rotate(-9.47)" x="68.658" y="21.94" width="54.775" height="5.7256" ry="0" stroke-width=".21326"/>
   <path d="m126.92 1.3764 1.7284 0.10874-1.0926 0.62696 0.23883 0.61125 0.98642 0.58178-1.6649 0.57954 2.0336 0.70919-1.5216 0.61901 2.4522 0.44811-3.663 1.0834-0.87483-5.244z" fill="none" stroke="#000" stroke-width=".36412px"/>
   <g stroke-width=".033739">
    <path d="m128 6.0749c1.2105-0.36087 1.2207-0.3639 1.0802-0.39364-0.0772-0.018024-0.58182-0.1085-1.1195-0.20551-0.53772-0.096729-0.97944-0.18376-0.98155-0.19421-3e-3 -0.010566 0.34954-0.16129 0.78138-0.33543 0.43192-0.17384 0.78349-0.32638 0.78161-0.33807-3e-3 -0.010566-0.4445-0.17393-0.98329-0.36092-0.53879-0.18713-0.98182-0.34944-0.98384-0.36265-3e-3 -0.013567 0.38175-0.15661 0.85321-0.31898 0.47155-0.16221 0.85564-0.30444 0.85391-0.31499-3e-3 -0.015712-0.1488-0.10511-0.57218-0.347-0.0471-0.028865-0.11911-0.16619-0.22931-0.45139-0.0879-0.22653-0.1532-0.42087-0.14512-0.43208 0.01-0.011422 0.1578-0.10066 0.33188-0.2007l0.31726-0.18053-0.56368-0.030863c-0.49215-0.027478-1.1823 0.00167-1.5616 0.065001l-0.0951 0.015436 0.39973 2.3961 0.39962 2.3961 0.10754-0.022864c0.0592-0.011707 0.65748-0.18538 1.3294-0.38571z"/>
    <path d="m127 6.7498c0.39408-0.11898 1.2494-0.37384 1.9008-0.56642 0.65141-0.19272 1.1911-0.35952 1.1991-0.37131 0.01-0.011422 0.0114-0.087481 7e-3 -0.16858l-9e-3 -0.14757-0.718-0.13021c-1.0503-0.18962-1.0981-0.2001-1.0721-0.234 0.0114-0.017384 0.30874-0.14472 0.65737-0.28358 0.34827-0.13952 0.6204-0.26195 0.60436-0.27297-0.0165-0.00986-0.34785-0.13159-0.73718-0.26757-1.1126-0.38911-1.1689-0.40818-1.1554-0.42728 6e-3 -0.00915 0.33505-0.13009 0.72884-0.26821 0.39365-0.13842 0.72239-0.25814 0.72948-0.2684 7e-3 -0.00895-0.25841-0.17685-0.59055-0.36999-0.59159-0.34471-0.605-0.35506-0.67132-0.51742-0.037-0.091318-0.0785-0.18909-0.0917-0.21774-0.0184-0.042245 0.11212-0.12928 0.67911-0.45406 0.38658-0.22118 0.69022-0.41054 0.67489-0.42041-0.0143-0.012426-0.51016-0.048414-1.0996-0.086094-1.7875-0.11348-0.029-0.37016-18.007 2.6277l-15.35 2.5596 0.46912 2.8121 0.4691 2.8121 30.665-5.1238zm-0.4213-0.26982c9e-3 -0.020582 0.0693-0.045128 0.13467-0.05718 0.13169-0.021526 2.1985-0.63146 2.3192-0.68418 0.055-0.024123-0.20619-0.08515-0.97608-0.22906-0.57827-0.10807-1.0599-0.20315-1.0707-0.20949-7e-3 -0.011284-0.0151-0.020463-7e-3 -0.031836 0.01-0.011422 0.34866-0.15904 0.7593-0.33139 0.41044-0.17235 0.75017-0.31823 0.75449-0.32443 4e-3 -0.00374-0.33043-0.13085-0.74373-0.27749-1.0735-0.37945-1.1819-0.42223-1.1544-0.46094 0.0129-0.019578 0.38573-0.16374 0.82715-0.32328 0.4415-0.15923 0.80729-0.29458 0.81268-0.30113 4e-3 -0.00374-0.12582-0.092656-0.29063-0.18948l-0.30011-0.17651-0.12482-0.29692c-0.0686-0.1632-0.1381-0.36344-0.1544-0.44455l-0.0306-0.14757 0.29569-0.16982 0.29561-0.16997-0.32749-0.021369c-0.40916-0.026337-1.2269-0.010714-1.4868 0.028147-0.10769 0.016499-0.23533 0.022884-0.28356 0.015967-0.086-0.01214-0.0857-0.014629 0.0129-0.032132 0.31169-0.06081 1.2277-0.10062 1.647-0.071967 0.2568 0.017109 0.48843 0.038763 0.51454 0.047656 0.0285 0.010281-0.0832 0.090207-0.27481 0.19914-0.17715 0.10063-0.33255 0.19698-0.34547 0.21341-0.0202 0.025009 0.0734 0.29361 0.25289 0.73226 0.0227 0.051031 0.39866 0.29898 0.70759 0.46505 0.0456 0.024851-0.0888 0.078617-0.85033 0.34521-0.45816 0.16093-0.83748 0.29706-0.84214 0.30456-4e-3 0.00374 0.43274 0.16571 0.97277 0.35269 0.88372 0.30553 1.0815 0.385 1.0037 0.39807-0.0372 0.00571-1.4639 0.58572-1.5178 0.61644-0.0263 0.014137 0.38969 0.1064 0.92333 0.20394 1.3048 0.23891 1.293 0.23516 1.2459 0.26067-0.0566 0.03038-2.4687 0.75214-2.6049 0.78046-0.0651 0.015121-0.10325 0.00787-0.0946-0.013567z"/>
    <path d="m128.18 6.4014c1.0448-0.3103 1.9064-0.57556 1.9155-0.58784 0.01-0.012859 0.0129-0.089479 9e-3 -0.17105l-9e-3 -0.14818-0.85952-0.15681c-0.47241-0.087835-0.88296-0.1653-0.91184-0.17537-0.0654-0.02192 0.0196-0.063693 0.73476-0.35139 0.29499-0.11952 0.52386-0.22524 0.50787-0.23658-0.0181-0.010143-0.43755-0.16343-0.93703-0.33687-0.49944-0.17367-0.92247-0.32624-0.94034-0.33807-0.0377-0.025619-0.0228-0.03282 0.74916-0.29642 0.32925-0.113 0.6241-0.21991 0.65489-0.23907 0.0455-0.027645-0.0593-0.10079-0.53161-0.3797-0.32339-0.19018-0.60158-0.36695-0.61844-0.39221-0.0183-0.02371-0.0627-0.1233-0.10397-0.21673l-0.0714-0.17152 0.15949-0.1017c0.0874-0.05657 0.40057-0.24177 0.6965-0.41107 0.29574-0.16965 0.52512-0.31673 0.50993-0.3267-0.0143-0.012426-0.51012-0.048984-1.0996-0.086537-1.7794-0.1134-0.0278-0.36911-18.006 2.6289l-15.35 2.5596 0.46909 2.8121 0.4691 2.8121 30.665-5.1238zm-1.5874 0.075735c0.0244-0.021437 0.0905-0.047686 0.14603-0.057986 0.14573-0.026081 2.2029-0.63933 2.287-0.68211 0.055-0.02918-0.0541-0.060338-0.50247-0.14162-0.85953-0.15826-1.5248-0.28634-1.5428-0.29801-0.0348-0.024025 0.0367-0.057957 0.70392-0.33614 0.38186-0.15899 0.72186-0.30498 0.75569-0.32436 0.0478-0.029436-0.0434-0.072665-0.45551-0.21927-1.1546-0.40984-1.4147-0.51094-1.3924-0.54242 0.0129-0.019598 0.38456-0.16218 0.82582-0.32132 0.4411-0.15911 0.80738-0.29461 0.81318-0.30282 7e-3 -0.00895-0.12483-0.093502-0.28984-0.19063l-0.30006-0.17651-0.11854-0.2838c-0.0651-0.15595-0.13453-0.35618-0.15432-0.44445l-0.0355-0.16045 0.29562-0.16999 0.29568-0.16982-0.32754-0.021369c-0.39334-0.024851-1.2209-0.011284-1.4702 0.024822-0.0987 0.014137-0.22605 0.022913-0.28342 0.017296l-0.10455-0.00787 0.0995-0.020237c0.41674-0.085829 2.023-0.10096 2.146-0.020139 0.0181 0.010143-0.10568 0.10226-0.27452 0.20072-0.1689 0.098333-0.31713 0.19281-0.33004 0.20873-0.0181 0.023435 0.0725 0.29117 0.25257 0.73042 0.0155 0.036578 0.18256 0.16122 0.37238 0.27532 0.18985 0.11408 0.33993 0.21456 0.33395 0.22274-6e-3 0.00915-0.38667 0.14766-0.84593 0.30895-0.45923 0.1612-0.83966 0.29897-0.84512 0.30719-6e-3 0.00915 0.41115 0.16113 0.92651 0.33936 0.5156 0.17768 0.96788 0.34007 1.0055 0.35974 0.0608 0.03103-0.0246 0.072311-0.69494 0.34462-0.41998 0.17078-0.77587 0.3198-0.79073 0.33184-0.0146 0.012288 0.46961 0.11327 1.0764 0.22471 0.60681 0.11086 1.1127 0.2095 1.1243 0.21798 9e-3 0.00876 9.9e-4 0.019421-0.0266 0.024281-0.0241 0.0063-0.60372 0.17738-1.2844 0.38262-1.3261 0.39948-1.4641 0.4359-1.392 0.37028z"/>
    <path d="m128.2 6.3976c1.3558-0.40524 1.8914-0.57715 1.9067-0.61351 0.01-0.027694 0.0129-0.1047 9.9e-4 -0.17107l-0.0202-0.12031-0.86238-0.16016c-0.47424-0.088131-0.86949-0.17474-0.87842-0.19162-9e-3 -0.01702 0.26931-0.14788 0.61825-0.29031 0.54771-0.22353 0.62525-0.26338 0.56783-0.29216-0.0364-0.018781-0.47228-0.17516-0.96828-0.34799-0.49612-0.17257-0.89719-0.32121-0.89184-0.32842 7e-3 -0.00895 0.31513-0.11951 0.68713-0.24956 0.37259-0.12859 0.70279-0.25085 0.73422-0.27024 0.0474-0.029229-0.0385-0.091249-0.47665-0.34993-0.29379-0.1732-0.57734-0.35204-0.63056-0.39679-0.11782-0.10166-0.22351-0.39803-0.16015-0.45339 0.0243-0.016538 0.33178-0.20345 0.68754-0.40862 0.35595-0.20512 0.63433-0.38123 0.61896-0.39107-0.0313-0.020709-1.8518-0.14222-2.1701-0.14526-0.11297-0.00187-0.52765 0.028492-0.92151 0.065552-0.62164 0.05961-2.7325 0.40431-16.04 2.6242l-15.325 2.5563 0.46911 2.812 0.46895 2.8121 30.698-5.1294zm-1.6068 0.079512c0.0244-0.021437 0.093-0.048315 0.15142-0.059738 0.12311-0.022579 2.1719-0.63016 2.2866-0.679 0.0816-0.03709 0.10283-0.03042-1.3376-0.30078-0.39325-0.073855-0.71663-0.14315-0.71844-0.15471-3e-3 -0.010566 0.32399-0.15737 0.72415-0.32435 0.40017-0.16681 0.74435-0.31601 0.765-0.33113 0.0208-0.013714-0.32273-0.15638-0.77114-0.31645-0.44492-0.15839-0.87113-0.31517-0.94771-0.3468-0.13768-0.055645-0.16355-0.12162-0.0546-0.13531 0.0478-0.00689 0.047-0.00118-3e-3 0.027724-0.0457 0.027891 0.16152 0.11335 0.91817 0.37759 0.53756 0.18839 0.98473 0.34722 0.99353 0.35364 0.0354 0.024409-0.0341 0.056481-0.72848 0.33971-0.39548 0.16163-0.74053 0.30517-0.76625 0.32013-0.0263 0.014138 0.42977 0.11578 1.0122 0.22409 1.2924 0.2394 1.1773 0.21496 1.1188 0.24819-0.055 0.031049-2.443 0.74782-2.5896 0.77757-0.0763 0.014285-0.0881 0.011137-0.055-0.020277zm0.1851-2.6837c0.0173-0.011707 0.34901-0.13211 0.73656-0.27269 0.38804-0.13963 0.71081-0.26142 0.71753-0.27007 0.01-0.011422-0.12367-0.096385-0.2905-0.19291-0.29675-0.1741-0.30351-0.18096-0.39034-0.3923-0.048-0.11908-0.10768-0.28133-0.13125-0.36211-0.0228-0.081136 7e-3 -0.025107 0.0701 0.12504 0.0619 0.14947 0.12568 0.30221 0.1411 0.33946 0.016 0.037238 0.18531 0.16209 0.37728 0.27719 0.19184 0.11541 0.33042 0.22014 0.30952 0.23048-0.16668 0.088259-1.6593 0.59005-1.54 0.51765zm0.56212-1.7837c0.0114-0.017384 0.15135-0.10299 0.30531-0.1923l0.28096-0.16125-0.25942-0.018398c-0.40356-0.027626-1.0056-0.022618-1.4683 0.012573-0.39164 0.029652-0.56736 0.026976-0.37154-0.00571 0.46647-0.078292 2.0503-0.091564 2.1572-0.018998 0.0181 0.010143-0.0712 0.081106-0.19699 0.15381-0.38943 0.22554-0.43061 0.25441-0.42536 0.3002 3e-3 0.034217-3e-3 0.034631-0.0203 0.00256-0.0143-0.024025-0.0143-0.055694-9.9e-4 -0.072527z"/>
    <path d="m128.22 6.3944c1.3303-0.3992 1.875-0.57527 1.8899-0.61107 0.0206-0.044901-6e-3 -0.30207-0.0294-0.29825-0.0367 0.00571-1.6726-0.3122-1.6985-0.33003-0.0504-0.035309-0.021-0.050755 0.61969-0.31468 0.52493-0.21614 0.59342-0.25244 0.53466-0.28183-0.0369-0.01885-0.4557-0.17079-0.93067-0.33619-0.47451-0.16698-0.87254-0.31412-0.88452-0.32726-0.025-0.029111-0.01-0.035732 0.73797-0.29401 0.32047-0.11014 0.60739-0.21672 0.63803-0.23567 0.0456-0.027793-0.0567-0.10196-0.5366-0.38931-0.33039-0.19798-0.61378-0.39158-0.64075-0.43756-0.0269-0.044892-0.0667-0.14346-0.0901-0.21754l-0.0413-0.13522 0.47901-0.2788c0.81891-0.47667 0.91731-0.53988 0.86101-0.5516-0.0291-0.00758-0.52012-0.042471-1.0909-0.080683-0.80806-0.053953-1.1575-0.061282-1.579-0.033588-0.48434 0.032023-2.1863 0.30913-16.159 2.6294l-15.618 2.5937 0.46916 2.8125 0.46918 2.8125 30.732-5.1349zm-1.5899 0.080496c0.0252-0.019883 0.14848-0.06324 0.27454-0.096778 0.47857-0.12637 2.0896-0.61181 2.1413-0.64348 0.0371-0.023326-0.26374-0.093837-0.95359-0.22391-1.0412-0.19629-1.1046-0.21154-1.079-0.24695 0.01-0.011422 0.32349-0.15012 0.70021-0.30742 0.37675-0.15704 0.70971-0.30132 0.73993-0.3203 0.0424-0.023936-0.16638-0.1137-0.82436-0.34934-0.88195-0.31587-1.2876-0.48187-0.67259-0.27523 0.94854 0.31842 1.6447 0.57742 1.6262 0.60322-0.01 0.018161-0.33716 0.15936-0.7237 0.31819-0.38656 0.15852-0.72369 0.30106-0.74938 0.31602-0.0263 0.014138 0.34248 0.10037 0.81829 0.18904 1.244 0.23288 1.3627 0.25848 1.3225 0.27916-0.0436 0.022884-2.5039 0.7619-2.5995 0.78053-0.053 0.00986-0.057 0.00639-0.0194-0.022756zm0.0158-2.6263c0.01-0.012849 0.0379-0.018584 0.0635-0.012996 0.0278 0.00453 0.0221 0.016528-0.0183 0.02372-0.0363 0.00728-0.0562 0.00128-0.0465-0.010281zm0.16072-0.061154c0.01-0.012849 0.0379-0.018584 0.0636-0.012996 0.0275 0.00571 0.0222 0.016558-0.0183 0.023848-0.0361 0.00728-0.0557 0.00275-0.046-0.00876zm0.13597-0.054523c0.0173-0.011707 0.28553-0.1079 0.59623-0.21866 0.81096-0.28709 0.771-0.246 0.42709-0.44519-0.15943-0.092489-0.29061-0.17255-0.2915-0.17775-9.8e-4 -6e-3 -0.0149-0.031148-0.0297-0.058065-0.0171-0.027291 0.0377-0.00128 0.1201 0.054897 0.0815 0.057426 0.24248 0.16016 0.35745 0.22812 0.11454 0.068021 0.20058 0.13516 0.19117 0.1487-0.0237 0.031246-1.1713 0.44453-1.3024 0.4679-0.0548 0.010281-0.0856 0.010566-0.0683 7.566e-4zm0.57549-1.1639c-0.039-0.10162-0.0835-0.21344-0.0995-0.24838-0.0167-0.034739-0.0156-0.055674-9.8e-4 -0.044744 0.0165 0.00986 0.0642 0.11038 0.1094 0.22083 0.0892 0.22592 0.0968 0.25078 0.0764 0.25413-7e-3 -4.338e-4 -0.0445-0.081362-0.0848-0.18255zm-0.1764-0.5563c0.0149-0.018043 0.1507-0.10424 0.30032-0.19222 0.15092-0.086429 0.26807-0.16169 0.26086-0.16687-0.0652-0.047646-1.2441-0.044646-1.8539 0.00285-0.14862 0.011855-0.2523 0.011707-0.23076-3.994e-4 0.0772-0.04197 1.1277-0.089105 1.6088-0.071534 0.49854 0.019096 0.61624 0.043957 0.50649 0.10799-0.0323 0.019765-0.17108 0.10362-0.30812 0.18647-0.26156 0.1593-0.32906 0.19123-0.28384 0.13298z"/>
    <path d="m128.24 6.3932c1.3463-0.40549 1.8576-0.57086 1.8734-0.60817 0.0395-0.093807-0.0114-0.29278-0.0801-0.30695-0.0335-0.00954-0.41141-0.078175-0.83865-0.15756-0.42716-0.079217-0.79212-0.15438-0.8107-0.16773-0.0395-0.028088 0.13639-0.11143 0.76228-0.36918 0.2501-0.10267 0.44623-0.19638 0.43585-0.20808-0.0129-0.01214-0.39901-0.15502-0.86401-0.31713-0.8927-0.31301-1.0185-0.36043-1.0039-0.38089 4e-3 -0.00374 0.30695-0.11621 0.67003-0.24459 0.36366-0.12721 0.68687-0.24795 0.71845-0.26783 0.0475-0.030922-0.042-0.095155-0.52052-0.38206-0.31778-0.19059-0.6037-0.38103-0.63555-0.42306-0.0322-0.042107-0.0796-0.1436-0.10655-0.22467l-0.0484-0.14835 0.68881-0.39983c0.3788-0.21996 0.6873-0.40896 0.68546-0.41997-3e-3 -0.020739-0.8002-0.079896-1.7839-0.13362-1.0423-0.057071-0.28927-0.1732-17.383 2.6782l-15.316 2.5548 0.46912 2.8121 0.46909 2.812 30.765-5.1377zm-1.5895 0.077722c0.0353-0.020296 0.18806-0.067097 0.34189-0.10361l0.27985-0.065139-0.29268 0.092017c-0.35577 0.11267-0.40995 0.12572-0.32936 0.075813zm0.67467-0.20719c0.0313-0.01214 0.0905-0.023405 0.13325-0.022579 0.0431 0.00108 0.018 0.010143-0.0551 0.024241-0.0731 0.01157-0.10768 0.012711-0.0781-0.00226zm0.26085-0.077259c0.031-0.01214 0.0905-0.023405 0.13296-0.02247 0.0433 0.00108 0.0181 0.010143-0.0551 0.024094-0.0734 0.011855-0.10768 0.012711-0.078-0.00226zm0.26082-0.077269c0.031-0.01214 0.0905-0.023405 0.13296-0.022461 0.0436 0.00108 0.0181 0.010143-0.0551 0.024231-0.0733 0.011707-0.10797 0.012563-0.0778-0.00216zm0.26083-0.077269c0.0313-0.01214 0.0901-0.023326 0.13296-0.022588 0.0434 0.00108 0.018 0.010143-0.0551 0.024231-0.0727 0.012996-0.10769 0.012711-0.0775-0.00216zm0.26082-0.077269c0.0311-0.011993 0.0907-0.023376 0.13297-0.022598 0.0434 0.00108 0.018 0.010143-0.0551 0.024094-0.0734 0.011855-0.10768 0.012711-0.0778-0.00216zm0.46407-0.14178c0.14197-0.04923 0.26617-0.091013 0.27534-0.093906 0.0212-0.00974-0.39122-0.093345-1.3367-0.27259-0.67696-0.12818-0.86077-0.18217-0.70815-0.20774 0.028-0.00433 0.0465 0.00295 0.0407 0.01945-6e-3 0.01581 0.46514 0.11762 1.0478 0.22668 0.58273 0.10893 1.0676 0.2074 1.0774 0.21895 9e-3 0.01-0.0667 0.044813-0.17011 0.074278-0.1034 0.029023-0.20189 0.062581-0.21912 0.071278-0.017 0.010281-0.084 0.024153-0.1484 0.034758-0.0639 0.010428-3e-3 -0.020621 0.14225-0.069714zm-1.6831-0.61065c0.01-0.012859 0.0376-0.018496 0.0632-0.012996 0.0274 0.0059 0.022 0.016509-0.0183 0.023867-0.0361 0.00728-0.056 0.00275-0.0459-0.010143zm0.12768-0.054976c0.01-0.012859 0.0379-0.018584 0.0633-0.013144 0.0276 0.0059 0.0221 0.016528-0.0183 0.023867-0.0363 0.00728-0.0557 0.00275-0.046-0.010143zm0.12796-0.055074c0.01-0.012849 0.0379-0.018584 0.0633-0.012996 0.0273 0.00571 0.0222 0.016548-0.0181 0.02372-0.0344 0.0061-0.0557 0.00275-0.0459-0.010143zm0.26293-0.11071c0.0874-0.040376 0.18105-0.076876 0.20889-0.079995 0.0694-0.00669-0.2185 0.12822-0.30115 0.14255-0.0367 0.00571 4e-3 -0.023139 0.0926-0.061981zm0.52746-0.22133c0.14852-0.068012 0.29451-0.13878 0.32429-0.15742 0.0288-0.020306 0.0564-0.019834 0.0589-0.00374 6e-3 0.031059-0.46966 0.25174-0.58732 0.27242-0.0367 0.00571 0.0554-0.043721 0.20369-0.11147zm0.0652-0.24723c-0.11339-0.04499-0.46365-0.17234-0.77861-0.28371-0.3149-0.11118-0.5736-0.20942-0.57498-0.21759-3e-3 -0.020739 0.0284-0.01 0.87815 0.29314 0.39498 0.13992 0.71911 0.26108 0.72019 0.26902 6e-3 0.030105-0.0477 0.016882-0.2449-0.060338zm-1.5364-0.57145c-2e-4 -0.00876 0.0301-0.00826 0.0696 0.00817 0.0387 0.014806 0.0736 0.032604 0.0756 0.041606 2.2e-4 0.00876-0.0291 0.00699-0.0701-0.00817-0.0387-0.014806-0.0734-0.032594-0.0751-0.041527zm0.26285-0.21814c0.0212-0.01457 0.0585-0.020513 0.0831-0.014895 0.0243 0.00531 9e-3 0.014413-0.039 0.023021-0.0452 0.00876-0.0657 0.00443-0.0452-0.00856zm0.15301-0.055871c0.018-0.00876 0.24909-0.096188 0.51576-0.18992 0.2663-0.09549 0.51105-0.18827 0.54406-0.20664 0.0515-0.028433 0.0143-0.060308-0.23054-0.20433-0.15958-0.094102-0.29268-0.18214-0.29473-0.19747-3e-3 -0.015712 0.14096 0.060623 0.31841 0.16871 0.17784 0.10727 0.32532 0.20454 0.32679 0.21747 3e-3 0.013567-0.13782 0.071711-0.311 0.13362-0.17285 0.062266-0.40909 0.14648-0.5242 0.19002-0.19439 0.072163-0.41519 0.13041-0.34433 0.088623zm0.4449-0.98609c6e-3 -0.027262 0.0162-0.022156 0.0238 0.016784 0.01 0.034316 9.9e-4 0.05653-0.01 0.0462-0.0129-0.00787-0.0193-0.037316-0.0129-0.063358zm-0.0604-0.16315c4e-3 -0.025845 0.0155-0.0061 0.0243 0.038546 9e-3 0.045315 3e-3 0.066172-9e-3 0.044636-0.015-0.020454-0.0215-0.057918-0.0143-0.083359zm-0.0557-0.12552c6e-3 -0.028649 0.0162-0.022293 0.024 0.016814 0.01 0.034316 9.8e-4 0.056225-0.01 0.0462-0.0129-0.00787-0.0193-0.037464-0.0129-0.063358zm-0.0908-0.38646c0.0333-0.0462 0.35635-0.2395 0.37574-0.22584 7e-3 0.011284-0.0731 0.063614-0.17957 0.13021-0.22757 0.1407-0.2307 0.14283-0.19634 0.095283zm0.47564-0.30124c0.0705-0.054917 0.0617-0.058931-0.1779-0.072281-0.32143-0.018525-1.0074-0.021182-1.1445-0.00482-0.0816 0.01157-0.0888 0.00689-0.0323-0.013852 0.0884-0.031837 0.68579-0.04254 1.0982-0.018407 0.40907 0.023867 0.41422 0.025835 0.32407 0.097605-0.0417 0.033302-0.0911 0.06266-0.10925 0.065267-0.0192 0.00128-3e-3 -0.020621 0.0404-0.053048zm-1.6941-0.069399c0.0396-0.014698 0.11439-0.028147 0.16633-0.02918 0.0519-0.00187 0.0191 0.013144-0.0721 0.026465-0.0917 0.014679-0.1344 0.015594-0.0945 6.503e-4zm-0.28783 0.014993c0.0313-0.01214 0.0824-0.023661 0.11697-0.018781 0.0335 0.00433 7e-3 0.014138-0.0551 0.025973-0.064 0.011855-0.0916 0.00718-0.0608-0.00531z"/>
    <path d="m127.15 6.7212c0.40272-0.12331 1.229-0.37231 1.8356-0.55605 0.76353-0.23019 1.1101-0.34717 1.1243-0.38213 0.039-0.092164-0.0129-0.29135-0.0797-0.30533-0.0334-0.00954-0.38782-0.074436-0.78602-0.15037-0.3981-0.076069-0.7633-0.15039-0.81163-0.16528l-0.0874-0.028304 0.10796-0.054317c0.0594-0.030646 0.3411-0.15089 0.62607-0.26918 0.28531-0.11747 0.50998-0.22402 0.49991-0.23557-0.0129-0.01214-0.30868-0.12307-0.66382-0.24756-0.86669-0.30424-1.2158-0.43432-1.2057-0.44828 4e-3 -0.00374 0.31377-0.11885 0.68673-0.25091 0.37302-0.13175 0.69636-0.25298 0.71803-0.27024 0.0281-0.019253-0.11268-0.12282-0.42824-0.31454-0.67398-0.40769-0.73824-0.45694-0.81074-0.62249-0.0354-0.078922-0.0663-0.1657-0.0715-0.1916-7e-3 -0.030351 0.22785-0.18386 0.67821-0.4456 0.37726-0.21903 0.68445-0.40761 0.68256-0.41911-9.8e-4 -0.019548-1.7311-0.1413-2.1634-0.15349-0.0943-0.00197-0.50924 0.027931-0.92148 0.068297-0.65299 0.063653-2.7264 0.40291-16.074 2.6293l-15.324 2.5562 0.4691 2.812 0.4691 2.8121 30.799-5.1432zm-0.38321-0.29607c0.031-0.01214 0.0901-0.023316 0.13325-0.022579 0.0431 0.00108 0.018 0.010143-0.0554 0.024349-0.0736 0.011855-0.10769 0.012711-0.0778-0.00216zm0.29434-0.083516c0.031-0.01214 0.0825-0.023661 0.11639-0.020021 0.0329 0.00561 9e-3 0.01702-0.0553 0.026081-0.0639 0.010428-0.0913 0.00738-0.0613-0.00541zm0.27668-0.079375c0.0196-0.014 0.0663-0.020581 0.1-0.017295 0.0335 0.00433 0.0167 0.012711-0.0389 0.023051-0.0548 0.010428-0.0821 0.00728-0.062-0.00541zm0.26083-0.077259c0.0196-0.014 0.0657-0.021979 0.0998-0.017148 0.034 0.00443 0.0167 0.012711-0.0392 0.021536-0.0548 0.010281-0.0824 0.00718-0.0614-0.00541zm0.26084-0.077269c0.0196-0.014 0.0654-0.02189 0.0998-0.017305 0.0339 0.00443 0.0167 0.012711-0.0393 0.021536-0.0548 0.010281-0.0824 0.00718-0.0614-0.00541zm0.26089-0.07725c0.0196-0.014 0.0654-0.022038 0.1-0.017276 0.0329 0.00561 0.0158 0.014138-0.0389 0.022903-0.0547 0.010281-0.0824 0.00718-0.0614-0.00541zm0.26081-0.077269c0.0196-0.014 0.0654-0.02189 0.1-0.017296 0.034 0.00443 0.0158 0.014137-0.0389 0.022903-0.0548 0.010281-0.0823 0.00728-0.0614-0.00541zm0.43301-0.12494c0.33238-0.11545 0.32518-0.12185-0.27681-0.23464-0.31247-0.058173-0.56342-0.11296-0.55794-0.12047 0.01-0.012859 0.92642 0.14962 1.1691 0.20758 0.10554 0.025392 0.10425 0.026632-0.1194 0.10443-0.12496 0.042107-0.26374 0.085189-0.30979 0.091633-0.0461 0.00738-3e-3 -0.015712 0.0943-0.048817zm-1.3032-0.42959c-0.21524-0.04132-0.38668-0.082503-0.38088-0.090836 0.0114-0.015043 0.76679 0.12578 0.79808 0.14824 0.0363 0.026563-0.0443 0.016272-0.41727-0.057416zm-0.48187-0.12042c-0.0143-0.015269 6.3e-4 -0.034158 0.0277-0.038556 0.0298-0.00541 0.0467 0.00738 0.0383 0.027626-9e-3 0.020581-0.0212 0.037434-0.0277 0.038694-6e-3 0.00197-0.0246-0.012573-0.0383-0.027626zm0.37185-0.18506c0.01-0.012859 0.0379-0.018584 0.0636-0.013144 0.0275 0.00571 0.0221 0.016528-0.0183 0.023867-0.0361 0.00728-0.0562 0.00128-0.0459-0.010143zm0.27079-0.11504c0.0208-0.013852 0.0587-0.020641 0.0825-0.014826 0.0252 0.00689 6e-3 0.014-0.039 0.023021-0.0462 0.00758-0.0658 0.00453-0.0452-0.00856zm0.42493-0.16961c0.0784-0.038772 0.2051-0.097359 0.28216-0.13141l0.13939-0.062817-0.1973-0.077377c-0.1084-0.042471-0.39786-0.14833-0.64282-0.23571-0.24481-0.087501-0.44628-0.16626-0.44784-0.17388 3e-3 -0.00826 0.0114-0.011284 0.025-0.0061 0.52993 0.17517 1.3141 0.47361 1.2979 0.49602-0.0244 0.033716-0.47395 0.24038-0.54876 0.2522-0.0282 0.00275 0.0151-0.023071 0.0921-0.061489zm-1.1205-0.77099c-2.1e-4 -0.00876 0.0461 6.69e-5 0.10612 0.01824 0.0588 0.020896 0.11011 0.041586 0.11111 0.051877 2.2e-4 0.00876-0.0462-9.15e-5 -0.10568-0.018181-0.0591-0.020936-0.11026-0.041606-0.11111-0.051867zm-0.25514-0.095499c-2.2e-4 -0.00876 0.0301-0.00826 0.0701 0.00817 0.0387 0.014806 0.0737 0.032633 0.0756 0.041743 2e-4 0.00876-0.0301 0.00826-0.0701-0.00817-0.0387-0.014806-0.0733-0.032564-0.0756-0.041743zm0.45696-0.28467c0.0212-0.01214 0.0587-0.020641 0.0828-0.014934 0.0243 0.00531 9e-3 0.014413-0.0392 0.023169-0.0452 0.00876-0.0658 0.00453-0.0452-0.00856zm0.58416-0.21398c0.25438-0.096218 0.46773-0.18255 0.47456-0.19137 0.01-0.011422-0.11611-0.092863-0.27181-0.18707-0.15589-0.093817-0.27848-0.17772-0.27282-0.18578 0.01-0.018171 0.53903 0.30271 0.595 0.35864 0.0156 0.017492 6e-3 0.040317-0.0247 0.05291-0.20952 0.087403-0.81061 0.30182-0.87891 0.31305-0.0455 0.00876 0.12468-0.064263 0.37929-0.16045zm-0.26729-1.5241c0.14287-0.094929 0.28725-0.16988 0.26716-0.13979-0.0177 0.031462-0.31714 0.21076-0.35709 0.21636-0.0192 0.00128 0.0236-0.031108 0.0895-0.077348zm0.35583-0.21316c0.0705-0.054769 0.0607-0.059216-0.20072-0.072419-0.1508-0.00826-0.42832-0.01578-0.61677-0.018014-0.18835-0.00197-0.30237-0.010852-0.25314-0.021152 0.11011-0.022175 0.76177-0.00915 1.0217 0.020119 0.18803 0.021113 0.18955 0.022795 0.11625 0.080309-0.0401 0.033401-0.0895 0.061725-0.10739 0.065572-0.0192 0.00128-3e-3 -0.020621 0.0404-0.053048zm-1.3391-0.09366c0.0313-0.01214 0.0832-0.02252 0.1164-0.020021 0.0336 0.00433 9e-3 0.014413-0.0553 0.026081-0.0637 0.011707-0.0916 0.00718-0.0607-0.00384zm-0.32212 0.02069c0.0208-0.013852 0.0654-0.022018 0.0998-0.017305 0.0336 0.00433 0.0167 0.012711-0.039 0.02129-0.0548 0.010281-0.0824 0.00718-0.0614-0.00541zm-0.32017 0.020719c9e-3 -0.013715 0.038-0.018722 0.0636-0.013134 0.0277 0.00443 0.0221 0.016528-0.0181 0.02372-0.0353 0.00738-0.056 0.00413-0.0462-0.00885z"/>
    <path d="m126.78 6.8354c0.17855-0.056452 0.9974-0.3038 1.819-0.55123 1.0562-0.31811 1.5005-0.4644 1.516-0.5001 0.0129-0.028422 9e-3 -0.10741-9e-3 -0.17672l-0.0301-0.12638-0.79455-0.14884c-0.43693-0.082218-0.8263-0.1608-0.86526-0.17392-0.0848-0.030508-0.0921-0.02616 0.67142-0.34641 0.40414-0.16934 0.50672-0.22375 0.4684-0.24887-0.0272-0.017305-0.44156-0.17029-0.92132-0.33895-0.47975-0.16867-0.87952-0.31158-0.88825-0.31811-0.0364-0.024851 0.0373-0.055989 0.66946-0.28132 0.36346-0.13008 0.67882-0.24956 0.70055-0.26682 0.0275-0.02067-0.0724-0.099245-0.31402-0.24191-0.69167-0.41302-0.86104-0.54356-0.9369-0.72321-0.0606-0.14377-0.0626-0.16795-0.019-0.21271 0.0284-0.027016 0.33602-0.21871 0.6867-0.42303 0.35043-0.20463 0.6355-0.38137 0.63371-0.39244-3e-3 -0.020739-0.77928-0.078165-1.7838-0.13332-1.0343-0.056973-0.29371-0.17131-17.381 2.6791l-15.318 2.5552 0.4691 2.812 0.46911 2.8121 15.416-2.5758c12.963-2.1667 15.467-2.5916 15.741-2.6776zm9e-3 -0.41183c0.0196-0.014 0.0655-0.02187 0.0997-0.017168 0.0335 0.00433 0.0157 0.014138-0.0389 0.023051-0.0548 0.010428-0.0824 0.00699-0.062-0.00541zm0.29457-0.083782c0.0212-0.01457 0.0584-0.020523 0.0828-0.014934 0.0243 0.00531 4e-3 0.016341-0.039 0.023021-0.0461 0.00758-0.0657 0.00453-0.0444-0.00986zm0.27795-0.079749c0.01-0.012849 0.0377-0.018604 0.0635-0.013134 0.0275 0.0059 0.0222 0.016548-0.0183 0.02372-0.0361 0.00728-0.056 0.00275-0.0462-0.010281zm0.26087-0.07725c9e-3 -0.013714 0.0377-0.018614 0.0635-0.013144 0.0273 0.00571 0.0221 0.016528-0.0183 0.023848-0.0361 0.00728-0.0557 0.00275-0.0459-0.010143zm0.26082-0.077269c0.01-0.012849 0.0379-0.018584 0.0633-0.012996 0.0275 0.00571 0.0221 0.016528-0.0181 0.02372-0.0348 0.00738-0.056 0.00275-0.0461-0.010143zm0.26088-0.07725c0.01-0.012849 0.0376-0.018496 0.0633-0.012996 0.0276 0.0059 0.0221 0.016528-0.0183 0.02372-0.0363 0.00728-0.056 0.00275-0.0472-0.00895zm0.26082-0.077259c0.01-0.012859 0.0377-0.018604 0.0636-0.013144 0.0274 0.00571 0.0227 0.015151-0.0183 0.023867-0.0361 0.00728-0.0557 0.00275-0.0462-0.010281zm0.32705-0.089479c0.01-0.012859 0.0377-0.018604 0.0633-0.012996 0.0275 0.00571 0.0227 0.015151-0.0183 0.02372-0.0344 0.0061-0.056 0.00275-0.0462-0.00885zm0.22513-0.083635c0.0667-0.024704 0.12711-0.053323 0.13367-0.063712 7e-3 -0.00895-0.15406-0.04927-0.35775-0.087747-0.20376-0.038064-0.36582-0.075725-0.35981-0.084461 0.01-0.018161 0.47785 0.068454 0.71139 0.12757l0.14254 0.035595-0.0958 0.040051c-0.0528 0.022431-0.14039 0.04862-0.19566 0.057652-0.0879 0.015013-0.085 0.011993 0.0209-0.02735zm-0.84191-0.27777c-0.0385-0.016213-0.0291-0.01764 0.0335-0.011855 0.0472 0.00453 0.11169 0.017994 0.14196 0.031167 0.0383 0.016184 0.0278 0.020611-0.0324 0.012996-0.0472-0.00453-0.11168-0.018112-0.14225-0.031187zm-0.38828-0.071622c-0.0383-0.016184-0.0287-0.01944 0.0319-0.014138 0.0473 0.00453 0.1117 0.017984 0.14197 0.031148 0.0383 0.016184 0.0278 0.020611-0.0326 0.012996-0.0481-0.00689-0.11182-0.017994-0.1421-0.031187zm-0.30623-0.049939c-0.11197-0.020641-0.22154-0.050273-0.24286-0.063771-0.0227-0.012278 0.0731-0.00295 0.20933 0.023031 0.23377 0.045698 0.30678 0.067687 0.25874 0.075676-0.0114 0.00256-0.11297-0.013567-0.22532-0.035132zm0.82486-0.63458c0.30251-0.14478 0.31107-0.13175-0.203-0.31591-0.26207-0.093276-0.4773-0.17841-0.47899-0.1872-9.8e-4 -0.00758 0.10755 0.022825 0.24278 0.070127 0.51121 0.18074 0.73801 0.27232 0.7426 0.29951 5.3e-4 0.016705-0.0775 0.065227-0.17844 0.11013-0.23336 0.10489-0.33432 0.12355-0.12468 0.022766zm-0.93728-0.59275c-2e-4 -0.00876 0.0461 6.69e-5 0.10583 0.018211 0.059 0.020896 0.11012 0.041586 0.11111 0.051867 2.2e-4 0.00876-0.0461-6.69e-5 -0.10568-0.018181-0.0597-0.019598-0.10997-0.041557-0.11111-0.051729zm-0.32709-0.11688c-2.1e-4 -0.00876 0.0462 9.35e-5 0.1064 0.018299 0.0597 0.019568 0.1104 0.04193 0.11111 0.051877 2.2e-4 0.00876-0.0462-9.44e-5 -0.10569-0.018181-0.0588-0.020896-0.11011-0.041586-0.1111-0.051877zm-0.20205-0.077555c0.01-0.011422 0.037-0.00571 0.064 0.011137 0.0382 0.027439 0.0355 0.030931-0.0154 0.019539-0.0347-0.00846-0.0566-0.023838-0.0481-0.034079zm0.75885-0.42936c0.0213-0.01457 0.0585-0.020513 0.0827-0.014964 0.0243 0.00531 9e-3 0.014413-0.0391 0.023169-0.0457 0.00885-0.0657 0.00443-0.045-0.00846zm0.21705-0.082464c0.0524-0.023946 0.13339-0.047843 0.17856-0.056452 0.0744-0.01214 0.0728-0.00856-0.01 0.029259-0.0525 0.024064-0.13338 0.047843-0.17856 0.056452-0.0744 0.01214-0.0727 0.00856 0.0129-0.028295zm0.38405-0.14063 0.12483-0.055842-0.26885-0.18154c-0.14824-0.099544-0.21708-0.15136-0.15271-0.1163 0.18923 0.10763 0.44257 0.28128 0.44708 0.30667 6e-3 0.025697-0.0971 0.070225-0.20736 0.089774-0.0367 0.00571-0.0129-0.01214 0.0581-0.044006zm-0.69826-1.3421c0.0149-0.018043 0.063-0.049299 0.10726-0.067323 0.0671-0.02796 0.065-0.024104-0.0129 0.029948-0.10854 0.075351-0.13154 0.085022-0.0943 0.038143zm0.20079-0.11914c-9.8e-4 -6e-3 0.0202-0.025146 0.0464-0.04196 0.0281-0.016794 0.042-0.012426 0.0333 0.00817-0.0129 0.035122-0.076 0.060416-0.0794 0.034857zm0.22569-0.14129c0.0475-0.050873 0.0411-0.055674-0.0798-0.067736-0.0726-0.00718-0.10712-0.018397-0.076-0.026504 0.0303-0.00826 0.1004-0.00285 0.15535 0.00699 0.0959 0.019539 0.0974 0.022667 0.0433 0.07844-0.0317 0.031561-0.0654 0.058173-0.0746 0.061351-0.01 0.00138 4e-3 -0.023139 0.0336-0.05353zm-0.43446-0.084274c-0.0699-0.00817-0.0739-0.01458-0.0221-0.024192 0.0367-0.00571 0.10568-0.00659 0.15443 0.00128 0.0701 0.00817 0.0737 0.01457 0.0218 0.023976-0.0367 0.00571-0.10569 0.00659-0.15423-0.00128zm-0.36005-0.00659c-0.11612-0.00384-0.12168-0.00767-0.0383-0.022697 0.0553-0.00895 0.14661-0.013144 0.20397-0.00738 0.14412 0.012711 9e-3 0.035949-0.166 0.029229zm-0.26751-0.014452c0.0212-0.01457 0.0584-0.020523 0.0831-0.014895 0.0252 0.00689 9e-3 0.014413-0.039 0.023021-0.0457 0.00885-0.0658 0.00472-0.0447-0.00846zm-0.27182 0.010714c0.0207-0.013852 0.0587-0.020641 0.0831-0.014895 0.0252 0.00689 9e-3 0.014413-0.0392 0.023169-0.0452 0.00856-0.0657 0.00443-0.0449-0.00846zm-0.32055 0.021969c9e-3 -0.013715 0.0382-0.018693 0.0636-0.012996 0.0278 0.00453 0.0215 0.013567-0.0183 0.02372-0.0354 0.00738-0.056 0.00413-0.0462-0.00885z"/>
    <path d="m127.28 6.6857c0.45648-0.13931 1.2549-0.38148 1.7744-0.53808 0.51941-0.15675 0.97702-0.30229 1.0167-0.32434 0.0627-0.036638 0.0683-0.058301 0.0368-0.19122l-0.0354-0.15026-0.8126-0.15386c-0.79562-0.1506-0.90316-0.17949-0.85233-0.2219 0.0149-0.00915 0.28692-0.13079 0.60692-0.26514 0.32035-0.13336 0.57311-0.25398 0.56232-0.26627-0.0114-0.014767-0.42416-0.1658-0.91887-0.34139-0.97226-0.34521-0.93672-0.33095-0.91966-0.35462 7e-3 -0.00895 0.30956-0.12197 0.67319-0.25312 0.36396-0.13026 0.6789-0.25106 0.70031-0.26673 0.0259-0.018614-0.1499-0.14593-0.50305-0.36516-0.61232-0.37915-0.67337-0.43013-0.75349-0.62685-0.0474-0.1151-0.0497-0.14872-0.0114-0.18658 0.0253-0.02492 0.33236-0.21427 0.68448-0.41891 0.35184-0.20514 0.63793-0.3835 0.63579-0.39643-3e-3 -0.020739-1.703-0.14032-2.1633-0.15263-0.58983-0.015771-0.86338 0.027862-16.668 2.653l-15.651 2.5991 0.46916 2.8125 0.46918 2.8126 30.832-5.1488zm-0.47935-0.26348c0.01-0.012849 0.0377-0.018604 0.0635-0.013134 0.0275 0.00571 0.022 0.016508-0.0183 0.02372-0.0342 0.0061-0.056 0.00275-0.0462-0.00885zm2.1675-0.64826c0.0581-0.024625 0.11097-0.052261 0.11782-0.061174 7e-3 -0.00895-0.0913-0.03528-0.21801-0.057367-0.12625-0.022894-0.22501-0.047204-0.21848-0.056442 0.01-0.018161 0.44996 0.062601 0.52806 0.096641 0.0472 0.020513-0.0894 0.085051-0.23175 0.10953-0.0648 0.01214-0.0607 0.00344 0.0218-0.030095zm-0.57668-0.21815c-0.0383-0.016184-0.0278-0.020611 0.0326-0.012996 0.048 0.00689 0.11168 0.017984 0.1421 0.031177 0.0383 0.016184 0.0287 0.01944-0.0335 0.011855-0.0481-0.00689-0.11168-0.017984-0.14224-0.031197zm-0.28181-0.050411c-0.0294-0.013282-0.0402-0.026908-0.0227-0.028905 0.0192-0.00128 0.0582 0.0063 0.0885 0.018368 0.0294 0.013282 0.0402 0.026917 0.0228 0.028924-0.0192 0.00128-0.0581-0.0063-0.0889-0.018437zm-0.3883-0.071622c-0.0294-0.013282-0.0404-0.026917-0.0228-0.028934 0.0192-0.00128 0.0582 0.0063 0.0885 0.018368 0.0293 0.013281 0.0402 0.026907 0.0228 0.028924-0.019 0.00128-0.0581-0.0063-0.0885-0.018368zm-0.2827-0.056343c-0.0294-0.013282-0.0404-0.026917-0.0228-0.028934 0.0192-0.00128 0.058 0.0063 0.0889 0.018437 0.0294 0.013282 0.0402 0.026907 0.0225 0.028895-0.0191 0.00128-0.0582-0.0063-0.0886-0.018368zm0.92226-0.69036c0.1421-0.070323 0.14769-0.078834 0.0838-0.115-0.0641-0.0359-0.0627-0.038428 0.0114-0.015043 0.11626 0.03346 0.10755 0.073865-0.0281 0.13581-0.18497 0.084796-0.23704 0.080024-0.0664-0.00472zm-0.45834-0.3212c-0.0212-0.013567 0.0588 0.00639 0.17921 0.046889 0.11983 0.041822 0.23534 0.088751 0.25686 0.1046 0.0219 0.015043-0.0588-0.00639-0.17921-0.046604-0.1201-0.042157-0.23569-0.088947-0.257-0.10447zm-0.27294-0.10006c-2.1e-4 -0.00876 0.0461 6.79e-5 0.10568 0.018181 0.0588 0.020896 0.11012 0.041586 0.11127 0.051887 2.1e-4 0.00876-0.0461-6.69e-5 -0.10598-0.01824-0.0597-0.019578-0.11011-0.041586-0.1111-0.051867zm-0.32712-0.11674c-2e-4 -0.00876 0.0461 6.69e-5 0.10568 0.018181 0.0588 0.020896 0.11026 0.041743 0.11112 0.051867 2.1e-4 0.00876-0.0461-6.69e-5 -0.10597-0.01822-0.0597-0.019568-0.11012-0.041576-0.11111-0.051877zm-0.27382-0.10034c0.01-0.011422 0.0371-0.00571 0.0639 0.011284 0.0385 0.027478 0.0345 0.031935-0.0143 0.021005-0.0347-0.00846-0.0565-0.023818-0.0481-0.034237zm0.68202-0.58573c0.01-0.012849 0.0377-0.018466 0.0635-0.013134 0.0278 0.00453 0.0227 0.015151-0.0181 0.02372-0.0348 0.00738-0.0562 0.00275-0.0465-0.010281zm0.14339-0.059993c0.0208-0.013852 0.0584-0.020523 0.0828-0.015082 0.0251 0.00689 4e-3 0.016341-0.039 0.023021-0.0456 0.00885-0.0657 0.00453-0.0449-0.00846zm0.29448-0.10767 0.10597-0.05898-0.20743-0.13465c-0.11526-0.073206-0.17374-0.11731-0.13196-0.09667 0.12268 0.061371 0.36347 0.22607 0.368 0.25211 9.8e-4 0.013282-0.0276 0.037572-0.0686 0.050903-0.14067 0.051611-0.17011 0.047814-0.0661-0.011707zm-0.28205-1.6001c0.0369-0.038556 0.0401-0.056973 0.0114-0.051926-0.0237 0.00787-0.0377-0.00315-0.0276-0.017384 9e-3 -0.013714 0.0373-0.014777 0.0617-0.00325 0.0327 0.012426 0.0298 0.033932-9e-3 0.073491-0.029 0.030253-0.0623 0.05593-0.073 0.056845-0.01 0.00138 4e-3 -0.025845 0.037-0.058045zm-0.46636-0.096129c9e-3 -0.013714 0.0377-0.018604 0.0636-0.013134 0.0275 0.00571 0.0221 0.016528-0.0183 0.023848-0.0353 0.00738-0.056 0.00413-0.046-0.010143zm-0.20523 1.742e-4c9e-3 -0.013715 0.0382-0.018693 0.0636-0.012996 0.0274 0.00571 0.0225 0.015151-0.0183 0.02372-0.0354 0.00738-0.056 0.00413-0.0462-0.00885zm-0.18969-0.00443c0.0212-0.01457 0.0587-0.020641 0.0831-0.014895 0.0251 0.00689 9e-3 0.014413-0.039 0.023021-0.0455 0.00876-0.0658 0.00472-0.0445-0.00986z"/>
    <path d="m126.65 6.8763c0.10683-0.033834 0.90573-0.2752 1.7746-0.53663 0.8688-0.26127 1.6121-0.49332 1.6517-0.51595 0.0627-0.036638 0.0681-0.060052 0.0358-0.19349l-0.0358-0.15192-0.74187-0.14193c-1.0132-0.19287-0.96058-0.18034-0.90892-0.22551 0.024-0.020936 0.29825-0.14554 0.60956-0.27656 0.31109-0.13175 0.55714-0.24856 0.54626-0.26097-0.0129-0.01214-0.36721-0.14535-0.79171-0.29599-0.82983-0.29315-1.06-0.38223-1.0447-0.40229 6e-3 -0.00787 0.30729-0.11961 0.67123-0.24979 0.36397-0.13025 0.67919-0.25116 0.7006-0.26831 0.0254-0.020277-0.1458-0.14542-0.52376-0.37971-0.30943-0.19173-0.59605-0.38913-0.63651-0.43923-0.0412-0.049181-0.0888-0.14898-0.10626-0.22114l-0.0323-0.13078 0.67687-0.40208c0.37226-0.2212 0.67534-0.41158 0.67341-0.42306-3e-3 -0.020739-1.5021-0.12817-2.0725-0.15019-0.74435-0.028393-0.86785-0.00876-17.092 2.6969l-15.318 2.5552 0.4691 2.812 0.4691 2.8121 15.416-2.5758c8.4788-1.4171 15.504-2.6032 15.611-2.637zm2.2745-1.0812c0.01-0.012849 0.0379-0.018584 0.0635-0.013282 0.0274 0.00571 0.0221 0.016528-0.0183 0.023867-0.0361 0.00728-0.0563 0.00118-0.0459-0.00876zm0.14498-0.068139c0.0294-0.025855 0.0143-0.038723-0.0537-0.043505-0.0516-0.00384-0.0881-0.015092-0.0811-0.027311 0.0209-0.02735 0.23477 0.017669 0.24022 0.05106 4e-3 0.016341-0.0278 0.036077-0.07 0.041989-0.0546 0.00699-0.0639 0.00285-0.0351-0.024369zm-0.2841-0.093148c-0.0293-0.013281-0.0407-0.02552-0.0225-0.028895 0.0192-0.00128 0.0581 0.0063 0.0889 0.018437 0.0306 0.01214 0.0404 0.026917 0.0228 0.028924-0.0191 0.00128-0.0581-0.0063-0.0886-0.018378zm-1.3424-0.25469c-0.0294-0.013281-0.0404-0.026917-0.0227-0.028905 0.0191-0.00128 0.0582 0.0063 0.0885 0.018368 0.0291 0.013282 0.0401 0.026878 0.0227 0.028905-0.0192 0.00128-0.0579-0.0063-0.0883-0.018309zm1.0075-0.72843c-9.9e-4 -6e-3 0.0202-0.025147 0.0464-0.04196 0.028-0.016686 0.0421-0.012426 0.0333 0.00954-0.0129 0.03525-0.0761 0.060397-0.0794 0.034867zm-0.21445-0.15499c-0.0143-0.015269-9.8e-4 -0.026317 0.0293-0.018368 0.0614 0.012563 0.0763 0.03406 0.0297 0.041714-0.0181 0.0059-0.0433-0.00974-0.0564-0.02556zm-0.27517-0.11126c-2e-4 -0.00876 0.0298-0.00541 0.0701 0.00817 0.0387 0.014807 0.0737 0.032633 0.0755 0.041586 2.1e-4 0.00876-0.0301 0.00826-0.07-0.00817-0.0387-0.014806-0.0731-0.032407-0.0756-0.041606zm-0.32706-0.11673c3e-3 -0.00826 0.0298-0.00541 0.07 0.00817 0.0386 0.014777 0.0734 0.032594 0.0756 0.041606 2.1e-4 0.00876-0.029 0.00699-0.0697-0.00817-0.0387-0.014807-0.0737-0.032633-0.0753-0.041557zm-0.27418-0.098801c0.01-0.011422 0.037-0.00571 0.064 0.011137 0.0383 0.027626 0.0354 0.030922-0.0146 0.021841-0.0344-0.00826-0.0564-0.023818-0.0481-0.03408zm0.35485-0.70206c0.01-0.012859 0.0379-0.018584 0.0633-0.012996 0.0278 0.00453 0.0225 0.015151-0.0183 0.02372-0.0344 0.0061-0.0562 0.00275-0.0462-0.00885zm0.50096-0.18904c0.0285-0.019785 6e-3 -0.054474-0.0891-0.12791l-0.13154-0.10182 0.14348 0.094447c0.15865 0.10307 0.18266 0.14418 0.0933 0.15475-0.0396 0.00531-0.0457-2.16e-5 -0.018-0.018752zm-1.017-1.6744c9e-3 -0.013715 0.0377-0.018604 0.0635-0.012996 0.0278 0.00453 0.0222 0.016548-0.0183 0.02372-0.0353 0.00738-0.056 0.00413-0.0462-0.010281z"/>
    <path d="m126.52 6.915c0.0354-0.011422 0.83438-0.25263 1.7749-0.53511 0.94058-0.28248 1.7424-0.53249 1.782-0.55512 0.0627-0.036637 0.0677-0.059856 0.0358-0.19246l-0.0354-0.15123-0.77763-0.15021c-0.42764-0.083064-0.80904-0.16183-0.84734-0.17628-0.0804-0.02981-0.0202-0.061459 0.71085-0.37258 0.24039-0.10204 0.42886-0.19543 0.41886-0.2067-0.0129-0.01214-0.41946-0.16462-0.90957-0.34034-0.4904-0.17513-0.89991-0.32981-0.91084-0.3418-0.0129-0.01214 0.28112-0.13008 0.64837-0.26201 0.36751-0.13144 0.68589-0.25365 0.70778-0.27097 0.0269-0.022362-0.13939-0.14339-0.52837-0.38399-0.5739-0.35605-0.68252-0.45499-0.74104-0.67218l-0.031-0.11307 0.67703-0.40132c0.37228-0.22072 0.67542-0.41128 0.67326-0.42383-3e-3 -0.013567-0.0781-0.027124-0.16824-0.033873-1.6627-0.1137-2.1169-0.13154-2.5454-0.10026-0.37034 0.026366-3.7094 0.57275-16.118 2.6341l-15.651 2.6005 0.46918 2.8126 0.46919 2.8126 15.416-2.5758c8.4785-1.4172 15.445-2.5863 15.48-2.5978zm2.5546-1.1924c0.0585-0.051316 0.093-0.058596 0.10026-0.0158 9.9e-4 0.019548-0.0287 0.038704-0.0696 0.045246-0.0604 0.010566-0.0665 0.00472-0.0291-0.029337zm-0.28841-0.08877c-0.0291-0.013282-0.0405-0.026947-0.0227-0.028905 0.0191-0.00128 0.0584 0.00639 0.0884 0.018338 0.0294 0.013282 0.0405 0.026947 0.0228 0.028934-0.0192 0.00128-0.0582-0.0063-0.0885-0.018368zm-1.3424-0.25455c-0.0295-0.013429-0.0404-0.026917-0.0228-0.028924 0.019-0.00128 0.0581 0.0063 0.0889 0.018437 0.0306 0.01214 0.0407 0.02552 0.0227 0.028905-0.0192 0.00128-0.0579-0.0063-0.0885-0.018368zm0.51815-0.99519c-2.2e-4 -0.00876 0.0301-0.00826 0.0699 0.00817 0.0387 0.014806 0.0737 0.032633 0.0756 0.041743 2e-4 0.00876-0.0301 0.00826-0.0701-0.00817-0.0387-0.014806-0.0733-0.032564-0.0756-0.041743zm-0.32711-0.11674c-9.8e-4 -6e-3 0.0301-0.00826 0.0701 0.00817 0.0387 0.014807 0.0736 0.032604 0.0756 0.041743 2.2e-4 0.00876-0.0301 0.00826-0.0701-0.00817-0.0387-0.014807-0.0736-0.032604-0.0752-0.041527zm0.58214-0.99003c0.0294-0.018604 0.0114-0.049496-0.0696-0.11426l-0.11126-0.089774 0.12439 0.079562c0.13925 0.089734 0.1611 0.13092 0.0737 0.14152-0.0392 0.00541-0.0457-1.97e-5 -0.0177-0.018693z"/>
    <path d="m126.53 6.9132c0.0265-0.00885 0.81753-0.25062 1.7581-0.53309 0.94058-0.28249 1.7424-0.5325 1.7819-0.55554 0.0632-0.037001 0.0681-0.0602 0.036-0.19526l-0.0357-0.15334-0.68905-0.13068c-0.87806-0.16756-0.97467-0.19154-0.94254-0.23229 0.0129-0.019598 0.28102-0.1429 0.59237-0.27662 0.44132-0.1893 0.55576-0.25056 0.51835-0.27597-0.0263-0.018624-0.40912-0.1624-0.85054-0.32085-0.96-0.34505-0.94782-0.34076-0.93069-0.36361 6e-3 -0.00915 0.30376-0.1243 0.65871-0.25263 0.35469-0.12882 0.66289-0.24815 0.68464-0.26539 0.0276-0.020955-0.13197-0.13802-0.50075-0.36672-0.56504-0.35009-0.73204-0.50267-0.76458-0.69672l-0.0193-0.11641 0.6694-0.39581c0.36811-0.21782 0.66764-0.40596 0.66557-0.41823-3e-3 -0.020739-1.0513-0.10217-1.8886-0.14646-0.79552-0.041989-0.16299-0.14135-16.91 2.6407l-15.685 2.6046 0.46919 2.8126 0.46905 2.8127 15.432-2.5786c8.4876-1.419 15.454-2.5869 15.48-2.598zm2.5544-1.1934c9e-3 -0.020454 0.0293-0.03889 0.0465-0.042216 0.0181-0.0059 0.0339 0.00974 0.0367 0.028373 9.8e-4 0.019548-0.0168 0.038103-0.0465 0.042216-0.0298 0.00541-0.0455-0.00718-0.0367-0.028383zm-0.92391-2.5395c-0.0503-0.046289-0.0491-0.0474 0.0114-0.015043 0.0361 0.020178 0.0665 0.041921 0.0683 0.047686 6e-3 0.025697-0.0266 0.0146-0.0787-0.033716z"/>
   </g>
   <path d="m126.92 1.3764 1.7284 0.10871-1.0926 0.62699 0.23882 0.61126 0.98633 0.5819-1.6648 0.57953 2.0336 0.70915-1.5215 0.61899 2.4521 0.4481-3.663 1.0834-0.8748-5.244z" fill="none" stroke="#000" stroke-width=".36412px"/>
   <path d="m128 6.0749c1.2105-0.36075 1.2206-0.36387 1.0802-0.39363-0.0772-0.018024-0.58172-0.10863-1.1195-0.2055-0.53779-0.096749-0.97948-0.18376-0.98151-0.19421-3e-3 -0.010566 0.34948-0.1614 0.78137-0.33544 0.43195-0.17383 0.78354-0.32635 0.78158-0.33803-3e-3 -0.010566-0.44441-0.17378-0.9837-0.35953-0.53884-0.18714-0.9819-0.34947-0.98389-0.36267-9.8e-4 -0.013282 0.38174-0.15661 0.85327-0.31898 0.47154-0.1622 0.85562-0.30442 0.85388-0.31498-3e-3 -0.015712-0.14879-0.10511-0.57218-0.347-0.0484-0.027921-0.11912-0.16631-0.22931-0.4514-0.0876-0.22655-0.1532-0.4209-0.14511-0.43204 0.01-0.011422 0.15779-0.10066 0.33195-0.20073l0.31728-0.1804-0.56364-0.030853c-0.49212-0.027478-1.1823 0.00167-1.5616 0.064981l-0.0949 0.015613 0.39961 2.3961 0.39958 2.3961 0.10755-0.022864c0.0592-0.011707 0.65747-0.1854 1.3294-0.38569z" stroke-width=".033739"/>
  </g>
 </g>
</svg>
