<?xml version="1.0" encoding="UTF-8"?>
<svg width="676.81pt" height="614.98pt" version="1.0" viewBox="0 0 676.81 614.98" xmlns="http://www.w3.org/2000/svg" xmlns:cc="http://creativecommons.org/ns#" xmlns:dc="http://purl.org/dc/elements/1.1/" xmlns:osb="http://www.openswatchbook.org/uri/2009/osb" xmlns:rdf="http://www.w3.org/1999/02/22-rdf-syntax-ns#">
 <g fill="#f00" stroke="#000" stroke-width=".75px" id='bodyCalves'>
  <path d="m480.07 438.97-3.8056 3.7104-4.4716 6.4695-4.2813 11.036-3.425 15.793-3.425 20.455-0.76111 11.702 4.4715 8.8479 7.4209 13.89 8.6577-16.174 3.6153-10.37v-7.9917l-1.5222-16.554v-11.988l0.0951-17.981-0.66598-8.4674z"/>
  <path d="m548.86 438.57 3.8056 3.7104 4.4716 6.4695 4.2813 11.036 3.425 15.793 3.425 20.455 0.76111 11.702-4.4715 8.8479-7.4209 13.89-8.6577-16.174-3.6153-10.37v-7.9917l1.5222-16.554v-11.988l-0.0951-17.981 0.66598-8.4674z"/>
  <path d="m460.15 429.3 1.3455 0.47092 3.1619 8.0728 1.8836 7.131-0.87455 5.4492-2.6237 10.427-3.0946 14.666-2.96 19.173-2.0855 16.886-1.4128 7.7365-1.8164 3.2964-1.9509-0.60545-1.2782-6.5256-1.4127-11.504-0.33637-9.9565 0.53818-9.0147 2.2873-10.831 4.3055-12.849 2.6909-7.6019 2.4219-10.36 0.53818-9.2838z"/>
  <path d="m569.18 428.62-1.3455 0.47092-3.1619 8.0728-1.8836 7.131 0.87455 5.4492 2.6237 10.427 3.0946 14.666 2.96 19.173 2.0855 16.886 1.4128 7.7365 1.8164 3.2964 1.9509-0.60545 1.2782-6.5256 1.4127-11.504 0.33637-9.9565-0.53818-9.0147-2.2873-10.831-4.3055-12.849-2.6909-7.6019-2.4219-10.36-0.53818-9.2838z"/>
  <path d="m123.18 460.45-1.48 0.80729-2.8255 6.1892-4.3055 12.513-1.5473 11.907-1.2109 19.24-0.2691 8.9474 1.4127-0.53819 4.1037-8.2746 6.2564-14.127 3.1619-10.36 0.47091-8.4092-1.2109-9.4856z"/>
  <path d="m209.25 460.99 1.48 0.80729 2.8255 6.1892 4.3055 12.513 1.5473 11.907 1.2109 19.24 0.2691 8.9474-1.4127-0.53819-4.1037-8.2746-6.2564-14.127-3.1619-10.36-0.47091-8.4092 1.2109-9.4856z"/>
 </g>
</svg>
