<?xml version="1.0" encoding="UTF-8"?>
<svg width="676.81pt" height="614.98pt" version="1.0" viewBox="0 0 676.81 614.98" xmlns="http://www.w3.org/2000/svg" xmlns:cc="http://creativecommons.org/ns#" xmlns:dc="http://purl.org/dc/elements/1.1/" xmlns:osb="http://www.openswatchbook.org/uri/2009/osb" xmlns:rdf="http://www.w3.org/1999/02/22-rdf-syntax-ns#">
 <g fill="#fff" stroke="#000" stroke-width=".75px" id='bodyChest'>
    <path d="m108.71 132.9 1.6146-4.4401 3.2964-4.3055 3.1619-3.3637 5.7855-4.171 4.3728-1.7491 5.4492-1.1436 5.2474 0.60546 3.2291 1.3455 13.051 4.9782-0.33636 0.87455-5.7183 1.0091-9.8892 0.87456-7.2655 1.0091-8.7456 3.7-5.0455 2.6237-5.651 2.4218-2.4891 0.67273z" stroke-width=".75px"/>
    <path d="m225.1 133.24-1.7084-4.4522-3.488-4.3173-3.3457-3.3729-6.1218-4.1824-4.627-1.7539-5.7659-1.1468-5.5524 0.60711-3.4168 1.3492-13.81 4.9918 0.35591 0.87694 6.0506 1.0119 10.464 0.87695 7.6879 1.0119 9.2539 3.7102 5.3388 2.6308 5.9794 2.4285 2.6338 0.67457z" stroke-width=".77254px"/>
    <path d="m110.26 136.4 4.7092-3.1619 5.7855-2.8255 8.4092-3.2291 9.0147-1.8164 6.391-0.47092 11.033-0.40364 3.1619 0.94183 2.2873 35.924-4.7091 3.6328-5.1128 2.22-5.651 1.6146-9.4856-1.0091-14.195-2.6237-5.5164-2.7582-1.8164-3.5655-2.1528-10.36z" stroke-width=".75px"/>
    <path d="m222.16 136.76-4.7092-3.1619-5.7855-2.8255-8.4092-3.2291-9.0147-1.8164-6.391-0.47092-11.033-0.40364-3.1619 0.94183-2.2873 35.924 4.7091 3.6328 5.1128 2.22 5.651 1.6146 9.4856-1.0091 14.195-2.6237 5.5164-2.7582 1.8164-3.5655 2.1528-10.36z" stroke-width=".75px"/>
  </g>
</svg>
