<?xml version="1.0" encoding="UTF-8"?>
<svg width="676.81pt" height="614.98pt" version="1.0" viewBox="0 0 676.81 614.98" xmlns="http://www.w3.org/2000/svg" xmlns:cc="http://creativecommons.org/ns#" xmlns:dc="http://purl.org/dc/elements/1.1/" xmlns:osb="http://www.openswatchbook.org/uri/2009/osb" xmlns:rdf="http://www.w3.org/1999/02/22-rdf-syntax-ns#">
  <g id='bodyGlutes'>
    <path d="m462.59 290.49 0.72224 28.015 0.53819 8.6783 0.53819 3.9019 0.53819 2.5564 6.7274-3.5655 5.5164-1.3455 7.871-0.26909 9.1492-0.94183 7.4001-2.96 5.7855-5.2473 2.5564-9.1492-0.80728-6.3237-1.4128-5.0455-3.0273-7.5346-2.4891-6.1892-1.7491-9.2165-0.26909-7.131-1.1437-3.3637-16.415 8.4092-10.226 6.1219z" fill="#f00" stroke="#000" stroke-width=".75px"/>
    <path d="m566.19 290.29-0.72224 28.015-0.53819 8.6783-0.53819 3.9019-0.53819 2.5564-6.7274-3.5655-5.5164-1.3455-7.871-0.26909-9.1492-0.94183-7.4001-2.96-5.7855-5.2473-2.5564-9.1492 0.80728-6.3237 1.4128-5.0455 3.0273-7.5346 2.4891-6.1892 1.7491-9.2165 0.26909-7.131 1.1437-3.3637 16.415 8.4092 10.226 6.1219z" fill="#f00" stroke="#000" stroke-width=".75px"/>
  </g>
</svg>
