<?xml version="1.0" encoding="UTF-8"?>
<svg width="676.81pt" height="614.98pt" version="1.0" viewBox="0 0 676.81 614.98" xmlns="http://www.w3.org/2000/svg" xmlns:cc="http://creativecommons.org/ns#" xmlns:dc="http://purl.org/dc/elements/1.1/" xmlns:osb="http://www.openswatchbook.org/uri/2009/osb" xmlns:rdf="http://www.w3.org/1999/02/22-rdf-syntax-ns#">
 <g fill="#f00" stroke="#000" id='bodyHamstring'>
  <path d="m498.9 380.73 4.9782-8.0728 3.5655-8.9474 1.1436-4.5073 0.74001-11.302-0.20182-12.58-0.20182-10.966-4.171 3.2291-5.3819 2.5564-6.7274 2.3546-2.3546 1.2782v3.0273l0.47092 4.3055 1.4128 7.7365 2.3546 11.1 1.8837 10.427 1.0091 6.5928 0.67275 3.431z" stroke-width=".75px"/>
  <path d="m529.84 381.34-4.9782-8.1588-3.5655-9.0427-1.1436-4.5554-0.74001-11.422 0.20182-12.714 0.20182-11.082 4.171 3.2635 5.3819 2.5836 6.7274 2.3797 2.3546 1.2918v3.0596l-0.47092 4.3514-1.4128 7.8189-2.3546 11.218-1.8837 10.538-1.0091 6.663-0.67275 3.4675z" stroke-width=".75398px"/>
   <path d="m464.39 338.59 7.2142-4.5562 7.1354-1.5222 2.759 0.85625-1.5222 4.5667-2.759 13.319-1.7125 12.273-1.4271 12.844-1.9028 14.651-2.9493 11.512-5.0424 13.034-5.2326 9.0382-0.9514-13.415 1.4271-15.888 2.9493-23.119 1.4271-17.981v-11.988z"/>
   <path d="m564.69 338.59-7.2142-4.5562-7.1354-1.5222-2.759 0.85625 1.5222 4.5667 2.759 13.319 1.7125 12.273 1.4271 12.844 1.9028 14.651 2.9493 11.512 5.0424 13.034 5.2326 9.0382 0.9514-13.415-1.4271-15.888-2.9493-23.119-1.4271-17.981v-11.988z"/>
   <path d="m541.63 333.65 0.85626-1.5222 1.4271 0.95139 3.3299 8.9431 1.4271 10.56 1.6174 14.366 0.57084 14.842 0.0951 16.84-0.57084 14.556-3.7104 15.317-1.7125 2.6639-1.0465-1.332-7.6111-41.29-0.95139-11.607 1.9979-13.605 3.1396-13.89 0.66598-6.7549 0.0951-7.4209z"/>
   <path d="m487.49 334.22-0.85626-1.5222-1.4271 0.95139-3.3299 8.9431-1.4271 10.56-1.6174 14.366-0.57084 14.842-0.0951 16.84 0.57084 14.556 3.7104 15.317 1.7125 2.6639 1.0465-1.332 7.6111-41.29 0.95139-11.607-1.9979-13.605-3.1396-13.89-0.66598-6.7549-0.0951-7.4209z"/>
 </g>
</svg>
