<?xml version="1.0" encoding="UTF-8"?>
<!-- Created with Inkscape (http://www.inkscape.org/) -->
<svg width="46.17mm" height="61.804mm" version="1.1" viewBox="0 0 46.17 61.804" xmlns="http://www.w3.org/2000/svg" xmlns:cc="http://creativecommons.org/ns#" xmlns:dc="http://purl.org/dc/elements/1.1/" xmlns:rdf="http://www.w3.org/1999/02/22-rdf-syntax-ns#">
 <g transform="translate(-66.183 -129.26)" stroke="#000" stroke-width=".1475px">
  <path d="m72.412 163.55v1.3412l-0.61555 1.9543-0.65176 1.9543-0.54314 1.2646s-0.0362 3.2188-0.0724 3.4104-0.10863 1.6094-0.0724 1.7627c0.0362 0.15328 0.28967 1.9543 0.28967 1.9543l0.94143 2.9506 1.1225 2.2992 1.3035 2.4524 1.4846 1.9926 2.5346 1.916 3.4036 1.2646 4.2002 0.61311 5.5762 0.30656 5.6124-0.42152 4.4537-2.2992 1.8466-1.916 2.1363-3.1805 1.7018-3.3721 0.72418-4.1768 0.10862-3.5637-0.39829-2.3758-0.76039-2.5291-0.65176-1.9543-0.14483-1.6861s2.2812-2.759 2.3174-2.9123 2.2812-4.3301 2.2812-4.3301l0.97764-3.3721 0.76039-3.4871-0.28968-2.9506-0.68796-4.8283-1.7018-3.5637-2.245-2.9123-2.1363-1.916-3.7295-1.916-5.5762-1.2262-5.6848-0.76639-5.8658 0.30656-5.902 0.99631-2.5708 1.073-3.6209 1.8776-2.7519 2.4141-2.1725 3.7553-1.0863 4.2918 0.0724 4.2535 0.14484 3.832 0.65175 2.1459 1.3759 3.4488 1.6294 2.644 1.7018 2.2992z"/>
  <path d="m75.707 141.78-0.72418 1.5711-0.68797 3.717 0.32588 3.1422 0.97764 2.4524 1.1587 1.3412 1.6656 1.7244 1.1225 0.45984 1.6294-0.34488 2.6795-0.91967 2.2087-0.53647 3.0053-0.0383h2.426l2.3898 0.3832 2.3536 0.61311 1.6294 0.65143 1.1225 0.11496 1.1225-0.76639 1.3759-1.2645 0.90523-3.0272 0.86901-2.4525 0.57934-2.4908-0.57934-3.2572-1.6656-2.2225-2.5346-1.1879-3.6571-0.95799-2.7881-0.26824-2.8605-0.30656-3.8381 0.15328-3.9468 0.42152-2.8605 0.91967-1.8829 1.1113z" fill="#fff"/>
 </g>
</svg>
