<?xml version="1.0" encoding="UTF-8"?>
<svg width="676.81pt" height="614.98pt" version="1.0" viewBox="0 0 676.81 614.98" xmlns="http://www.w3.org/2000/svg" xmlns:cc="http://creativecommons.org/ns#" xmlns:dc="http://purl.org/dc/elements/1.1/" xmlns:osb="http://www.openswatchbook.org/uri/2009/osb" xmlns:rdf="http://www.w3.org/1999/02/22-rdf-syntax-ns#">
  <g id='bodyLats'>
    <path d="m460.99 155.09 14.162-0.46323 14.397 0.60546 1.5473 1.4128 0.53819 1.2782 4.2382 5.1801 10.966 13.253-0.47091 15.607-0.74001 10.226-1.1436 10.764-1.4128 10.966-1.1436 8.4092-1.6146 10.293-0.94183 2.3546-7.4674-4.8437-5.0455-4.911-5.3819-6.6601-4.7764-6.7274-1.2109-3.6328-2.22-12.513-0.74001-7.3328-3.4982-12.984-4.2382-13.051-2.6237-8.9474-2.0182-7.9383z" fill="#f00" stroke="#000" stroke-width=".75px"/>
    <path d="m569.24 155.05-14.997-0.46323-15.245 0.60546-1.6385 1.4128-0.56992 1.2782-4.4881 5.1801-11.612 13.253 0.49868 15.607 0.78363 10.226 1.2111 10.764 1.496 10.966 1.2111 8.4092 1.7098 10.293 0.99736 2.3546 7.9076-4.8437 5.343-4.911 5.6992-6.6601 5.058-6.7274 1.2823-3.6328 2.3509-12.513 0.78364-7.3328 3.7045-12.984 4.4881-13.051 2.7784-8.9474 2.1372-7.9383z" fill="#f00" stroke="#000" stroke-width=".77179px"/>
  </g>
</svg>
