<?xml version="1.0" encoding="UTF-8"?>
<svg width="570.5pt" height="634.37pt" version="1.0" viewBox="0 0 570.5 634.37" xmlns="http://www.w3.org/2000/svg" xmlns:cc="http://creativecommons.org/ns#" xmlns:dc="http://purl.org/dc/elements/1.1/" xmlns:osb="http://www.openswatchbook.org/uri/2009/osb" xmlns:rdf="http://www.w3.org/1999/02/22-rdf-syntax-ns#" xmlns:xlink="http://www.w3.org/1999/xlink">
 <defs>
  <linearGradient id="linearGradient2648" x1="176.76" x2="5881.8" y1="3051.9" y2="3051.9" gradientUnits="userSpaceOnUse">
   <stop stop-color="#fff" offset="0"/>
  </linearGradient>
 </defs>
 <metadata>Created by potrace 1.15, written by Peter Selinger 2001-2017
  <rdf:RDF>
   <cc:Work rdf:about="">
    <dc:format>image/svg+xml</dc:format>
    <dc:type rdf:resource="http://purl.org/dc/dcmitype/StillImage"/>
    <dc:title/>
   </cc:Work>
  </rdf:RDF>
 </metadata>
 <g transform="matrix(.1 0 0 -.1 -17.676 622.37)" stroke="#000">
  <path d="m2159.3 6167.5c-185-35-266-82-350-205-187-275-193-685-12-867 123-123 270-133 666-47 415 90 492 55 632-286 29-70 212-580 249-695 13-39 28-81 34-95s33-86 60-160c87-238 166-422 268-624 30-59 53-110 51-112s-66 1-142 6c-292 18-605-27-846-122-89-35-268-128-314-163-18-14-36-25-39-25s-33 35-66 78c-113 150-289 295-459 381-84 42-215 86-319 107-120 24-375 25-493 1-334-67-617-255-817-540l-43-62v-2815h305c202 0 305 3 305 10 0 6 28 58 61 116 58 98 65 106 116 129 29 14 56 25 58 25 3 0 49 24 102 54 158 87 318 199 476 331 119 99 354 333 458 456l98 117 121-38c110-35 195-54 410-92 100-17 602-17 725 0 360 51 642 118 934 221 79 28 157 58 175 65 17 8 81 37 143 65 192 85 387 196 571 323 132 90 320 271 407 390 89 120 155 286 155 389 0 63-10 85-64 152-25 31-48 69-52 84-24 105-158 475-200 553-7 14-41 81-74 149-173 351-354 615-665 966-39 44-89 100-110 125-84 97-508 512-645 630-284 246-414 340-564 411-78 36-83 41-95 81-48 159-138 245-396 376-272 137-593 200-815 157z" fill="url(#linearGradient2648)" stroke-linejoin="round" stroke-width="85.039"/>
  <path d="m3390.1 2174 8.2175-1594.2 342.4 353.35 254.74-684.79 194.48 76.697-268.44 682.05 495.79-46.566z" fill="#fff" stroke-width="70.866"/>
 </g>
</svg>
