<?xml version="1.0" encoding="UTF-8"?>
<svg width="286.89pt" height="287.66pt" version="1.0" viewBox="0 0 286.89 287.66" xmlns="http://www.w3.org/2000/svg" xmlns:cc="http://creativecommons.org/ns#" xmlns:dc="http://purl.org/dc/elements/1.1/" xmlns:rdf="http://www.w3.org/1999/02/22-rdf-syntax-ns#">
 <metadata>Created by potrace 1.15, written by Peter Selinger 2001-2017
  <rdf:RDF>
   <cc:Work rdf:about="">
    <dc:format>image/svg+xml</dc:format>
    <dc:type rdf:resource="http://purl.org/dc/dcmitype/StillImage"/>
    <dc:title/>
   </cc:Work>
  </rdf:RDF>
 </metadata>
 <g transform="matrix(.1 0 0 -.1 -43.157 326.91)">
  <path d="m1525 3263c-224-31-409.23-116.91-478.94-221.91-228.55-169.51-96.899-69.592-333.06-344.09 2-6-6-20-17-32-12-13-36-54-55-91-19-38-55-112-82-164-69-139-95-215-115-337-21-134-15-307 15-438 12-49 28-121 36-160 9-38 18-77 22-85 3-8 16-51 28-95 13-47 26-79 33-77 7 1 12-9 12-24 0-28 29-84 43-84 4 0 6-4 2-10-3-5 3-18 15-30 11-11 20-27 20-35s6-15 14-15c9 0 12-7 9-19-3-10 1-22 8-26 8-6 10-4 4 5-5 9-4 11 3 6 7-4 12-14 12-22s4-14 8-14c5 0 28-30 52-67 130-201 307-309 649-397 157-40 327-70 491-87 99-10 131-9 225 6 282 44 502 159 715 374 95 96 156 179 222 301 19 36 48 90 66 120 17 30 45 91 62 135 101 264 117 522 50 830-11 50-29 133-40 185-41 189-164 399-326 555-69 67-82 77-150 117-299 174-607 250-1009 247-99-1-193-4-210-6zm517-258c150-20 284-54 394-101 49-21 94-42 100-46 14-10 4-71-19-115-23-43-76-103-91-103-7 0-28 12-47 26-52 40-235 125-314 146-96 25-267 33-394 19-73-9-107-9-114-2-6 6-13 37-15 70-4 56-3 60 23 77 63 41 284 55 477 29zm-350-835c52-15 96-55 109-99 10-32 8-45-9-84-13-30-31-51-52-62l-31-16 26-30c31-37 39-69 31-117-18-111-151-162-259-99-101 60-102 199-2 258l34 20-26 37c-43 64-17 146 58 184 39 21 68 22 121 8zm-305-595c-4-25-4-45-1-45s26 16 51 35c43 33 73 44 73 28-1-5-21-23-45-41-25-18-45-37-45-43 0-5 14-37 31-70 26-52 28-60 12-57-10 2-32 30-50 63l-32 60-10-28c-6-16-11-37-11-47 0-20-17-36-27-26-4 3 2 53 12 111 13 79 22 105 33 105 12 0 13-9 9-45zm294-18c19-12 26-37 12-37-5 1-19 7-33 15-40 23-76 18-99-11-27-34-29-104-3-127 21-19 82-34 82-21 0 5 3 19 6 30 4 17 0 23-20 28-41 10-32 30 10 23 20-3 39-8 42-11s1-25-4-48c-9-43-9-43-56-46-39-3-51 1-79 26s-31 34-31 77c2 101 91 153 173 102zm-439-625c157-71 350-122 458-121 78 0 198 20 260 44 79 30 111 30 151-2 20-15 51-48 68-73 29-41 30-46 15-57-36-26-131-38-314-38-200 0-263 8-430 56-176 51-277 117-323 212-21 42-12 52 23 27 15-11 57-33 92-48z"/>
  <path d="m1610 2117c-31-15-53-60-45-87 8-24 62-78 87-86 43-13 95 60 83 117-11 49-79 80-125 56z"/>
  <path d="m1540 1882c-74-75-33-192 67-192 61 0 107 71 83 129-11 28-87 91-110 91-6 0-24-13-40-28z"/>
 </g>
 <path d="m53.846 76.088 1.94 1.3858" fill="none" stroke="#000" stroke-width=".75px"/>
</svg>
