<?xml version="1.0" encoding="UTF-8"?>
<svg width="145.12mm" height="32.159mm" version="1.1" viewBox="0 0 145.12 32.159" xmlns="http://www.w3.org/2000/svg" xmlns:cc="http://creativecommons.org/ns#" xmlns:dc="http://purl.org/dc/elements/1.1/" xmlns:rdf="http://www.w3.org/1999/02/22-rdf-syntax-ns#">
 <g transform="translate(-28.866 -67.784)" stroke="#000" stroke-width=".26458px">
  <path d="m28.999 74.498v4.009l144.86-2.2718v-4.2763z"/>
  <g fill="#e9c6af">
   <path d="m61.484 99.889 1.0337-5.758 1.0867-2.9293 0.94494-3.1183 0.14174-2.9293-0.04725-1.6536-0.51972-1.2284-0.33073-0.51972-0.28348-0.7087-0.23623-1.8426 2.0789-0.66146 0.8032-0.09449 1.4174 0.18899 0.85044 0.66146 0.8032 0.09449 1.6064-0.47247 1.7954-1.0867 0.99219-0.51972 1.7009-0.37798 1.2757-0.89769 0.42522-1.8899 1.2284-2.1261 1.1339-1.3229 1.4647-0.70871 0.94494-0.18899 0.7087 0.33073 0.23624 0.7087-0.18899 0.61421-0.47247 0.51972-0.75595 0.37798-0.33073 0.51972-0.33073 0.85045-0.18899 1.3702-0.33073 2.6931-0.37798 2.1261-0.99219 1.6536-1.2284 1.2284-1.5592 1.1339-0.94494 1.0867-0.85044 1.2757-0.85045 2.2206-0.23624 2.5041-0.09449 6.2839-0.18899 2.6897z"/>
   <path d="m65.772 72.121-0.13649 0.39444 0.21261 0.25986-0.04725 1.0158-0.02363 0.87407 0.11812 0.87407 0.33073 0.68508 0.37798 0.14174 0.66146 0.14174 0.87407-0.16536 0.35435-0.4016 0.02363-0.77957-0.18899-0.94494-0.07087-1.2757v-0.68508l0.11812-0.07087 0.21261 2.7876-0.04725 0.99219-0.07087 1.1103 0.11812 0.94494 0.42522 0.3071 0.56696 0.07087 1.0158-0.21261 0.3071-0.37798 0.28348-0.51972v-0.66146l-0.07087-0.59059 0.0945-1.5355-0.16536-1.0394 0.07087-0.59059 0.02363-0.49609 0.09449-0.61421h0.0945l0.02363 0.21261-0.04725 0.37798v0.56696l-0.04725 0.75595v0.54334l-0.04725 0.66146-0.02363 0.61421 0.02363 0.77957 0.14174 0.59059 0.30711 0.56696 0.63783 0.16536 0.4016-0.09449 0.6024-0.27758 0.25395-0.24805 0.1004-0.33073 0.21791-1.8834 0.13364-0.73499 0.06682-0.96885 0.16704-1.1025 0.13364 0.06681-0.10023 0.73499-0.06682 0.73499-0.16704 1.2695v1.0023l-0.06682 0.70158 0.15034 0.25892 0.24221 0.09187 0.3842-0.01669 0.33409-0.10023 0.53454-0.23386 0.30068-0.27562 0.3675-0.48443 0.1921-1.4282 0.25057-1.1693 0.28397-0.73499 0.33409-0.85192-0.95215-0.88533-0.91874-0.15034h-0.85192l-0.11693 0.73499-0.20045 0.08352-0.03341-0.35079v-0.30068l-0.13364-0.20045-0.31738-0.15034-0.41761-0.06682-0.55124-0.01669-0.48443 0.08352-0.60136 0.16704-0.26727 0.20045-0.03341 0.28397-0.55124-0.25056-0.3675-0.13364-0.35079-0.01669-0.45102-0.01669-0.43431 0.06682-0.3675 0.16704-0.30068 0.21716-0.16704 0.20045-0.35079-0.13364-0.28398-0.13363-0.45102 0.05011-0.73499 0.33409-0.56795 0.43431z"/>
   <path d="m138.17 99.8-1.1005-5.9584-1.0867-2.9293-0.94494-3.1183-0.14174-2.9293 0.0472-1.6536 0.51972-1.2284 0.33073-0.51972 0.28348-0.7087 0.23624-1.8426-2.0789-0.66146-0.8032-0.09449-1.4174 0.18899-0.85045 0.66146-0.8032 0.09449-1.6064-0.47247-1.7954-1.0867-0.99218-0.51972-1.7009-0.37798-1.2757-0.89769-0.42522-1.8899-1.2284-2.1261-1.1339-1.3229-1.4647-0.70871-0.94494-0.18899-0.7087 0.33073-0.23624 0.7087 0.18899 0.61421 0.47247 0.51972 0.75595 0.37798 0.33073 0.51972 0.33073 0.85045 0.18899 1.3702 0.33073 2.6931 0.37797 2.1261 0.99219 1.6536 1.2284 1.2284 1.5592 1.1339 0.94494 1.0867 0.85044 1.2757 0.85045 2.2206 0.23624 2.5041 0.0945 6.2839 0.15557 2.8234z"/>
   <path d="m133.82 71.832 0.13649 0.39444-0.21261 0.25986 0.0472 1.0158 0.0236 0.87407-0.11812 0.87407-0.33073 0.68508-0.37797 0.14174-0.66146 0.14174-0.87407-0.16536-0.35435-0.4016-0.0236-0.77958 0.18898-0.94494 0.0709-1.2757v-0.68508l-0.11811-0.07087-0.21261 2.7876 0.0473 0.99219 0.0709 1.1103-0.11812 0.94494-0.42523 0.3071-0.56696 0.07087-1.0158-0.21261-0.30711-0.37798-0.28348-0.51972v-0.66146l0.0709-0.59059-0.0945-1.5355 0.16536-1.0394-0.0709-0.59059-0.0236-0.49609-0.0945-0.61421h-0.0945l-0.0236 0.21261 0.0472 0.37798v0.56696l0.0472 0.75595v0.54334l0.0473 0.66146 0.0236 0.61421-0.0236 0.77957-0.14174 0.59059-0.3071 0.56696-0.63784 0.16536-0.4016-0.09449-0.6024-0.27758-0.25395-0.24805-0.1004-0.33073-0.21791-1.8834-0.13364-0.73499-0.0668-0.96885-0.16704-1.1025-0.13364 0.06681 0.10023 0.73499 0.0668 0.73499 0.16704 1.2695v1.0023l0.0668 0.70158-0.15034 0.25892-0.24221 0.09187-0.3842-0.01669-0.33409-0.10023-0.53454-0.23386-0.30067-0.27562-0.3675-0.48443-0.1921-1.4282-0.25057-1.1693-0.28397-0.73499-0.33408-0.85192 0.95214-0.88533 0.91874-0.15034h0.85192l0.11693 0.73499 0.20046 0.08352 0.0334-0.35079v-0.30068l0.13363-0.20045 0.31738-0.15034 0.41761-0.06682 0.55125-0.01669 0.48442 0.08352 0.60136 0.16704 0.26727 0.20045 0.0334 0.28397 0.55124-0.25056 0.3675-0.13364 0.35079-0.01669 0.45101-0.01669 0.43432 0.06682 0.36749 0.16704 0.30068 0.21716 0.16704 0.20045 0.3508-0.13364 0.28397-0.13363 0.45102 0.05011 0.73499 0.33409 0.56795 0.43431z"/>
  </g>
 </g>
</svg>
