<?xml version="1.0" encoding="UTF-8"?>
<svg width="676.81pt" height="614.98pt" version="1.0" viewBox="0 0 676.81 614.98" xmlns="http://www.w3.org/2000/svg" xmlns:cc="http://creativecommons.org/ns#" xmlns:dc="http://purl.org/dc/elements/1.1/" xmlns:osb="http://www.openswatchbook.org/uri/2009/osb" xmlns:rdf="http://www.w3.org/1999/02/22-rdf-syntax-ns#">
 <g fill="#f00" stroke="#000" stroke-width=".75px" id='bodyObliques'>
  <path d="m128.39 185.19 2.8066-2.6639 2.2833-1.2368 0.66597 0.23785-0.57083 3.5677-0.85625 2.0455-1.4747 0.1427-2.3785-0.61841-0.80869-0.6184z"/>
  <path d="m124.06 189.14-1.1892 2.7115-0.33298 2.2834 1.5222 2.8066 2.8542 2.7115 5.8035 4.2337 0.66597-3.6629 0.42813-3.5677-1.1892-2.9018-1.9028-2.4736-3.1396-2.5688-2.2358-0.80869z"/>
  <path d="m203.76 185.33-2.8066-2.6639-2.2833-1.2368-0.66597 0.23785 0.57083 3.5677 0.85625 2.0455 1.4747 0.1427 2.3785-0.61841 0.80869-0.6184z"/>
  <path d="m208.08 189.28 1.1892 2.7115 0.33298 2.2834-1.5222 2.8066-2.8542 2.7115-5.8035 4.2337-0.66597-3.6629-0.42813-3.5677 1.1892-2.9018 1.9028-2.4736 3.1396-2.5688 2.2358-0.80869z"/>
  <path d="m199.8 208.88-0.16818 3.9691-0.0336 5.5501 0.37001 0.33636 5.7855-4.5746 2.5564-2.3882 1.2109-2.3546 0.97548-2.6237 0.47091-3.061 0.33636-3.4982-0.23545-0.74001-1.1773 0.30273-2.0182 1.6482-5.1128 3.8682-2.59 2.4555z"/>
  <path d="m199.84 223.31-2.4218 3.4646-0.90819 3.0946-0.20182 1.3118 0.6391 0.77365 1.1773 0.10091 2.4891-0.84092 3.1619-1.9173 3.0273-2.1191 2.0518-2.3546 1.11-2.6909 0.43728-2.2537-0.16819-2.22-0.47091-1.8164-0.50455-0.10091-1.7155 0.67274-3.0946 2.3209-2.7582 2.3546z"/>
  <path d="m133.28 209.87 0.16818 3.9691 0.0336 5.5501-0.37001 0.33636-5.7855-4.5746-2.5564-2.3882-1.2109-2.3546-0.97548-2.6237-0.47091-3.061-0.33636-3.4982 0.23545-0.74001 1.1773 0.30273 2.0182 1.6482 5.1128 3.8682 2.59 2.4555z"/>
  <path d="m133.25 224.3 2.4218 3.4646 0.90819 3.0946 0.20182 1.3118-0.6391 0.77365-1.1773 0.10091-2.4891-0.84092-3.1619-1.9173-3.0273-2.1191-2.0518-2.3546-1.11-2.6909-0.43728-2.2537 0.16819-2.22 0.47091-1.8164 0.50455-0.10091 1.7155 0.67274 3.0946 2.3209 2.7582 2.3546z"/>
  <path d="m123.25 230.05-0.90382 1.0465-1.3795 3.758-1.2844 8.3722-0.4757 9.8945 0.42813 6.1365 1.4271 3.092 2.4974 1.6174 3.425 0.52327 4.424-0.57083 3.9958-1.7363s1.9741-2.4974 1.9741-2.5925c0-0.0951 0.0476-4.1623 0.0476-4.1623l-0.97518-5.6608-1.5698-4.3288-2.4023-4.8283-2.7353-3.758-4.2575-4.757z"/>
  <path d="m209.19 229.79 0.90382 1.0465 1.3795 3.758 1.2844 8.3722 0.4757 9.8945-0.42813 6.1365-1.4271 3.092-2.4974 1.6174-3.425 0.52327-4.424-0.57083-3.9958-1.7363s-1.9741-2.4974-1.9741-2.5925c0-0.0951-0.0476-4.1623-0.0476-4.1623l0.97518-5.6608 1.5698-4.3288 2.4023-4.8283 2.7353-3.758 4.2575-4.757z"/>
 </g>
</svg>
