<?xml version="1.0" encoding="UTF-8"?>
<!-- Created with Inkscape (http://www.inkscape.org/) -->
<svg width="110.54mm" height="110.54mm" version="1.1" viewBox="0 0 110.54 110.54" xmlns="http://www.w3.org/2000/svg" xmlns:cc="http://creativecommons.org/ns#" xmlns:dc="http://purl.org/dc/elements/1.1/" xmlns:rdf="http://www.w3.org/1999/02/22-rdf-syntax-ns#">
 <metadata>
  <rdf:RDF>
   <cc:Work rdf:about="">
    <dc:format>image/svg+xml</dc:format>
    <dc:type rdf:resource="http://purl.org/dc/dcmitype/StillImage"/>
    <dc:title/>
   </cc:Work>
  </rdf:RDF>
 </metadata>
 <g transform="translate(-19.793 -25.474)" stroke="#000">
  <circle cx="75.065" cy="80.746" r="54.022" stroke-linejoin="round" stroke-width="2.5"/>
  <g fill="#fff" stroke-width="1.265">
   <path d="m30.238 87.081 3.7798-2.7876 0.61421-0.09449h0.75595l12.946 7.4178 1.9844 1.7009 1.0394 1.2757 0.99219 1.7009 0.89769 3.1183 1.7481 14.363-0.07087 0.94494-0.49609 0.49609-4.0396 2.7876-0.75595 0.0945-1.4883-0.87407-7.1107-6.2602-5.4098-7.1343-3.3309-6.591-2.3151-6.4256-0.68508-2.9057 0.44884-0.61421z"/>
   <path d="m91.408 39.873 0.29794 4.687-0.25302 0.5676-0.40919 0.63563-13.245 6.87-2.5043 0.74785-1.6353 0.18348-1.9672-0.08641-3.1079-0.9331-13.023-6.3047-0.75618-0.57108-0.1486-0.68566-0.15728-4.9055 0.32973-0.68678 1.5405-0.77827 9.1128-2.5903 8.927-0.687 7.3449 0.76688 6.656 1.5315 2.814 0.99679 0.2735 0.70987z"/>
   <path d="m101.36 113.51-4.2039-2.0939-0.36404-0.50365-0.15073-0.29439-0.1938-0.37848 0.70256-14.904 0.60959-2.5415 0.66175-1.5066 1.0618-1.6583 2.3665-2.2202 11.988-8.1021 0.87341-0.36755 0.66766 0.21549 4.3223 2.3252 0.42865 0.62981-0.0998 1.7231-2.3316 9.1824-3.8847 8.0668-4.3486 5.9687-4.6643 4.9892-2.2742 1.9341-0.75127-0.11959z"/>
  </g>
 </g>
</svg>
