<?xml version="1.0" encoding="UTF-8"?>
<svg width="676.81pt" height="614.98pt" version="1.0" viewBox="0 0 676.81 614.98" xmlns="http://www.w3.org/2000/svg" xmlns:cc="http://creativecommons.org/ns#" xmlns:dc="http://purl.org/dc/elements/1.1/" xmlns:osb="http://www.openswatchbook.org/uri/2009/osb" xmlns:rdf="http://www.w3.org/1999/02/22-rdf-syntax-ns#">
 <g fill="#f00" stroke="#000" id='bodyQuads'>
  <path d="m115.88 268.48-2.6639 5.8986-1.9028 8.5625-1.1417 12.368-0.76112 21.501 1.5222 21.882 2.0931 16.554 3.6153 26.068 2.6639 10.465 3.0445-0.19028 3.425-5.5181 4.5667-17.506 2.2833-12.558-0.19028-11.226-1.7125-15.222-4.757-23.214-3.0445-11.226-3.8056-12.749-1.7125-11.607z"/>
  <path d="m216.73 268.67 2.6639 5.8986 1.9028 8.5625 1.1417 12.368 0.76112 21.501-1.5222 21.882-2.0931 16.554-3.6153 26.068-2.6639 10.465-3.0445-0.19028-3.425-5.5181-4.5667-17.506-2.2833-12.558 0.19028-11.226 1.7125-15.222 4.757-23.214 3.0445-11.226 3.8056-12.749 1.7125-11.607z"/>
  <path d="m227.19 323.57 1.2368 3.2347 0.66597 16.174-0.38055 16.079-0.57084 12.368-0.28542 14.937 0.28542 12.178 0.19029 4.9472 0.57083 4.4716-0.19028 1.9979-2.6639-0.47569-2.4736-2.9493-3.2347-8.5625-1.332-8.848 0.38056-8.0868 1.4271-8.3723 1.4271-10.465 1.6174-15.698 1.5222-15.413 0.85626-6.5646z"/>
  <path d="m105.51 322.14-1.2365 3.2524-0.66581 16.262 0.38046 16.166 0.5707 12.436 0.28536 15.019-0.28536 12.244-0.19024 4.9743-0.57069 4.496 0.19023 2.0088 2.6633-0.47829 2.473-2.9654 3.234-8.6093 1.3316-8.8963-0.38047-8.131-1.4267-8.418-1.4267-10.523-1.617-15.784-1.5218-15.497-0.85605-6.6005z" stroke-width=".75196px"/>
  <path d="m209.83 271.14 2.0182-0.53818 1.2109 0.67273 0.0673 2.2873-1.6146 6.8619-3.9691 12.984-4.5746 14.733-2.4218 8.611-1.4128 6.7946-1.1436 5.9874-1.1436 10.696-0.87456 11.84-0.47092 10.831-0.87455 21.124-0.80729 14.195-1.0764 1.7491-1.48-1.3455-0.94182-5.0455-0.80729-6.4583-0.40364-9.7547-0.47091-6.391-0.33638-4.911-0.67273-2.6237-0.74001-2.8255 0.0673-3.3637 1.6818-9.6874 1.9509-10.226 3.7-14.262 4.5073-18.635 4.3055-16.684 3.9019-12.715 1.6146-2.8255z"/>
  <path d="m123.1 270.07-2.0182-0.53818-1.2109 0.67273-0.0673 2.2873 1.6146 6.8619 3.9691 12.984 4.5746 14.733 2.4218 8.611 1.4128 6.7946 1.1436 5.9874 1.1436 10.696 0.87456 11.84 0.47092 10.831 0.87455 21.124 0.80729 14.195 1.0764 1.7491 1.48-1.3455 0.94182-5.0455 0.80729-6.4583 0.40364-9.7547 0.47091-6.391 0.33638-4.911 0.67273-2.6237 0.74001-2.8255-0.0673-3.3637-1.6818-9.6874-1.9509-10.226-3.7-14.262-4.5073-18.635-4.3055-16.684-3.9019-12.715-1.6146-2.8255z"/>
  <path d="m133.67 368.76 1.3455 33.368 0.0673 10.427-1.4128 4.7091-4.5073-5.4492-1.6146-3.3637-0.13455-7.1983 0.47092-6.9964 1.1436-7.7365 2.22-8.9474 1.2782-6.7274z"/>
  <path d="m199.19 369.99-1.3455 33.368-0.0673 10.427 1.4128 4.7091 4.5073-5.4492 1.6146-3.3637 0.13455-7.1983-0.47092-6.9964-1.1436-7.7365-2.22-8.9474-1.2782-6.7274z"/>
 </g>
</svg>
