<?xml version="1.0" encoding="UTF-8"?>
<svg width="676.81pt" height="614.98pt" version="1.0" viewBox="0 0 676.81 614.98" xmlns="http://www.w3.org/2000/svg" xmlns:cc="http://creativecommons.org/ns#" xmlns:dc="http://purl.org/dc/elements/1.1/" xmlns:osb="http://www.openswatchbook.org/uri/2009/osb" xmlns:rdf="http://www.w3.org/1999/02/22-rdf-syntax-ns#">
 <g fill="#f00" stroke="#000" id='bodyShoulders'>
  <path d="m432.19 142.99-1.4006-17.406 0.42813-6.7549 3.092-6.3743 5.3754-4.8521 3.2347-1.9028 7.0403-2.8542 5.9938-1.5698 5.3278-0.42813 3.5677 0.9514 3.1396 1.7125 2.8066 1.9504 0.57083 1.4746-0.6184 1.5222-3.5202 2.3309-4.424 2.8066-4.9948 3.1872-1.8076 1.5698-1.7601 2.7115-2.2358 4.3288-3.3299 4.4715-4.3288 4.6142-3.3774 2.8066z" stroke-width=".75px"/>
  <path d="m596.69 142.99 1.4309-17.406-0.43739-6.7549-3.1589-6.3743-5.4917-4.8521-3.3047-1.9028-7.1926-2.8542-6.1234-1.5698-5.4431-0.42813-3.6449 0.9514-3.2075 1.7125-2.8673 1.9504-0.58318 1.4746 0.63179 1.5222 3.5963 2.3309 4.5197 2.8066 5.1029 3.1872 1.8468 1.5698 1.7982 2.7115 2.2841 4.3288 3.4019 4.4715 4.4225 4.6142 3.4505 2.8066z" stroke-width=".75807px"/>
  <path d="m100.91 113.19-3.5655 5.3146-3.5655 4.9782-2.96 5.9201-2.3546 7.7365-1.1437 8.2074-0.94184 9.2165-1.2109 4.911-0.60547-0.13455-0.53818-8.2074 0.20182-11.235 0.67274-11.302 1.9509-4.2382 3.4982-4.6419 3.7-3.431 3.7673-2.6237 2.96-1.0764z" stroke-width=".75px"/>
  <path d="m227.07 112.35 4.613 5.3204 4.613 4.9836 3.8297 5.9265 3.0463 7.7449 1.4796 8.2163 1.2185 9.2265 1.5667 4.9163 0.78335-0.1347 0.69629-8.2163-0.2611-11.247-0.8704-11.314-2.5241-4.2429-4.5259-4.6469-4.7871-3.4347-4.8741-2.6265-3.8296-1.0775z" stroke-width=".85355px"/>
  <path d="m208.49 112.09 5.9528-0.11113 7.849 0.71355 3.6629 1.3795 2.9017 2.4261 4.8997 5.3278 3.6629 5.2327 2.0931 4.757 0.99896 3.3299 1.1417 5.0424 0.52327 5.6608 0.42812 7.1354-3.5201-2.4736-5.4705-4.7094-3.6629-3.9958-2.6639-5.8511-0.90383-4.5667-1.2844-3.1872-5.1851-7.0879-5.5181-4.8997z" stroke-width=".75px"/>
  <path d="m124.39 112.19-6.106-0.0214-8.0509 0.83137-3.7571 1.4338-2.9764 2.4683-5.0257 5.3983-3.7571 5.2846-2.1469 4.7855-1.0247 3.3428-1.171 5.0564-0.53674 5.6651-0.43913 7.1374 3.6107-2.5251 5.6112-4.7889 3.7571-4.0486 2.7324-5.8876 0.92708-4.5774 1.3174-3.2045 5.3185-7.1616 5.66-4.9797z" stroke-width=".75935px"/>
 </g>
</svg>
