<?xml version="1.0" encoding="UTF-8"?>
<svg width="676.81pt" height="614.98pt" version="1.0" viewBox="0 0 676.81 614.98" xmlns="http://www.w3.org/2000/svg" xmlns:cc="http://creativecommons.org/ns#" xmlns:dc="http://purl.org/dc/elements/1.1/" xmlns:osb="http://www.openswatchbook.org/uri/2009/osb" xmlns:rdf="http://www.w3.org/1999/02/22-rdf-syntax-ns#">
 <g fill="#f00" stroke="#000" id='bodyTraps'>
  <path d="m146.39 92.39-8.1182 6.0214-5.1099 4.092-2.5855 2.0969-1.2215 1.3233-0.44788 0.73289 0.0611 0.48859 0.26466 0.40717 0.50895 0.26465 2.2598 0.28502 3.2777-0.18323 3.6848-0.54966 3.1962-0.91612 2.3616-1.0993 1.6897-1.5065 1.7915-2.6466 0.54968-2.0562 0.10179-1.2011-0.44789-1.7508-0.81432-1.8526z" stroke-width=".75px"/>
  <path d="m185.87 91.612 11.401 9.2426 3.8681 2.9316 2.0522 1.504 2.7524 1.1426-3.0944 1.4658-3.298 0.28501-3.2166-0.28501-4.9267-0.89576-3.4202-1.5065-1.7101-1.3844-1.3436-1.5472-1.0993-2.7687 0.28502-3.298 0.61074-2.4023 0.77361-1.7915z" stroke-width=".75px"/>
  <path d="m480.79 92.59 8.7826 1.0984 5.2524 0.81433 3.3388 0.73289 2.8909 1.2622 3.8273 1.0179-0.0407-2.5651-0.77361-2.8094-0.0814-3.6238 0.12215-3.4202 0.65147-3.9088 1.3029-6.7996 0.93647-5.5374 0.32573-5.6189-0.73289-2.158-0.93648-1.4658-2.1172-1.5472-1.0179-0.36645-0.44787 0.85504-0.32574 3.2573-0.12215 4.4788-0.0814 4.1124-1.4251 3.3795-2.443 3.3795-8.8762 9.3648-7.4918 5.5374z" stroke-width=".75px"/>
  <path d="m526.34 57.899 0.61075 2.0358 0.28502 2.8909v3.298l0.12215 3.0537 1.2215 4.0309 1.1808 2.2801 1.0994 1.3844 5.9039 6.6775 5.7817 4.8045 2.8502 1.8322 3.5016 2.443 1.2215 0.61074-3.7052 0.04073-8.2247 0.61075-5.2931 0.93647-5.9039 1.8322-2.8501 0.93647 0.40716-3.3795 0.81432-4.6824-0.52931-5.0081-1.5065-6.6368-0.81433-7.1661-0.12215-4.4381 0.16286-2.7687 0.44788-2.6058 0.77361-1.5472 0.61075-1.1401 1.2622-0.40716z" stroke-width=".75px"/>
 </g>
</svg>
