<?xml version="1.0" encoding="UTF-8"?>
<svg width="676.81pt" height="614.98pt" version="1.0" viewBox="0 0 676.81 614.98" xmlns="http://www.w3.org/2000/svg" xmlns:cc="http://creativecommons.org/ns#" xmlns:dc="http://purl.org/dc/elements/1.1/" xmlns:osb="http://www.openswatchbook.org/uri/2009/osb" xmlns:rdf="http://www.w3.org/1999/02/22-rdf-syntax-ns#">
 <g fill="#f00" stroke="#000" id='bodyTriceps'>
  <path d="m452.62 131.89-2.7582 1.6146-1.8837 3.5655-3.0273 8.2747-6.391 10.966-7.7365 9.6874-5.7855 6.9964-2.8928 6.391-1.7491 10.158 0.26909 6.9964 0.47092 7.8037 1.8164 10.158 1.6146 4.4401h0.74001l1.6146-7.3328 2.1528-10.696 2.5564-9.0147 3.9692-11.84 3.2291-8.8128 4.44-8.5437 4.2382-5.9874 4.3055-6.7274 1.6818-4.5073 1.1436-5.3146-0.67274-4.6419-1.1436-3.7z" stroke-width=".75px"/>
  <path d="m576.38 132.54 2.7986 1.6146 1.9112 3.5655 3.0716 8.2747 6.4845 10.966 7.8496 9.6874 5.8702 6.9964 2.9351 6.391 1.7747 10.158-0.27303 6.9964-0.47781 7.8037-1.843 10.158-1.6382 4.4401h-0.75082l-1.6382-7.3328-2.1842-10.696-2.5938-9.0147-4.0272-11.84-3.2764-8.8128-4.505-8.5437-4.3002-5.9874-4.3685-6.7274-1.7064-4.5073-1.1604-5.3146 0.68258-4.6419 1.1604-3.7z" stroke-width=".75547px"/>
  <path d="m430.08 151.3 4.07-4.2382 4.4737-3.2964 3.2628-1.8837 0.94183 0.13454-0.40364 1.1773-2.7582 5.9201-3.5319 5.6846-3.5991 5.1464-3.3973 3.9355-0.97547 0.16819-0.26909-1.4464 0.13455-4.2719 1.3118-5.9201z" stroke-width=".75px"/>
  <path d="m599 151.12-4.2318-4.4776-4.6514-3.4825-3.3924-1.99-0.97925 0.14214 0.41968 1.2438 2.8678 6.2544 3.6722 6.0056 3.7421 5.437 3.5323 4.1577 1.0142 0.17769 0.27978-1.528-0.13989-4.5131-1.364-6.2544z" stroke-width=".78605px"/>
  <path d="m579.06 160.4-0.95139 1.5698-0.42813 2.5688-0.0476 5.8035 1.1417 8.7052 1.7601 6.7549 2.1882 5.2802 3.758 5.1375 4.7094 4.424 5.6958 4.5414 0.34552-3.1143-0.4757-2.8066-1.8076-5.3278-2.8066-6.7073-2.2358-5.9938-0.76111-3.5202-1.332-6.4695-3.6629-6.2792-3.3774-3.8056z" stroke-width=".75px"/>
  <path d="m450.22 160.3 0.95139 1.5698 0.42813 2.5688 0.0476 5.8035-1.1417 8.7052-1.7601 6.7549-2.1882 5.2802-3.758 5.1375-4.7094 4.424-5.6958 4.5414-0.34552-3.1143 0.4757-2.8066 1.8076-5.3278 2.8066-6.7073 2.2358-5.9938 0.76111-3.5202 1.332-6.4695 3.6629-6.2792 3.3774-3.8056z" stroke-width=".75px"/>
 </g>
</svg>
