<?xml version="1.0" encoding="UTF-8"?>
<!-- Created with Inkscape (http://www.inkscape.org/) -->
<svg width="126.52mm" height="143.3mm" version="1.1" viewBox="0 0 126.52 143.3" xmlns="http://www.w3.org/2000/svg" xmlns:cc="http://creativecommons.org/ns#" xmlns:dc="http://purl.org/dc/elements/1.1/" xmlns:rdf="http://www.w3.org/1999/02/22-rdf-syntax-ns#">
 <metadata>
  <rdf:RDF>
   <cc:Work rdf:about="">
    <dc:format>image/svg+xml</dc:format>
    <dc:type rdf:resource="http://purl.org/dc/dcmitype/StillImage"/>
    <dc:title/>
   </cc:Work>
  </rdf:RDF>
 </metadata>
 <g transform="translate(-24.433 -20.487)">
  <path d="m87.607 31.761h41.293v-8.9535l0.85192-1.1526 0.70159-0.61806 0.91874-0.31738 1.3698-0.10023h1.6704l0.71828 0.05011 0.56795 0.26727 0.73499 0.61806 0.65147 1.0691 0.10023 0.33409v9.0872h1.5201v-4.5436l0.11693-0.7851 0.55125-0.55124 0.48442-0.3675 0.78511-0.45102 0.71828-0.20045 0.80181-0.05011 0.86863-0.01669 0.61806 0.05011 0.55124 0.28397 0.58466 0.43431 0.36749 0.55124 0.53454 0.61806 0.21716 0.31738v4.6939h3.3409l0.50113 0.26727 0.13363 0.35079 0.11693 0.41761 0.0835 0.50113v0.91874h0.73499v1.186h-0.65147l-0.0334 0.53454-0.18375 0.53454-0.28398 0.35079-0.4009 0.28398-0.25056 0.13364-0.28398 0.05011h-2.5558v4.5102l-0.21716 0.55124-0.35079 0.50113-0.30068 0.3842-0.43431 0.43431-0.50113 0.3675-0.45102 0.13364-0.78511 0.10022-0.85192 0.03341-0.80181-0.05011-0.7851-0.23386-0.71829-0.45102-0.56794-0.51784-0.41761-0.56795-0.26727-0.46772v-4.577h-1.5869v9.7862l-0.26726 0.82108-0.63477 0.43431-0.85192 0.55124-1.0858 0.18375-0.96886 0.05011-1.4199-0.08352-0.86862-0.30068-0.7517-0.85192-0.60135-0.80181-0.3675-0.58465-0.16704-0.35079-0.0668-0.31738v-7.9865h-41.394z"/>
  <path d="m87.774 31.761h-41.293v-8.9535l-0.85192-1.1526-0.70159-0.61806-0.91874-0.31738-1.3698-0.10023h-1.6704l-0.71828 0.0501-0.56795 0.26727-0.73499 0.61806-0.65147 1.0691-0.10023 0.33409v9.0872h-1.5201v-4.5436l-0.11693-0.7851-0.55125-0.55125-0.48442-0.36749-0.78511-0.45102-0.71828-0.20045-0.80181-0.0501-0.86863-0.0167-0.61806 0.0501-0.55124 0.28397-0.58466 0.43431-0.36749 0.55124-0.53454 0.61807-0.21716 0.31738v4.6939h-3.3409l-0.50113 0.26727-0.13363 0.35079-0.11693 0.41761-0.0835 0.50113v0.91874h-0.73499v1.186h0.65147l0.0334 0.53454 0.18375 0.53454 0.28398 0.35079 0.4009 0.28397 0.25055 0.13364 0.28398 0.0501h2.5558v4.5102l0.21716 0.55124 0.35079 0.50113 0.30068 0.3842 0.43431 0.43432 0.50113 0.36749 0.45102 0.13364 0.78511 0.10022 0.85192 0.0334 0.80181-0.0501 0.7851-0.23386 0.71829-0.45102 0.56794-0.51783 0.41761-0.56795 0.26727-0.46772v-4.577h1.5869v9.7862l0.26725 0.82108 0.63478 0.43431 0.85192 0.55124 1.0858 0.18375 0.96886 0.0501 1.4199-0.0835 0.86862-0.30068 0.7517-0.85192 0.60135-0.80181 0.3675-0.58465 0.16704-0.35079 0.0668-0.31738v-7.9865h41.394z"/>
  <circle cx="90.623" cy="53.773" r="12.473" stroke-width=".26458"/>
  <path d="m90.193 68.043h-9.4494l-20.222-26.08-1.4473-0.65014-1.47-0.20045-1.6036 0.26727-1.1693 0.50113-0.96885 0.7684-0.83522 0.93544-0.33409 1.2027-0.13363 1.2695-0.03341 1.5034 0.23386 1.6036 0.3675 0.83522 24.221 27.562 0.03341 83.087 1.0357 1.2361 0.80181 0.96886 1.47 0.63476 1.9377 0.10023 1.9043 0.0668h1.8709l1.47-0.96885 1.1025-1.3029 0.30068-1.0023v-46.772h1.0023z"/>
  <path d="m90.193 68.043h9.4494l20.222-26.08 1.4473-0.65015 1.47-0.20045 1.6036 0.26727 1.1693 0.50113 0.96885 0.7684 0.83521 0.93544 0.33409 1.2027 0.13363 1.2695 0.0334 1.5034-0.23385 1.6036-0.3675 0.83521-24.221 27.562-0.0334 83.087-1.0357 1.2361-0.80181 0.96886-1.47 0.63476-1.9377 0.10023-1.9043 0.0668h-1.8709l-1.47-0.96885-1.1025-1.3029-0.30068-1.0023v-46.772h-1.0023z"/>
 </g>
</svg>
